<?xml version="1.0" standalone="no"?>
<!DOCTYPE svg PUBLIC "-//W3C//DTD SVG 1.1//EN" "http://www.w3.org/Graphics/SVG/1.1/DTD/svg11.dtd" >
<svg xmlns="http://www.w3.org/2000/svg">
<metadata></metadata>
<defs>
<font id="corporateabold" horiz-adv-x="1107" >
<font-face units-per-em="2048" ascent="1638" descent="-410" />
<missing-glyph horiz-adv-x="512" />
<glyph unicode="&#xfb01;" horiz-adv-x="1323" d="M39 -6v57q57 2 82 5.5t42 18t20 35t3 66.5v711h-147v76q108 3 134.5 24t33.5 113q10 96 24 137t48 80q83 92 231 92q113 0 182.5 -51.5t69.5 -134.5q0 -46 -24 -70.5t-68 -24.5t-69.5 19t-25.5 51q0 10 7 53q4 28 4 37q0 28 -15.5 46t-38.5 18q-88 0 -88 -189v-196h232 v-80h-232v-711q0 -45 3 -66t20.5 -35.5t42.5 -18t82 -5.5v-57q-191 12 -277 12q-126 0 -276 -12zM721 -6v57q57 2 82 5.5t42 18t20 35t3 66.5v559q0 39 -1 59t-6.5 39.5t-13 26.5t-26.5 13t-39.5 7t-58.5 1v53q189 12 403 72v-830q0 -45 3 -66t20.5 -35.5t42.5 -18t82 -5.5 v-57q-152 12 -277 12q-85 0 -276 -12zM844 1257q0 67 40.5 112.5t100.5 45.5q61 0 103 -46t42 -112q0 -68 -41 -112.5t-102 -44.5q-60 0 -101.5 45.5t-41.5 111.5z" />
<glyph unicode="&#xfb02;" horiz-adv-x="1300" d="M39 -6v57q57 2 82 5.5t42 18t20 35t3 66.5v711h-147v76q108 3 134.5 24t33.5 113q10 97 24 137.5t50 79.5q80 92 229 92q140 0 213 -76q190 13 391 70v-1227q0 -45 3 -66t20.5 -35.5t42.5 -18t82 -5.5v-57q-190 12 -277 12q-124 0 -276 -12v57q57 2 82 5.5t42 18t20 35 t3 66.5v954q0 52 -2.5 77t-14.5 42.5t-29.5 22t-55.5 6.5q10 -25 10 -55q0 -46 -24 -70.5t-70 -24.5q-44 0 -69.5 19t-25.5 51q0 15 7 43q4 32 4 41q0 29 -14.5 47.5t-39.5 18.5q-88 0 -88 -185v-196h232v-80h-232v-711q0 -45 3 -66t20.5 -35.5t42.5 -18t82 -5.5v-57 q-191 12 -277 12q-126 0 -276 -12z" />
<glyph horiz-adv-x="0" />
<glyph horiz-adv-x="682" />
<glyph unicode=" "  horiz-adv-x="512" />
<glyph unicode="&#x09;" horiz-adv-x="512" />
<glyph unicode="&#xa0;" horiz-adv-x="512" />
<glyph unicode="!" horiz-adv-x="581" d="M129 139q0 68 47.5 115t116.5 47q66 0 113 -48t47 -114q0 -67 -47.5 -114.5t-114.5 -47.5q-66 0 -114 48t-48 114zM145 1362h291l-76 -905h-139z" />
<glyph unicode="&#x22;" horiz-adv-x="739" d="M109 1366h202l-30 -549h-140zM428 1366h203l-33 -549h-139z" />
<glyph unicode="#" horiz-adv-x="1230" d="M41 416l25 151h225l41 256h-226l23 152h227l62 391h174l-62 -391h261l61 391h174l-61 -391h225l-25 -152h-225l-41 -256h225l-24 -151h-226l-65 -416h-174l65 416h-260l-65 -416h-172l65 416h-227zM465 567h260l41 256h-260z" />
<glyph unicode="$" d="M74 -43v492h65q15 -172 117.5 -279t263.5 -119v529q-206 81 -235 96q-201 101 -201 325q0 166 117 270.5t319 117.5v170h68v-173q89 -4 159.5 -32.5t135.5 -85.5l63 131h43v-422h-65q-26 158 -114 245t-222 89v-465q188 -66 260 -109q196 -112 196 -334 q0 -183 -124.5 -300t-331.5 -126v-170h-68v173q-166 15 -319 135l-84 -158h-43zM319 1079q0 -83 41.5 -126t159.5 -83v437q-96 -20 -148.5 -79.5t-52.5 -148.5zM588 53q107 14 165 79.5t58 174.5q0 94 -48 147t-175 99v-500z" />
<glyph unicode="%" horiz-adv-x="1368" d="M61 1051q0 138 88.5 232.5t217.5 94.5q128 0 211.5 -92.5t83.5 -234.5q0 -141 -86.5 -236.5t-213.5 -95.5q-132 0 -216.5 93t-84.5 239zM236 0l792 1366h107l-793 -1366h-106zM242 1049q0 -139 29.5 -203t93.5 -64q63 0 90.5 63t27.5 208q0 135 -28.5 198.5t-89.5 63.5 q-63 0 -93 -65t-30 -201zM709 317q0 140 88 235t217 95q128 0 211.5 -93t83.5 -235q0 -141 -86 -236t-213 -95q-132 0 -216.5 92t-84.5 237zM887 319q0 -140 29.5 -204t93.5 -64q63 0 90.5 63t27.5 208q0 137 -28.5 200.5t-89.5 63.5q-63 0 -93 -65t-30 -202z" />
<glyph unicode="&#x26;" horiz-adv-x="1284" d="M53 354q0 179 131 295q50 45 150 117q-82 116 -104.5 166t-22.5 117q0 124 102 209t250 85q132 0 216.5 -80t84.5 -206q0 -92 -47.5 -166.5t-167.5 -169.5l311 -416q42 56 66.5 115t24.5 104q0 32 -24 45.5t-85 14.5v75q125 -8 156 -8q24 0 155 8v-75q-72 -3 -91.5 -20.5 t-33.5 -86.5q-34 -145 -108 -244l59 -81q46 -63 75.5 -80.5t94.5 -20.5v-57q-111 6 -158 6q-43 0 -157 -6l-72 90q-94 -62 -168.5 -84.5t-183.5 -22.5q-207 0 -330 102t-123 275zM293 319q0 -110 72 -175.5t194 -65.5q65 0 119.5 16.5t124.5 57.5l-330 440 q-93 -61 -136.5 -127t-43.5 -146zM410 1104q0 -46 23 -93.5t85 -129.5q100 71 145.5 130t45.5 119q0 61 -38 99.5t-98 38.5q-69 0 -116 -47.5t-47 -116.5z" />
<glyph unicode="'" horiz-adv-x="419" d="M109 1366h202l-30 -549h-140z" />
<glyph unicode="(" horiz-adv-x="696" d="M143 483q0 592 373 916h70q-213 -347 -213 -916q0 -560 213 -915h-70q-373 330 -373 915z" />
<glyph unicode=")" horiz-adv-x="696" d="M113 -432q213 357 213 915q0 564 -213 916h69q373 -327 373 -916q0 -585 -373 -915h-69z" />
<glyph unicode="*" d="M231 1049l43 129l228 -93l-17 246h138l-17 -246l228 93l43 -129l-240 -62l158 -188l-111 -80l-131 207l-131 -207l-109 80l156 188z" />
<glyph unicode="+" d="M94 604v170h371v367h178v-367h369v-170h-369v-366h-178v366h-371z" />
<glyph unicode="," horiz-adv-x="538" d="M51 -465q158 198 203 459q-69 3 -108.5 42.5t-39.5 106.5q0 69 46 114.5t118 45.5q78 0 121 -52t43 -147q0 -265 -278 -569h-105z" />
<glyph unicode="-" horiz-adv-x="544" d="M0 469v106h545v-106h-545z" />
<glyph unicode="." horiz-adv-x="536" d="M109 137q0 68 47 115t116 47q64 0 111 -47.5t47 -112.5q0 -67 -47 -114.5t-113 -47.5q-67 0 -114 47t-47 113z" />
<glyph unicode="/" horiz-adv-x="911" d="M-182 -397l901 1763h172l-901 -1763h-172z" />
<glyph unicode="0" d="M84 672q0 150 32.5 281.5t92.5 220.5q57 85 149 132.5t199 47.5q99 0 184.5 -42.5t141.5 -117.5q67 -93 104 -232t37 -296q0 -305 -127 -508q-55 -88 -143 -134.5t-197 -46.5q-224 0 -348.5 183t-124.5 512zM344 668q0 -321 51 -473t160 -152q107 0 158 152.5t51 476.5 q0 312 -49.5 462t-155.5 154q-106 5 -160.5 -152t-54.5 -468z" />
<glyph unicode="1" d="M215 1094v71q140 9 256.5 71t163.5 153h72v-1176q0 -91 30 -115.5t144 -27.5v-76q-186 14 -306 14q-121 0 -307 -14v76q114 3 144 27.5t30 115.5v881h-227z" />
<glyph unicode="2" d="M123 0v199q200 201 244.5 249.5t113.5 137.5q103 129 149 221t46 170q0 90 -58 146.5t-151 56.5q-119 0 -188 -88q-39 -53 -56 -144h-96q15 114 36 174t64 107q55 60 139.5 92.5t184.5 32.5q174 0 282.5 -92.5t108.5 -241.5q0 -94 -52.5 -193t-174.5 -235 q-66 -73 -126 -132.5t-243 -234.5h635l-37 -225h-821z" />
<glyph unicode="3" d="M94 379h90q22 -119 87.5 -174t183.5 -55q128 0 202 69t74 187q0 87 -41.5 145.5t-118.5 81.5q-70 18 -188 18h-41v84h41q83 0 122.5 7.5t72.5 27.5q94 60 94 191q0 101 -56.5 163t-150.5 62q-56 0 -105 -23.5t-81 -66.5t-52 -123h-90q41 381 410 381q174 0 279.5 -92 t105.5 -244q0 -224 -240 -305q116 -30 178 -72q58 -41 89.5 -107.5t31.5 -148.5q0 -175 -133 -291.5t-334 -116.5q-130 0 -229 52t-150 147q-43 76 -51 203z" />
<glyph unicode="4" d="M27 319l503 1055h291v-868h228v-187h-228v-333h-264v333h-530zM213 506h354v758z" />
<glyph unicode="5" d="M111 371h92q37 -219 254 -219q126 0 198 83.5t72 231.5q0 129 -69 208t-183 79q-76 0 -137 -35.5t-117 -112.5l-86 15l117 710h682l-39 -211h-590l-57 -352q142 133 334 133q184 0 298.5 -118.5t114.5 -309.5q0 -215 -134 -355.5t-339 -140.5q-182 0 -291.5 105 t-119.5 289z" />
<glyph unicode="6" d="M92 473q0 325 348 670q138 135 293 248h117q-119 -106 -234 -255.5t-161 -256.5q90 41 178 41q161 0 270 -130.5t109 -324.5q0 -206 -134 -347t-329 -141q-197 0 -327 141t-130 355zM358 444q0 -208 46 -303.5t145 -95.5q100 0 147 93t47 288q0 207 -44.5 303t-141.5 96 q-101 0 -150 -93t-49 -288z" />
<glyph unicode="7" d="M88 1118v213h922l-596 -1331h-221l579 1118h-684z" />
<glyph unicode="8" d="M111 360q0 121 53.5 201t173.5 139q-106 52 -154.5 125t-48.5 179q0 159 116 254.5t308 95.5q186 0 296 -96t110 -257q0 -104 -48 -176t-151 -125q120 -55 174.5 -135.5t54.5 -202.5q0 -177 -118 -281t-316 -104q-202 0 -326 105.5t-124 277.5zM371 360q0 -317 186 -317 q178 0 178 311q0 149 -45 227t-131 78q-91 0 -139.5 -77t-48.5 -222zM395 1008q0 -143 39 -212t121 -69q150 0 150 262q0 152 -37 225.5t-113 73.5q-160 0 -160 -280z" />
<glyph unicode="9" d="M96 868q0 204 133 345t328 141t325 -141.5t130 -354.5q0 -442 -635 -917h-119q121 108 235 257t158 257q-92 -43 -178 -43q-161 0 -269 130.5t-108 325.5zM362 905q0 -207 45 -303t142 -96q101 0 148.5 92.5t47.5 286.5q0 210 -45 305.5t-145 95.5q-99 0 -146 -92.5 t-47 -288.5z" />
<glyph unicode=":" horiz-adv-x="536" d="M109 137q0 68 47 115t116 47q64 0 111 -47.5t47 -112.5q0 -67 -47 -114.5t-113 -47.5q-67 0 -114 47t-47 113zM109 774q0 68 47 115t116 47q64 0 111 -47.5t47 -112.5q0 -67 -47 -114.5t-113 -47.5q-67 0 -114 47t-47 113z" />
<glyph unicode=";" horiz-adv-x="538" d="M51 -465q158 198 203 459q-69 3 -108.5 42.5t-39.5 106.5q0 69 46 114.5t118 45.5q78 0 121 -52t43 -147q0 -265 -278 -569h-105zM109 774q0 68 47 115t114 47q66 0 113 -47.5t47 -112.5q0 -67 -47 -114.5t-113 -47.5q-67 0 -114 47t-47 113z" />
<glyph unicode="&#x3c;" horiz-adv-x="1024" d="M84 715v14l854 543v-98l-588 -379l588 -396v-260z" />
<glyph unicode="=" d="M94 463v158h918v-158h-918zM94 758v157h918v-157h-918z" />
<glyph unicode="&#x3e;" horiz-adv-x="1024" d="M84 139v97l588 380l-588 396v260l854 -576v-14z" />
<glyph unicode="?" horiz-adv-x="874" d="M82 989q0 97 19.5 160t64.5 115q111 120 307 120q157 0 250.5 -88t93.5 -237q0 -136 -98 -234q-26 -28 -51 -47t-113 -78q-75 -49 -108 -107t-33 -140h-90q-2 41 -2 75q0 103 27.5 165t121.5 169q55 63 75.5 105t20.5 92q0 72 -48 116t-126 44q-56 0 -104.5 -23.5 t-79.5 -65.5q-34 -48 -47 -141h-80zM225 139q0 68 47.5 115t116.5 47q66 0 113 -48t47 -114q0 -67 -47.5 -114.5t-114.5 -47.5q-66 0 -114 48t-48 114z" />
<glyph unicode="@" horiz-adv-x="1484" d="M70 674q0 148 55 280t149.5 226.5t226.5 150t279 55.5q133 0 250.5 -43.5t201.5 -118.5t132.5 -180t48.5 -225q0 -227 -143 -379q-69 -73 -148.5 -115t-150.5 -42q-69 0 -104.5 38t-47.5 125q-66 -89 -113.5 -121t-113.5 -32q-113 0 -187.5 80.5t-74.5 201.5 q0 113 58.5 217t155 167t201.5 63q67 0 108 -34.5t60 -106.5l33 123h184l-147 -547q-10 -30 -10 -56q0 -25 12.5 -39t32.5 -14q40 0 91 41.5t97 110.5q99 156 99 311q0 128 -68.5 234.5t-188.5 167.5t-264 61q-170 0 -306.5 -77.5t-214 -214t-77.5 -306.5q0 -167 80 -301 t222 -209.5t319 -75.5q280 0 471 266h125q-49 -87 -91 -136.5t-110 -100.5q-188 -139 -411 -139q-151 0 -285 53.5t-229.5 145t-151 220.5t-55.5 275zM516 502q0 -66 30 -108t77 -42q51 0 99.5 50t88.5 143q26 60 44.5 138.5t18.5 131.5q0 142 -100 148q-49 3 -99 -46.5 t-93 -142.5q-66 -149 -66 -272z" />
<glyph unicode="A" horiz-adv-x="1390" d="M20 -6v76q101 3 143.5 39t96.5 165l455 1145l448 -1206q32 -85 71 -111.5t136 -31.5v-76q-172 14 -309 14t-309 -14v76q77 2 102 8q45 6 45 47q0 17 -16 76l-52 168h-448l-55 -146q-23 -62 -23 -90q0 -35 27.5 -47.5t116.5 -15.5v-76q-141 8 -213 8q-75 0 -216 -8z M416 453h389l-178 536z" />
<glyph unicode="B" horiz-adv-x="1243" d="M53 0v76q114 3 144 27.5t30 115.5v928q0 64 -12.5 92t-47.5 39t-114 12v76h602q104 0 172.5 -15.5t124.5 -50.5q67 -43 105.5 -115t38.5 -155q0 -219 -240 -295q141 -19 223 -111t82 -231q0 -115 -60.5 -209.5t-158.5 -134.5q-128 -49 -328 -49h-561zM489 166 q0 -51 18.5 -67.5t74.5 -16.5h73q120 0 178 73.5t58 225.5q0 161 -66 233q-28 32 -71.5 46t-118.5 14h-146v-508zM489 752h109q123 0 175 61t52 207q0 145 -48 206.5t-161 61.5h-127v-536z" />
<glyph unicode="C" horiz-adv-x="1312" d="M111 664q0 345 155.5 540t431.5 195q114 0 197.5 -35t161.5 -115l67 150h45v-469h-65q-31 138 -80 217q-45 74 -121.5 118t-163.5 44q-198 0 -276 -187q-72 -170 -72 -424q0 -579 361 -579q161 0 260.5 98.5t111.5 269.5h70q-6 -236 -144 -378t-362 -142q-261 0 -419 191 t-158 506z" />
<glyph unicode="D" horiz-adv-x="1347" d="M53 0v76q114 3 144 27.5t30 115.5v928q0 64 -12.5 92t-47.5 39t-114 12v76h582q143 0 244.5 -34.5t179.5 -110.5q98 -94 152.5 -234.5t54.5 -298.5q0 -163 -59.5 -310.5t-162.5 -236.5q-85 -73 -198.5 -107t-276.5 -34h-516zM498 168q0 -56 20 -73t86 -17q208 0 287 115 q104 146 104 512q0 306 -89 444.5t-285 138.5h-123v-1120z" />
<glyph unicode="E" horiz-adv-x="1193" d="M53 0v76q114 3 144 27.5t30 115.5v928q0 64 -12.5 92t-47.5 39t-114 12v76h977l57 -360h-65q-37 165 -94.5 223.5t-182.5 58.5h-247v-540h229q69 0 90.5 30.5t30.5 139.5h76v-418h-76q-5 105 -28 137.5t-93 32.5h-229v-486q0 -65 23 -85.5t95 -20.5h107q91 0 143.5 28.5 t102.5 104.5q46 70 75 168h66l-66 -379h-991z" />
<glyph unicode="F" horiz-adv-x="1138" d="M55 -6v76q114 3 144 27.5t30 115.5v934q0 64 -12.5 92t-47.5 39t-114 12v76h977l58 -360h-66q-37 165 -94 223.5t-182 58.5h-248v-540h229q69 0 90.5 30.5t30.5 139.5h76v-418h-76q-5 105 -28 137.5t-93 32.5h-229v-457q0 -92 29.5 -116t144.5 -27v-76q-175 14 -309 14 q-135 0 -310 -14z" />
<glyph unicode="G" horiz-adv-x="1384" d="M82 684q0 327 164.5 516t447.5 189q115 0 202 -32t175 -106l72 148h45v-469h-66q-32 134 -73 205q-47 87 -131 135.5t-187 48.5q-186 0 -277.5 -154.5t-91.5 -468.5q0 -273 62 -444q35 -101 113 -155t188 -54q54 0 102 11t121 40v357q0 70 -26 89.5t-123 24.5v76 q131 -12 270 -12t270 12v-76q-88 -4 -110.5 -24.5t-22.5 -94.5v-296q-232 -173 -508 -173q-287 0 -451.5 188.5t-164.5 518.5z" />
<glyph unicode="H" horiz-adv-x="1462" d="M53 -6v76q114 3 144 27.5t30 115.5v940q0 64 -12.5 92t-47.5 39t-114 12v76q175 -14 297 -14q123 0 312 14v-76q-112 -1 -142.5 -26.5t-30.5 -116.5v-403h484v403q0 64 -12.5 92t-47.5 39t-114 12v76q192 -14 313 -14q122 0 297 14v-76q-112 -1 -143 -26.5t-31 -116.5 v-940q0 -91 30 -115.5t144 -27.5v-76q-175 14 -297 14q-124 0 -313 -14v76q115 3 144.5 27t29.5 116v459h-484v-459q0 -91 29.5 -115.5t143.5 -27.5v-76q-186 14 -312 14q-122 0 -297 -14z" />
<glyph unicode="I" horiz-adv-x="722" d="M53 -6v76q114 3 144 27.5t30 115.5v940q0 64 -12.5 92t-47.5 39t-114 12v76q192 -14 309 -14q118 0 310 14v-76q-79 -1 -114 -12t-47.5 -39t-12.5 -92v-940q0 -92 29.5 -116t144.5 -27v-76q-189 14 -310 14q-120 0 -309 -14z" />
<glyph unicode="J" horiz-adv-x="724" d="M-23 -53q44 -8 76 -8q103 0 141.5 54.5t38.5 199.5v960q0 64 -12.5 92t-47.5 39t-114 12v76q192 -14 310 -14q117 0 309 14v-76q-79 -1 -114 -12t-47.5 -39t-12.5 -92v-866q0 -124 -19.5 -195t-68.5 -125q-104 -119 -332 -119q-42 0 -107 9v90z" />
<glyph unicode="K" horiz-adv-x="1425" d="M53 -6v76q114 3 144 27.5t30 115.5v940q0 64 -12.5 92t-47.5 39t-114 12v76q192 -14 314 -14t297 14v-76q-114 -1 -144.5 -26.5t-30.5 -116.5v-469l453 498q37 40 37 65q0 26 -24.5 35t-106.5 14v76q131 -8 225 -8t225 8v-76q-83 -5 -137 -30t-114 -88l-269 -285 l393 -666q60 -96 102.5 -125t129.5 -32v-76q-175 16 -311 16q-135 0 -312 -16v76q86 4 109.5 14t23.5 41q0 21 -28 68l-279 518l-117 -125v-373q0 -90 26 -113.5t132 -29.5v-76q-143 14 -280 14q-139 0 -314 -14z" />
<glyph unicode="L" horiz-adv-x="1130" d="M53 0v76q114 3 144 27.5t30 115.5v934q0 64 -12.5 92t-47.5 39t-114 12v76q192 -14 309 -14q118 0 310 14v-76q-79 -1 -114 -12t-47.5 -39t-12.5 -92v-967q0 -67 22 -87.5t96 -20.5h107q93 0 146 28.5t100 104.5q46 70 75 168h66l-66 -379h-991z" />
<glyph unicode="M" horiz-adv-x="1808" d="M51 -6v74q114 3 143 27.5t29 115.5l21 940l2 8q0 84 -32.5 108.5t-141.5 26.5v78q123 -8 227 -8q114 0 242 8l370 -899l373 899q125 -8 236 -8q102 0 219 8v-76q-113 -5 -143.5 -28t-30.5 -105v-10l18 -942q0 -90 30 -115t142 -28v-74q-183 14 -307 14q-126 0 -309 -14 v74q111 3 142.5 27.5t31.5 107.5v8l-19 985l-372 -909q-35 -86 -86 -248h-43q-42 124 -43 127q-8 22 -28 72t-30 77l-368 893l-21 -997v-16v-12q1 -64 31 -87q34 -25 143 -28v-74q-135 6 -203 6q-64 0 -223 -6z" />
<glyph unicode="N" horiz-adv-x="1417" d="M51 1296v76q129 -6 199 -6t196 6l670 -891v672q0 64 -12.5 92t-47.5 39t-114 12v76q138 -6 213 -6q78 0 213 6v-76q-79 -1 -114 -12t-47.5 -39t-12.5 -92v-1188h-47q-44 78 -109 170q-104 146 -133 182l-600 809v-913q0 -92 29.5 -116t144.5 -27v-76q-141 6 -213 6 q-75 0 -213 -6v76q116 3 145 27t29 116v1006q-48 43 -84.5 59.5t-91.5 17.5z" />
<glyph unicode="O" horiz-adv-x="1368" d="M82 680q0 329 162.5 524t437.5 195q139 0 257 -54.5t200 -154.5q145 -187 145 -514q0 -324 -163.5 -516.5t-440.5 -192.5q-276 0 -437 192t-161 521zM362 696q0 -255 54 -436q31 -107 101 -167t165 -60q163 0 242.5 162.5t79.5 492.5t-76 487.5t-236 157.5t-245 -164 t-85 -473z" />
<glyph unicode="P" horiz-adv-x="1206" d="M53 -6v76q114 3 144 27.5t30 115.5v934q0 64 -12.5 92t-47.5 39t-114 12v76h600q118 0 191 -15.5t133 -52.5q78 -50 125 -136.5t47 -184.5q0 -95 -44.5 -182t-119.5 -140q-109 -75 -301 -75h-186v-367q0 -92 29.5 -116t144.5 -27v-76q-189 14 -310 14q-120 0 -309 -14z M498 657h88q149 0 221 77t72 237q0 163 -69.5 240t-215.5 77h-96v-631z" />
<glyph unicode="Q" horiz-adv-x="1347" d="M82 680q0 330 160 524.5t432 194.5t431 -192.5t159 -522.5q0 -222 -82 -399l55.5 -85.5t42 -58t36 -40t35 -21t42 -13t53.5 -4.5v-86h-137q-93 0 -148 21.5t-139 89.5q-80 -63 -163.5 -92t-188.5 -29q-270 0 -429 192.5t-159 520.5zM352 696q0 -255 54 -436 q31 -108 100.5 -167.5t165.5 -59.5q162 0 241.5 162t79.5 493q0 328 -76.5 486.5t-234.5 158.5q-160 0 -245 -164t-85 -473z" />
<glyph unicode="R" horiz-adv-x="1312" d="M53 -6v76q114 3 144 27.5t30 115.5v934q0 64 -12.5 92t-47.5 39t-114 12v76h602q119 0 191.5 -15.5t132.5 -54.5q75 -47 119.5 -129t44.5 -174q0 -89 -40.5 -164t-111.5 -116q-65 -40 -176 -66q74 -25 111 -62t84 -134l112 -242q38 -86 70 -111.5t100 -27.5v-76 q-114 6 -172 6q-56 0 -170 -6q-23 34 -63 123l-144 332q-44 104 -82 135.5t-120 31.5h-52v-403q0 -91 29.5 -115.5t143.5 -27.5v-76q-169 14 -295 14q-125 0 -314 -14zM498 694h106q137 0 197 66q73 76 73 229q0 299 -256 299h-120v-594z" />
<glyph unicode="S" horiz-adv-x="1134" d="M115 -45v491h71q17 -131 74 -227q46 -71 124 -114.5t161 -43.5q110 0 186 68t76 166q0 112 -105 194q-49 36 -192 117q-127 70 -186.5 109.5t-94.5 77.5q-92 100 -92 237q0 161 119.5 260t314.5 99q97 0 164 -26.5t139 -92.5l68 131h45v-422h-69q-29 164 -108 249 t-202 85q-103 0 -169 -60.5t-66 -154.5q0 -69 37.5 -110.5t162.5 -110.5q183 -100 275 -158q103 -68 148.5 -145.5t45.5 -186.5q0 -180 -121.5 -295t-312.5 -115q-104 0 -189 31t-179 103l-80 -156h-45z" />
<glyph unicode="T" horiz-adv-x="1196" d="M37 987l65 379h992l65 -379h-69q-40 167 -105 234t-188 67h-64v-1075q0 -92 29.5 -116t144.5 -27v-76q-175 14 -309 14t-309 -14v76q115 3 144.5 27t29.5 116v1075h-62q-124 0 -189 -67.5t-103 -233.5h-72z" />
<glyph unicode="U" horiz-adv-x="1417" d="M43 1296v76q192 -14 309 -14q118 0 310 14v-76q-114 -1 -144.5 -26.5t-30.5 -116.5v-737q0 -163 72 -241.5t223 -78.5q99 0 178 39t117 107q45 80 45 264v647q0 64 -12.5 92t-47.5 39t-114 12v76q138 -6 213 -6q79 0 211 6v-76q-112 -1 -142 -26.5t-30 -116.5v-666 q0 -119 -19 -193t-67 -140q-132 -177 -405 -177q-123 0 -223.5 40.5t-166.5 115.5q-55 61 -78.5 138.5t-23.5 195.5v686q0 64 -12.5 92t-47.5 39t-114 12z" />
<glyph unicode="V" horiz-adv-x="1357" d="M20 1296v76q167 -14 297 -14t297 14v-76q-85 -4 -114 -17.5t-29 -47.5q0 -23 27 -96l276 -752l283 754q28 71 28 100q0 31 -28 43.5t-107 15.5v76q123 -6 193 -6q68 0 194 6v-76q-73 -7 -115.5 -41t-70.5 -106l-354 -913q-53 -135 -97 -269h-55q-16 55 -104 283l-336 874 q-41 102 -74 132.5t-111 39.5z" />
<glyph unicode="W" horiz-adv-x="1886" d="M37 1296v76q164 -14 291 -14q124 0 288 14v-76q-54 -4 -77 -10q-60 -13 -60 -63q0 -15 19 -86l188 -648l338 928h47l320 -934l198 641q21 72 21 101q0 40 -25.5 54t-103.5 17v76q123 -6 192 -6q68 0 191 6v-76q-85 -6 -120.5 -35t-64.5 -118l-290 -934q-23 -71 -62 -242 h-51q-21 101 -55 205l-275 803l-270 -758q-28 -78 -39 -117t-33 -133h-51q-18 95 -51 217l-281 940q-31 102 -65 134t-119 38z" />
<glyph unicode="X" horiz-adv-x="1357" d="M31 -6v76q83 5 144.5 39.5t115.5 107.5l284 406l-284 526q-43 82 -86.5 111.5t-128.5 35.5v76q169 -14 307 -14q136 0 305 14v-76q-84 -4 -109.5 -15t-25.5 -42q0 -25 25 -68l163 -307l185 262q39 55 50 76t11 41q0 29 -25 39.5t-100 13.5v76q135 -6 211 -6t211 6v-76 q-86 -4 -133.5 -31t-97.5 -98l-269 -381l281 -522q64 -121 111 -156t149 -38v-76q-178 14 -315 14t-318 -14v76q86 4 108.5 14.5t22.5 42.5q0 33 -32 92l-177 326l-227 -330q-43 -59 -43 -90q0 -29 21.5 -39t97.5 -16v-76q-144 6 -215 6q-73 0 -217 -6z" />
<glyph unicode="Y" horiz-adv-x="1280" d="M31 1296v76q164 -14 299 -14q133 0 297 14v-76q-79 -3 -107 -16t-28 -45q0 -25 28 -82l225 -451l218 437q34 64 34 100q0 31 -26 42.5t-101 14.5v76q132 -6 195 -6t195 6v-76q-82 -8 -119 -32.5t-72 -94.5l-293 -581v-375q0 -92 29.5 -116t144.5 -27v-76q-192 14 -309 14 t-309 -14v76q115 3 144.5 27t29.5 116v375l-268 538q-46 95 -88 129.5t-119 40.5z" />
<glyph unicode="Z" horiz-adv-x="1177" d="M49 0l694 1288h-198q-138 0 -211 -59t-133 -219h-72l61 356h893l-694 -1288h313q98 0 151.5 25t104.5 94q61 84 99 206h71l-69 -403h-1010z" />
<glyph unicode="[" horiz-adv-x="696" d="M221 -397v1763h420v-61h-223v-1641h223v-61h-420z" />
<glyph unicode="\" horiz-adv-x="911" d="M20 1366h173l901 -1763h-172z" />
<glyph unicode="]" horiz-adv-x="696" d="M57 -336h224v1641h-224v61h420v-1763h-420v61z" />
<glyph unicode="^" horiz-adv-x="1024" d="M-55 580l575 854h17l542 -854h-98l-379 587l-397 -587h-260z" />
<glyph unicode="_" horiz-adv-x="1024" d="M35 -184h954v-113h-954v113z" />
<glyph unicode="`" horiz-adv-x="1024" d="M125 1409h393l123 -285h-90z" />
<glyph unicode="a" horiz-adv-x="1019" d="M57 244q0 282 547 358v137q0 99 -35 143t-114 44q-57 0 -98.5 -26.5t-41.5 -61.5q0 -19 2 -29q9 -44 9 -61q0 -52 -28 -80.5t-79 -28.5q-96 0 -96 96q0 106 106.5 180t259.5 74q109 0 193 -37t127 -104q29 -43 41 -111t12 -192v-355q0 -83 14.5 -111t57.5 -28q21 0 55 10 v-59q-87 -22 -149 -22q-95 0 -144 43.5t-61 140.5q-49 -98 -117 -142.5t-166 -44.5q-132 0 -213.5 73.5t-81.5 193.5zM315 279q0 -89 37 -140t103 -51q51 0 87 30t50 83q12 53 12 147v195q-160 -31 -224.5 -89t-64.5 -175z" />
<glyph unicode="b" horiz-adv-x="1120" d="M20 1278v53q81 4 195 24.5t207 47.5v-508q54 53 102.5 73.5t118.5 20.5q180 0 296 -142t116 -362t-124 -364t-313 -144q-195 0 -262 177l-137 -177h-53v1156q0 38 -1 58.5t-7 39.5t-13 26.5t-26.5 13t-39.5 6.5t-59 1zM420 494q0 -243 42.5 -351t137.5 -108 q100 0 145.5 112t45.5 357q0 221 -43.5 324.5t-137.5 103.5q-98 0 -144 -106t-46 -332z" />
<glyph unicode="c" horiz-adv-x="952" d="M80 477q0 229 125.5 374.5t322.5 145.5q75 0 130.5 -21.5t107.5 -72.5l63 109h41v-383h-61q-15 103 -45 166q-28 63 -79.5 99t-113.5 36q-129 0 -180 -135q-45 -130 -45 -314q0 -426 219 -426q93 0 155 68t79 188h86q-25 -166 -118.5 -252t-250.5 -86q-194 0 -315 140 t-121 364z" />
<glyph unicode="d" horiz-adv-x="1122" d="M66 463q0 217 116.5 359.5t294.5 142.5q70 0 119 -21t102 -74v263q0 38 -1 58.5t-7 39.5t-13 26t-26 13t-39.5 7t-58.5 1v53q83 4 197.5 25t205.5 47v-1180q0 -88 26 -109.5t132 -21.5v-55q-121 -13 -174.5 -24t-169.5 -46l-10 27q-21 69 -25 102q-50 -77 -105 -109 t-138 -32q-184 0 -305 144t-121 364zM330 469q0 -238 45 -347.5t145 -109.5q50 0 88.5 33.5t55.5 93.5q36 122 36 324q0 230 -46 337t-144 107q-95 0 -137.5 -103.5t-42.5 -334.5z" />
<glyph unicode="e" horiz-adv-x="983" d="M66 483q0 230 121 371t319 141q129 0 225.5 -64t140.5 -181q37 -101 43 -267h-583q0 -174 26 -262q51 -166 222 -166q102 0 169 65t87 185h79q-28 -160 -130 -246t-265 -86q-205 0 -329.5 140t-124.5 370zM332 557h321q-4 203 -40 293t-111 90q-82 0 -123 -92.5 t-47 -290.5z" />
<glyph unicode="f" horiz-adv-x="669" d="M39 -6v57q57 2 82 5.5t42 18t20 35t3 66.5v711h-147v76q108 3 134.5 24t33.5 113q10 96 24 137t48 80q83 92 231 92q113 0 182.5 -51.5t69.5 -134.5q0 -46 -24 -70.5t-68 -24.5t-69.5 19t-25.5 51q0 10 7 53q4 28 4 37q0 28 -15.5 46t-38.5 18q-88 0 -88 -189v-196h232 v-80h-232v-711q0 -45 3 -66t20.5 -35.5t42.5 -18t82 -5.5v-57q-191 12 -277 12q-126 0 -276 -12z" />
<glyph unicode="g" horiz-adv-x="1030" d="M53 -168q0 138 146 195q-54 36 -76.5 70t-22.5 83q0 126 195 187q-95 43 -146 117.5t-51 172.5q0 155 101 243.5t278 88.5q73 0 123 -12.5t100 -44.5h279v-105h-176q55 -72 55 -180q0 -92 -45 -165t-127 -113q-39 -20 -81 -28t-154 -19q-105 -10 -141 -26.5t-36 -51.5 q0 -28 19.5 -41t68.5 -17q30 -3 199 -14q195 -12 273 -55q63 -34 97 -90t34 -125q0 -146 -135 -237t-349 -91q-199 0 -313.5 69t-114.5 189zM152 -162q0 -80 91 -132t232 -52q136 0 213.5 43.5t77.5 118.5q0 80 -91.5 116.5t-291.5 36.5q-122 0 -176.5 -31t-54.5 -100z M332 657q0 -135 36.5 -199.5t112.5 -64.5q144 0 144 279q0 260 -144 260q-149 0 -149 -275z" />
<glyph unicode="h" horiz-adv-x="1204" d="M37 -6v57q57 2 82 5.5t42 18t20 35t3 66.5v957q0 38 -1 58.5t-7 39.5t-13 26t-26 13t-39.5 7t-58.5 1v53q180 10 403 72v-533q98 119 269 119q152 0 230.5 -87t78.5 -255v-471q0 -46 3 -66.5t20 -35t42 -18t82 -5.5v-57q-133 10 -254 10q-129 0 -249 -10v55q64 1 81 21 t17 94v516q0 100 -27 139q-40 62 -125 62q-95 0 -141 -74q-27 -42 -27 -131v-512q0 -73 17 -93t82 -22v-55q-123 10 -252 10q-119 0 -252 -10z" />
<glyph unicode="i" horiz-adv-x="653" d="M51 -6v57q57 2 82 5.5t42.5 18t20.5 35.5t3 66v559q0 38 -1 58.5t-7 39.5t-13.5 26.5t-26.5 13.5t-39.5 7t-58.5 1v53q190 12 404 72v-830q0 -46 3 -66.5t20 -35t42 -18t82 -5.5v-57q-191 12 -276 12q-125 0 -277 -12zM174 1257q0 67 40.5 112.5t100.5 45.5 q61 0 103.5 -46t42.5 -112q0 -67 -41 -112t-103 -45q-60 0 -101.5 45.5t-41.5 111.5z" />
<glyph unicode="j" horiz-adv-x="628" d="M-25 -326q8 -2 17 -2q94 0 143 43q32 28 45 75t13 140v805q0 38 -1 58.5t-7 39.5t-13.5 26.5t-26.5 13.5t-39.5 7t-58.5 1v53q199 13 404 72v-969q0 -161 -41 -251.5t-136 -141.5q-43 -23 -116.5 -38.5t-143.5 -15.5q-21 0 -39 2v82zM168 1257q0 67 40.5 112.5 t100.5 45.5q61 0 103.5 -46t42.5 -112q0 -67 -41 -112t-103 -45q-60 0 -101.5 45.5t-41.5 111.5z" />
<glyph unicode="k" horiz-adv-x="1171" d="M37 -6v57q57 2 82 5.5t42 18t20 35t3 66.5v957q0 38 -1 58.5t-7 39.5t-13 26t-26 13t-39.5 7t-58.5 1v53q185 16 397 72v-922l252 289q51 60 51 92q0 26 -26 37.5t-101 15.5v58q108 -10 226 -10q121 0 262 10v-58q-84 -9 -129 -31.5t-103 -84.5l-157 -176l264 -426 q53 -88 86 -114t102 -32v-57q-135 6 -180 6q-54 0 -168 -6l-262 483l-123 -133v-168q0 -45 3 -66t20.5 -35.5t42.5 -18t82 -5.5v-57q-140 12 -273 12q-130 0 -268 -12z" />
<glyph unicode="l" horiz-adv-x="628" d="M39 -6v57q57 2 82 5.5t42 18t20 35t3 66.5v957q0 38 -1 58.5t-7 39.5t-13 26t-26 13t-39.5 7t-58.5 1v53q192 13 403 72v-1227q0 -45 3 -66t20.5 -35.5t42.5 -18t82 -5.5v-57q-191 12 -277 12q-124 0 -276 -12z" />
<glyph unicode="m" horiz-adv-x="1738" d="M49 879v53q211 18 338 59q32 -80 39 -166q58 87 123 125.5t153 38.5q183 0 265 -162q54 89 117.5 125.5t164.5 36.5q301 0 301 -307v-506q0 -46 3 -66.5t21 -35t44 -18t84 -5.5v-57q-133 10 -256 10q-134 0 -256 -10v55q67 1 84.5 21t17.5 94v524q0 101 -31 143.5 t-106 42.5q-76 0 -112.5 -45.5t-36.5 -140.5v-524q0 -74 17.5 -94t84.5 -21v-55q-122 10 -231 10t-232 -10v55q67 1 85 21t18 94v528q0 99 -27 135q-38 47 -107 47q-42 0 -78 -18.5t-55 -50.5q-20 -34 -20 -121v-520q0 -74 17.5 -94t86.5 -21v-55q-123 10 -256 10 q-123 0 -256 -10v57q39 2 60 3.5t40.5 7t27 12t14 22t7.5 32.5t1 48v555q0 42 -0.5 61.5t-6.5 40t-13 26.5t-28 12.5t-42 7t-64 0.5z" />
<glyph unicode="n" horiz-adv-x="1218" d="M49 879v53q191 18 334 59q33 -77 39 -172q58 91 129 130.5t172 39.5q154 0 232.5 -86.5t78.5 -255.5v-471q0 -45 3 -66t20.5 -35.5t42.5 -18t82 -5.5v-57q-132 10 -254 10q-130 0 -250 -10v55q64 1 81 21t17 94v516q0 101 -26 139q-43 62 -125 62q-96 0 -142 -74 q-26 -40 -26 -131v-512q0 -74 17 -94t81 -21v-55q-123 10 -252 10q-119 0 -252 -10v57q57 2 82 5.5t42.5 18t20.5 35.5t3 66v555q0 41 -0.5 61t-6.5 40.5t-13 27t-27.5 12.5t-40.5 6.5t-62 0.5z" />
<glyph unicode="o" horiz-adv-x="1028" d="M66 479q0 221 130 368.5t324 147.5q195 0 318 -143.5t123 -370.5q0 -140 -59 -257t-162 -184t-226 -67q-193 0 -320.5 144t-127.5 362zM330 481q0 -235 43.5 -342.5t138.5 -107.5q97 0 140.5 104.5t43.5 333.5q0 246 -42 357.5t-136 111.5q-95 0 -141.5 -112.5 t-46.5 -344.5z" />
<glyph unicode="p" horiz-adv-x="1128" d="M23 879v55q156 10 335 55q25 -70 35 -141q54 78 109 109.5t135 31.5q119 0 217 -66.5t153.5 -183t55.5 -258.5q0 -220 -116 -362t-296 -142q-70 0 -119 21t-102 74v-295q0 -45 3 -66t20.5 -35.5t42.5 -18t82 -5.5v-58q-210 13 -277 13q-66 0 -276 -13v58q57 2 82 5.5 t42 18t20 35t3 66.5v956q0 98 -20 122t-103 24h-26zM428 483q0 -235 45 -341.5t145 -106.5q94 0 137.5 103t43.5 325q0 244 -45.5 356.5t-143.5 112.5q-94 0 -138 -108.5t-44 -340.5z" />
<glyph unicode="q" horiz-adv-x="1122" d="M66 481q0 218 122.5 363t305.5 145q82 0 136.5 -32t104.5 -109q12 74 35 141q108 -27 161 -36t169 -19v-55q-40 0 -61 -1t-41 -7t-27 -13t-13 -26.5t-7 -39.5t-1 -59v-956q0 -45 3 -66t20.5 -35.5t42.5 -18t82 -5.5v-58q-187 13 -267 13q-70 0 -280 -13v58q57 2 82 5.5 t42 18t20 35t3 66.5v295q-55 -53 -103 -74t-118 -21q-180 0 -295.5 142t-115.5 362zM330 463q0 -223 43 -325.5t137 -102.5q98 0 144 106.5t46 333.5q0 238 -43 347.5t-135 109.5q-101 0 -146.5 -111.5t-45.5 -357.5z" />
<glyph unicode="r" horiz-adv-x="880" d="M49 891v53q188 9 330 49q25 -82 31 -174q54 92 113 134t134 42q89 0 145 -54t56 -140q0 -52 -27.5 -80.5t-78.5 -28.5q-44 0 -71.5 20t-27.5 54q0 7 4 31q7 35 7 49q0 23 -14.5 36t-39.5 13q-41 0 -77 -26.5t-56 -71.5q-20 -50 -20 -148v-473q0 -46 3 -66.5t20 -35 t42 -18t82 -5.5v-57q-191 12 -276 12q-125 0 -277 -12v57q57 2 82 5.5t42.5 18t20.5 35.5t3 66v567q0 41 -0.5 61t-7 40t-12.5 26.5t-27 12.5t-40.5 6.5t-62.5 1.5z" />
<glyph unicode="s" horiz-adv-x="923" d="M119 715q0 120 95.5 197t244.5 77q70 0 122.5 -19t106.5 -63l51 109h39v-340h-59q-19 125 -69 181t-144 56q-72 0 -124 -41t-52 -98q0 -43 29.5 -72t119.5 -75q112 -57 175.5 -95t103.5 -78.5t52.5 -78t12.5 -92.5q0 -134 -97 -220t-249 -86q-80 0 -139 23t-123 80 l-55 -115h-39v369h59q19 -136 82.5 -209.5t161.5 -73.5q74 0 126 46t52 110q0 54 -36 88.5t-175 110.5q-176 97 -217 147q-55 68 -55 162z" />
<glyph unicode="t" horiz-adv-x="690" d="M53 887v76q113 2 192 81t113 226h80l-6 -303h207v-80h-207l-4 -604v-10q0 -107 21 -149q22 -44 79 -44q66 0 140 63v-82q-73 -46 -124 -62.5t-116 -16.5q-155 0 -223 100q-45 59 -45 188v23l14 594h-121z" />
<glyph unicode="u" horiz-adv-x="1206" d="M25 881v53q198 13 403 72v-705q0 -112 31 -156q39 -57 119 -57q50 0 88.5 23.5t58.5 66.5q20 41 20 129v428q0 39 -1 59t-6.5 39.5t-13 26.5t-26.5 13t-39.5 7t-58.5 1v53q206 16 404 72v-811q0 -65 19.5 -80.5t106.5 -18.5l25 -2v-57q-202 -18 -346 -70q-23 108 -25 185 q-53 -88 -123 -128t-174 -40q-177 0 -264 122q-53 75 -53 213v416q0 39 -1 59t-6.5 39.5t-13 26.5t-26.5 13t-39.5 7t-58.5 1z" />
<glyph unicode="v" horiz-adv-x="1054" d="M10 915v58q185 -12 264 -12q76 0 263 12v-58q-73 -5 -91 -11.5t-18 -29.5q0 -18 8 -34l10 -29l164 -483l195 481q20 51 20 65q0 22 -21 30t-85 11v58q131 -8 164 -8q30 0 161 8v-58q-66 -4 -96 -24t-53 -74l-250 -610q-10 -18 -20 -47q-45 -97 -76 -193h-49 q-26 74 -86 211l-267 645q-23 55 -48.5 72t-88.5 20z" />
<glyph unicode="w" horiz-adv-x="1540" d="M14 915v58q184 -10 256 -10q66 0 254 10v-58q-61 -4 -83.5 -15t-22.5 -36q0 -16 8 -35q6 -21 16 -41l158 -434l254 645h55l232 -645l159 443q17 47 17 67q0 28 -22 38t-85 13v58q128 -8 160 -8q33 0 158 8v-58q-66 -9 -97 -36.5t-59 -100.5l-260 -688q-28 -76 -39 -123 h-49q-12 48 -18 64q-7 28 -21 59l-190 561l-228 -549q-27 -63 -45 -135h-49q-20 61 -43 125l-260 694q-29 77 -58 101t-98 28z" />
<glyph unicode="x" horiz-adv-x="1103" d="M33 -6v57q63 9 105 38.5t108 111.5l192 241l-223 375q-31 52 -68.5 74t-97.5 24v58q154 -10 268 -10q116 0 252 10v-58q-55 -5 -73.5 -13t-18.5 -28q0 -22 27 -65l98 -166l143 176q31 38 31 58t-19.5 28t-72.5 10v58q117 -6 162 -6q47 0 164 6v-58q-55 -7 -94 -29 t-74 -65l-199 -241l236 -396q44 -72 86 -101t108 -32v-57q-154 10 -274 10t-264 -10v57q57 0 77.5 9.5t20.5 35.5q0 21 -27 66l-127 215l-174 -215q-27 -33 -34 -45.5t-7 -26.5q0 -20 15.5 -27.5t70.5 -11.5v-57q-114 6 -160 6q-43 0 -157 -6z" />
<glyph unicode="y" horiz-adv-x="1095" d="M37 915v58q141 -10 260 -10t260 10v-58q-66 -5 -87 -13.5t-21 -31.5q0 -10 18 -61l172 -481l195 465q22 59 22 77q0 25 -23.5 35t-84.5 10v58q108 -6 161 -6q50 0 164 6v-58q-61 -6 -94 -36t-70 -113l-399 -932q-35 -80 -84.5 -138t-101.5 -81q-58 -25 -150 -25 q-28 0 -53 4v115q23 -4 51 -4q94 0 156 38.5t102 121.5l78 160l-305 753q-35 79 -66.5 105t-99.5 32z" />
<glyph unicode="z" horiz-adv-x="948" d="M55 0l500 901h-131q-107 0 -156.5 -44t-109.5 -195h-62l54 305h735l-504 -901h149q85 0 128 23t81 89q44 74 72 160h61l-59 -338h-758z" />
<glyph unicode="{" horiz-adv-x="696" d="M133 508q83 43 107 78t24 114v439q0 82 18.5 132t59.5 81q35 28 79 37.5t132 9.5h63q-85 -22 -120 -71t-35 -146v-439q0 -100 -28 -146t-116 -89q87 -44 115.5 -90.5t28.5 -145.5v-487q0 -97 35 -146t120 -71h-63q-97 0 -145.5 13t-83.5 50q-60 63 -60 197v487 q0 78 -25 115t-106 78z" />
<glyph unicode="|" horiz-adv-x="1024" d="M438 -342v1708h148v-1708h-148z" />
<glyph unicode="}" horiz-adv-x="696" d="M80 -432q85 22 120.5 71t35.5 146v487q0 99 27.5 145.5t113.5 90.5q-86 43 -113.5 89t-27.5 146v439q0 97 -35.5 146t-120.5 71h63q97 0 146 -13.5t84 -50.5q57 -60 57 -196v-439q0 -78 24.5 -114.5t106.5 -77.5q-82 -43 -106.5 -79t-24.5 -114v-487q0 -154 -76 -213 q-35 -27 -79.5 -37t-131.5 -10h-63z" />
<glyph unicode="~" horiz-adv-x="1366" d="M264 1270q121 211 279 211q56 0 176 -43q113 -39 162 -39q101 0 186 104l35 -22q-49 -95 -124.5 -152t-152.5 -57q-29 0 -60.5 8t-115.5 37q-71 24 -104.5 31.5t-71.5 7.5q-46 0 -79 -18.5t-77 -69.5q-9 -9 -18 -21z" />
<glyph unicode="&#xa1;" horiz-adv-x="581" d="M129 827q0 67 47.5 114.5t114.5 47.5t114.5 -47.5t47.5 -114.5q0 -68 -47.5 -114.5t-116.5 -46.5q-66 0 -113 47.5t-47 113.5zM145 -395l76 905h139l76 -905h-291z" />
<glyph unicode="&#xa2;" d="M145 678q0 220 127 363.5t324 146.5v170h68v-176q92 -17 161 -86l64 106h39v-379h-60q-37 272 -204 295v-858q77 12 130.5 81t63.5 171h84q-17 -137 -87.5 -220t-190.5 -108v-176h-68v170q-198 -3 -324.5 137t-126.5 363zM410 688q0 -215 42.5 -313t143.5 -115v858 q-101 -20 -143.5 -118t-42.5 -312z" />
<glyph unicode="&#xa3;" d="M53 0q55 74 77.5 157t53.5 320l21 182h-152v82h162l16 129q32 244 163.5 381.5t332.5 137.5q287 0 311 -334h-90q-14 131 -57 187t-131 56q-69 0 -127.5 -39t-93.5 -108q-42 -86 -64 -266l-18 -144h282v-82h-295l-16 -127q-40 -264 -186 -419q109 38 158 49.5t106 11.5 q52 0 149 -18q99 -15 129 -15q79 0 125.5 51t77.5 173h68q-6 -93 -21.5 -150t-46.5 -100q-44 -62 -107 -88.5t-167 -26.5h-660z" />
<glyph unicode="&#xa4;" horiz-adv-x="1366" d="M88 1176l102 102l201 -199q76 54 144.5 77.5t148.5 23.5t147 -23.5t142 -77.5l201 199l100 -102l-199 -199q55 -76 79 -143.5t24 -145.5t-23 -145t-76 -142l199 -198l-100 -105l-201 201q-134 -100 -291 -100q-147 0 -293 98l-200 -199l-101 103l197 200q-99 129 -99 287 q0 150 101 287zM360 688q0 -133 95 -228t229 -95t229 95t95 228t-94.5 229.5t-225.5 96.5q-138 0 -233 -94.5t-95 -231.5z" />
<glyph unicode="&#xa5;" d="M18 1296v76q155 -14 281 -14t281 14v-76q-73 -3 -102 -16.5t-29 -44.5q0 -17 22 -82l164 -448l172 434q29 82 29 100q0 30 -24.5 41t-100.5 16v76q135 -6 190 -6q59 0 191 6v-76q-84 -8 -122.5 -34t-64.5 -93l-108 -272h198v-78h-231l-59 -151h290v-78h-321v-377 q0 -92 29.5 -116t144.5 -27v-76q-192 14 -311 14t-308 -14v76q115 3 144.5 27t29.5 116v377h-323v78h293l-58 151h-235v78h207l-88 231q-40 100 -72.5 130.5t-108.5 37.5z" />
<glyph unicode="&#xa6;" horiz-adv-x="1024" d="M438 313h148v-655h-148v655zM438 664v702h148v-702h-148z" />
<glyph unicode="&#xa7;" d="M135 596q0 89 41 147t135 101q-74 54 -104.5 107t-30.5 126q0 137 105.5 224.5t269.5 87.5q109 0 197 -42.5t135 -117.5q53 -87 53 -217h-78q-11 132 -74 203t-172 71q-86 0 -143 -50.5t-57 -125.5q0 -54 27.5 -89t101.5 -75l239 -129q102 -56 147.5 -120.5t45.5 -153.5 t-41.5 -154t-132.5 -119q86 -53 125 -112t39 -138q0 -145 -113.5 -238t-290.5 -93q-191 0 -303.5 103.5t-116.5 283.5h86q13 -142 90 -219.5t203 -77.5q98 0 158.5 53t60.5 139q0 55 -27.5 93.5t-93.5 76.5l-292 166q-97 54 -143 124t-46 165zM264 664q0 -49 29.5 -86 t103.5 -80l338 -195q63 37 89 70.5t26 79.5q0 44 -28.5 79.5t-94.5 73.5l-346 197q-61 -23 -89 -56t-28 -83z" />
<glyph unicode="&#xa8;" horiz-adv-x="1024" d="M166 1270q0 61 40 103t97 42q56 0 95.5 -42.5t39.5 -102.5t-40 -103t-95 -43q-57 0 -97 43t-40 103zM588 1270q0 60 40 102.5t97 42.5q56 0 95.5 -42.5t39.5 -102.5t-40 -103t-97 -43q-55 0 -95 43t-40 103z" />
<glyph unicode="&#xa9;" horiz-adv-x="1593" d="M90 684q0 191 94.5 353.5t257.5 257t355 94.5q143 0 273.5 -56t225 -150.5t150 -225t55.5 -273.5q0 -146 -56 -277t-151.5 -225t-228 -149.5t-279.5 -55.5q-187 0 -347.5 95.5t-254.5 258.5t-94 353zM166 684q0 -169 84 -314.5t227.5 -231t310.5 -85.5q131 0 249 49.5 t203 133.5t135 201t50 247q0 127 -50 243.5t-134 201t-200.5 134.5t-243.5 50q-128 0 -245 -49.5t-201.5 -134t-134.5 -201t-50 -244.5zM424 682q0 198 103 314t280 116q72 0 123.5 -19.5t99.5 -64.5l41 84h35v-287h-49q-26 115 -81.5 169.5t-146.5 54.5q-114 0 -168.5 -85 t-54.5 -259q0 -181 56.5 -267t175.5 -86q103 0 163 57.5t68 161.5h51q-3 -146 -89.5 -231.5t-229.5 -85.5q-172 0 -274.5 116t-102.5 312z" />
<glyph unicode="&#xaa;" horiz-adv-x="737" d="M57 573v80h635v-80h-635zM72 928q0 91 85.5 147t264.5 82v80q0 60 -21 85.5t-69 25.5q-34 0 -59 -15t-25 -35q0 -10 2 -16q6 -34 6 -41q0 -34 -19.5 -53t-54.5 -19q-67 0 -67 66q0 69 69 116.5t170 47.5q147 0 209 -90q20 -27 27.5 -70t7.5 -123v-221q0 -49 8 -65.5 t31 -16.5q14 0 41 8v-49q-63 -14 -100 -14q-116 0 -134 102q-58 -104 -178 -104q-86 0 -140 48t-54 124zM248 950q0 -54 22 -84t62 -30q66 0 82 67q8 24 8 90v115q-94 -17 -134 -53.5t-40 -104.5z" />
<glyph unicode="&#xab;" horiz-adv-x="923" d="M84 489l299 478h68l-152 -478l152 -489h-68zM442 489l299 478h66l-150 -478l150 -489h-66z" />
<glyph unicode="&#xac;" horiz-adv-x="1024" d="M68 440v107h886v-547h-247v440h-639z" />
<glyph unicode="&#xad;" horiz-adv-x="544" d="M0 469v106h545v-106h-545z" />
<glyph unicode="&#xae;" horiz-adv-x="1593" d="M90 684q0 191 94.5 353.5t257.5 257t355 94.5q143 0 273.5 -56t225 -150.5t150 -225t55.5 -273.5q0 -146 -56 -277t-151.5 -225t-228 -149.5t-279.5 -55.5q-187 0 -347.5 95.5t-254.5 258.5t-94 353zM166 684q0 -169 84 -314.5t227.5 -231t310.5 -85.5q131 0 249 49.5 t203 133.5t135 201t50 247q0 127 -50 243.5t-134 201t-200.5 134.5t-243.5 50q-128 0 -245 -49.5t-201.5 -134t-134.5 -201t-50 -244.5zM424 268v56q74 3 90 15t16 64v553q0 53 -18 67t-88 15v54h379q136 0 203 -41q46 -29 74 -79.5t28 -105.5q0 -42 -18.5 -82.5 t-49.5 -68.5q-9 -9 -112 -51l-8 -5q39 -15 58.5 -36t47.5 -76l70 -144q25 -51 43 -64t63 -15v-54q-68 2 -110 2q-43 0 -109 -2q-24 38 -41 76l-90 197q-26 60 -49.5 78t-73.5 18h-27v-236q0 -52 16.5 -64t92.5 -15v-56q-113 11 -190 11q-76 0 -197 -11zM707 694h63 q83 0 122.5 41t39.5 129t-38 130t-116 42h-71v-342z" />
<glyph unicode="&#xaf;" horiz-adv-x="1024" d="M160 1180v125h704v-125h-704z" />
<glyph unicode="&#xb0;" horiz-adv-x="1024" d="M215 1110q0 118 87.5 203.5t209.5 85.5q125 0 212 -85t87 -206t-87 -207t-210 -86q-126 0 -212.5 86t-86.5 209zM332 1110q0 -76 53 -129t129 -53q74 0 127 52.5t53 125.5q0 75 -53.5 127.5t-128.5 52.5q-74 0 -127 -52t-53 -124z" />
<glyph unicode="&#xb1;" d="M94 6v166h918v-166h-918zM94 604v170h371v367h178v-367h369v-170h-369v-319h-178v319h-371z" />
<glyph unicode="&#xb2;" horiz-adv-x="720" d="M88 530v127q121 116 150.5 147t72.5 83q119 142 119 229q0 51 -35 83t-90 32q-60 0 -94 -32.5t-51 -104.5h-70q9 72 23 109.5t43 66.5q70 76 202 76q110 0 179 -57t69 -146q0 -85 -70.5 -176.5t-289.5 -290.5h387l-27 -146h-518z" />
<glyph unicode="&#xb3;" horiz-adv-x="720" d="M72 766h63q13 -70 52.5 -102.5t111.5 -32.5q78 0 123 39t45 106q0 75 -49.5 108.5t-161.5 33.5h-31v59h31q51 0 74 4t45 16q55 36 55 111q0 58 -33.5 93.5t-89.5 35.5q-58 0 -92 -30t-53 -97h-64q24 236 260 236q109 0 175.5 -56.5t66.5 -148.5q0 -131 -137 -183 q174 -43 174 -192q0 -106 -84 -176t-211 -70q-124 0 -193 63t-77 183z" />
<glyph unicode="&#xb4;" horiz-adv-x="1024" d="M422 1124l123 285h393l-426 -285h-90z" />
<glyph unicode="&#xb6;" d="M23 999q0 232 174 320q100 47 309 47h549v-76q-79 -1 -114 -12t-47.5 -39t-12.5 -92v-1221q0 -92 29.5 -116t144.5 -29v-74q-252 14 -434 14q-181 0 -433 -14v74q62 2 93 7t51 22t25 42t5 74v686q-166 26 -252.5 125t-86.5 262zM537 -55q0 -88 16 -115t70 -27t69 26.5 t15 117.5v1194q0 92 -14.5 117.5t-67.5 25.5q-56 0 -72 -25.5t-16 -113.5v-1200z" />
<glyph unicode="&#xb7;" horiz-adv-x="536" d="M109 500q0 68 47 115t116 47q64 0 111 -47.5t47 -112.5q0 -67 -47 -114.5t-113 -47.5q-67 0 -114 47t-47 113z" />
<glyph unicode="&#xb8;" horiz-adv-x="1024" d="M354 -299q68 -18 113 -18q37 0 59.5 21t22.5 56q0 38 -31.5 59t-89.5 21h-18l94 160h94l-63 -106q91 -1 133.5 -35t42.5 -103q0 -72 -51 -115.5t-136 -43.5q-77 0 -170 34v70z" />
<glyph unicode="&#xb9;" horiz-adv-x="720" d="M145 1182v51q91 6 161.5 41t101.5 90h51v-700q0 -52 17.5 -65t88.5 -15v-56q-113 11 -192 11t-195 -11v56q71 2 90 15t19 65v518h-142z" />
<glyph unicode="&#xba;" horiz-adv-x="737" d="M51 573v80h635v-80h-635zM76 1075q0 138 86 231t213 93q126 0 206.5 -91t80.5 -233q0 -134 -85 -226.5t-208 -92.5q-126 0 -209.5 90.5t-83.5 228.5zM256 1075q0 -141 27 -206.5t86 -65.5t85.5 63t26.5 201q0 150 -25.5 217.5t-82.5 67.5q-117 0 -117 -277z" />
<glyph unicode="&#xbb;" horiz-adv-x="923" d="M115 0l151 489l-151 478h65l301 -478l-301 -489h-65zM473 0l152 489l-152 478h66l299 -478l-299 -489h-66z" />
<glyph unicode="&#xbc;" horiz-adv-x="1574" d="M145 1182v51q91 6 161.5 41t101.5 90h51v-700q0 -52 17.5 -65t88.5 -15v-56q-113 11 -192 11t-195 -11v56q71 2 90 15t19 65v518h-142zM348 0l774 1331h105l-772 -1331h-107zM893 190l317 635h189v-514h139v-121h-139v-198h-174v198h-332zM1026 311h205v420z" />
<glyph unicode="&#xbd;" horiz-adv-x="1574" d="M145 1182v51q91 6 161.5 41t101.5 90h51v-700q0 -52 17.5 -65t88.5 -15v-56q-113 11 -192 11t-195 -11v56q71 2 90 15t19 65v518h-142zM348 0l774 1331h105l-772 -1331h-107zM942 0v127q125 120 153.5 149t69.5 80q119 145 119 230q0 51 -34.5 82.5t-90.5 31.5 q-60 0 -94 -32.5t-51 -104.5h-70q9 72 23 109.5t43 66.5q70 76 202 76q110 0 179 -56t69 -147q0 -84 -70.5 -175.5t-289.5 -291.5h387l-27 -145h-518z" />
<glyph unicode="&#xbe;" horiz-adv-x="1574" d="M72 766h63q13 -70 52.5 -102.5t111.5 -32.5q78 0 123 39t45 106q0 75 -49.5 108.5t-161.5 33.5h-31v59h31q51 0 74 4t45 16q55 36 55 111q0 58 -33.5 93.5t-89.5 35.5q-58 0 -92 -30t-53 -97h-64q24 236 260 236q109 0 175.5 -56.5t66.5 -148.5q0 -131 -137 -183 q174 -43 174 -192q0 -106 -84 -176t-211 -70q-124 0 -193 63t-77 183zM348 0l774 1331h107l-774 -1331h-107zM893 190l317 635h189v-514h141v-121h-141v-198h-174v198h-332zM1026 311h205v420z" />
<glyph unicode="&#xbf;" horiz-adv-x="874" d="M57 -92q0 128 97 233q21 21 32 31t40.5 31.5t92.5 64.5q142 91 142 248h90q2 -39 2 -80q0 -100 -28.5 -163.5t-121.5 -168.5q-55 -64 -75.5 -106t-20.5 -92q0 -72 47.5 -116t126.5 -44q120 0 185 90q35 49 45 141h82q-1 -98 -20.5 -160.5t-63.5 -113.5 q-112 -121 -308 -121q-157 0 -250.5 88.5t-93.5 237.5zM326 827q0 68 47 115t114 47q66 0 114 -47.5t48 -114.5q0 -68 -47.5 -114.5t-116.5 -46.5q-66 0 -112.5 47.5t-46.5 113.5z" />
<glyph unicode="&#xc0;" horiz-adv-x="1390" d="M20 -6v76q101 3 143.5 39t96.5 165l455 1145l448 -1206q32 -85 71 -111.5t136 -31.5v-76q-172 14 -309 14t-309 -14v76q77 2 102 8q45 6 45 47q0 17 -16 76l-52 168h-448l-55 -146q-23 -62 -23 -90q0 -35 27.5 -47.5t116.5 -15.5v-76q-141 8 -213 8q-75 0 -216 -8z M223 1747h426l178 -266h-100zM416 453h389l-178 536z" />
<glyph unicode="&#xc1;" horiz-adv-x="1390" d="M20 -6v76q101 3 143.5 39t96.5 165l455 1145l448 -1206q32 -85 71 -111.5t136 -31.5v-76q-172 14 -309 14t-309 -14v76q77 2 102 8q45 6 45 47q0 17 -16 76l-52 168h-448l-55 -146q-23 -62 -23 -90q0 -35 27.5 -47.5t116.5 -15.5v-76q-141 8 -213 8q-75 0 -216 -8z M416 453h389l-178 536zM623 1481l180 266h424l-502 -266h-102z" />
<glyph unicode="&#xc2;" horiz-adv-x="1390" d="M20 -6v76q101 3 143.5 39t96.5 165l455 1145l448 -1206q32 -85 71 -111.5t136 -31.5v-76q-172 14 -309 14t-309 -14v76q77 2 102 8q45 6 45 47q0 17 -16 76l-52 168h-448l-55 -146q-23 -62 -23 -90q0 -35 27.5 -47.5t116.5 -15.5v-76q-141 8 -213 8q-75 0 -216 -8z M338 1456l379 324l379 -324h-97l-282 127l-283 -127h-96zM416 453h389l-178 536z" />
<glyph unicode="&#xc3;" horiz-adv-x="1390" d="M20 -6v76q101 3 143.5 39t96.5 165l455 1145l448 -1206q32 -85 71 -111.5t136 -31.5v-76q-172 14 -309 14t-309 -14v76q77 2 102 8q45 6 45 47q0 17 -16 76l-52 168h-448l-55 -146q-23 -62 -23 -90q0 -35 27.5 -47.5t116.5 -15.5v-76q-141 8 -213 8q-75 0 -216 -8z M367 1516q51 127 97.5 174t121.5 47q64 0 155 -47q60 -31 86.5 -40.5t51.5 -9.5q41 0 69 20.5t66 80.5l65 -15q-40 -127 -93.5 -182t-135.5 -55q-38 0 -68.5 10.5t-122.5 56.5q-61 31 -102 31q-72 0 -125 -90zM416 453h389l-178 536z" />
<glyph unicode="&#xc4;" horiz-adv-x="1390" d="M20 -6v76q101 3 143.5 39t96.5 165l455 1145l448 -1206q32 -85 71 -111.5t136 -31.5v-76q-172 14 -309 14t-309 -14v76q77 2 102 8q45 6 45 47q0 17 -16 76l-52 168h-448l-55 -146q-23 -62 -23 -90q0 -35 27.5 -47.5t116.5 -15.5v-76q-141 8 -213 8q-75 0 -216 -8z M381 1614q0 62 42.5 104.5t104.5 42.5q60 0 103 -42.5t43 -102.5q0 -61 -43 -104.5t-103 -43.5q-61 0 -104 43t-43 103zM416 453h389l-178 536zM760 1614q0 62 43 104.5t104 42.5q60 0 103 -42.5t43 -102.5q0 -61 -43 -104.5t-103 -43.5q-61 0 -104 43t-43 103z" />
<glyph unicode="&#xc5;" horiz-adv-x="1390" d="M20 -6v76q101 3 143.5 39t96.5 165l455 1145l448 -1206q32 -85 71 -111.5t136 -31.5v-76q-172 14 -309 14t-309 -14v76q77 2 102 8q45 6 45 47q0 17 -16 76l-52 168h-448l-55 -146q-23 -62 -23 -90q0 -35 27.5 -47.5t116.5 -15.5v-76q-141 8 -213 8q-75 0 -216 -8z M416 453h389l-178 536zM532 1628q0 77 54.5 130.5t132.5 53.5q74 0 127 -53.5t53 -128.5q0 -76 -53.5 -130t-128.5 -54q-76 0 -130.5 53.5t-54.5 128.5zM621 1628q0 -38 28 -66t68 -28q38 0 66 28t28 68q0 38 -28 66t-66 28q-40 0 -68 -27.5t-28 -68.5z" />
<glyph unicode="&#xc6;" horiz-adv-x="1916" d="M20 -6v76q86 3 131 36t105 138l643 1122h856l57 -360h-65q-38 167 -94.5 224.5t-182.5 57.5h-249v-540h229q69 0 92.5 31.5t30.5 138.5h76v-418h-76q-4 105 -27.5 137.5t-93.5 32.5h-231v-486q0 -66 22.5 -86t95.5 -20h107q92 0 146.5 29t101.5 104q48 72 75 168h66 l-66 -379h-993v76q114 3 144 27.5t30 115.5v211h-495l-127 -225q-27 -52 -27 -80q0 -31 25 -41.5t104 -13.5v-76q-138 6 -205 6t-205 -6zM502 514h448v789z" />
<glyph unicode="&#xc7;" horiz-adv-x="1312" d="M111 664q0 344 156 539.5t431 195.5q115 0 197.5 -34.5t161.5 -115.5l67 150h45v-469h-65q-31 138 -80 217q-45 74 -121.5 118t-163.5 44q-198 0 -276 -187q-72 -170 -72 -424q0 -293 89.5 -437t271.5 -144q161 0 260.5 99t111.5 271h70q0 -217 -129 -362t-338 -158 l-45 -76q92 -2 136 -36.5t44 -106.5q0 -74 -53 -119t-139 -45q-69 0 -174 37v72q74 -21 116 -21q37 0 60.5 22.5t23.5 57.5q0 40 -31.5 62t-91.5 22h-22l80 133q-241 26 -380.5 212.5t-139.5 482.5z" />
<glyph unicode="&#xc8;" horiz-adv-x="1193" d="M53 0v76q114 3 144 27.5t30 115.5v928q0 64 -12.5 92t-47.5 39t-114 12v76h977l57 -360h-65q-37 165 -94.5 223.5t-182.5 58.5h-247v-540h229q69 0 90.5 30.5t30.5 139.5h76v-418h-76q-5 105 -28 137.5t-93 32.5h-229v-486q0 -65 23 -85.5t95 -20.5h107q91 0 143.5 28.5 t102.5 104.5q46 70 75 168h66l-66 -379h-991zM180 1747h426l178 -266h-100z" />
<glyph unicode="&#xc9;" horiz-adv-x="1193" d="M53 0v76q114 3 144 27.5t30 115.5v928q0 64 -12.5 92t-47.5 39t-114 12v76h977l57 -360h-65q-37 165 -94.5 223.5t-182.5 58.5h-247v-540h229q69 0 90.5 30.5t30.5 139.5h76v-418h-76q-5 105 -28 137.5t-93 32.5h-229v-486q0 -65 23 -85.5t95 -20.5h107q91 0 143.5 28.5 t102.5 104.5q46 70 75 168h66l-66 -379h-991zM446 1481l181 266h424l-502 -266h-103z" />
<glyph unicode="&#xca;" horiz-adv-x="1193" d="M53 0v76q114 3 144 27.5t30 115.5v928q0 64 -12.5 92t-47.5 39t-114 12v76h977l57 -360h-65q-37 165 -94.5 223.5t-182.5 58.5h-247v-540h229q69 0 90.5 30.5t30.5 139.5h76v-418h-76q-5 105 -28 137.5t-93 32.5h-229v-486q0 -65 23 -85.5t95 -20.5h107q91 0 143.5 28.5 t102.5 104.5q46 70 75 168h66l-66 -379h-991zM203 1456l379 324l379 -324h-97l-282 127l-283 -127h-96z" />
<glyph unicode="&#xcb;" horiz-adv-x="1193" d="M53 0v76q114 3 144 27.5t30 115.5v928q0 64 -12.5 92t-47.5 39t-114 12v76h977l57 -360h-65q-37 165 -94.5 223.5t-182.5 58.5h-247v-540h229q69 0 90.5 30.5t30.5 139.5h76v-418h-76q-5 105 -28 137.5t-93 32.5h-229v-486q0 -65 23 -85.5t95 -20.5h107q91 0 143.5 28.5 t102.5 104.5q46 70 75 168h66l-66 -379h-991zM246 1614q0 62 43 104.5t104 42.5q60 0 103 -42.5t43 -102.5q0 -61 -43 -104.5t-103 -43.5q-61 0 -104 43t-43 103zM625 1614q0 62 42.5 104.5t104.5 42.5q60 0 103 -42.5t43 -102.5q0 -61 -43 -104.5t-103 -43.5q-61 0 -104 43 t-43 103z" />
<glyph unicode="&#xcc;" horiz-adv-x="722" d="M-68 1747h398l159 -266h-102zM51 -6v76q114 3 144 27.5t30 115.5v940q0 64 -12.5 92t-47.5 39t-114 12v76q192 -14 309 -14q118 0 310 14v-76q-79 -1 -114 -12t-47.5 -39t-12.5 -92v-940q0 -92 29.5 -116t144.5 -27v-76q-189 14 -310 14q-120 0 -309 -14z" />
<glyph unicode="&#xcd;" horiz-adv-x="722" d="M53 -6v76q114 3 144 27.5t30 115.5v940q0 64 -12.5 92t-47.5 39t-114 12v76q192 -14 309 -14q118 0 310 14v-76q-79 -1 -114 -12t-47.5 -39t-12.5 -92v-940q0 -92 29.5 -116t144.5 -27v-76q-189 14 -310 14q-120 0 -309 -14zM248 1481l158 266h399l-455 -266h-102z" />
<glyph unicode="&#xce;" horiz-adv-x="722" d="M10 1456l352 324l351 -324h-97l-254 127l-256 -127h-96zM53 -6v76q114 3 144 27.5t30 115.5v940q0 64 -12.5 92t-47.5 39t-114 12v76q192 -14 309 -14q118 0 310 14v-76q-79 -1 -114 -12t-47.5 -39t-12.5 -92v-940q0 -92 29.5 -116t144.5 -27v-76q-189 14 -310 14 q-120 0 -309 -14z" />
<glyph unicode="&#xcf;" horiz-adv-x="722" d="M43 1614q0 59 40.5 99t100.5 40q57 0 97.5 -41t40.5 -98q0 -58 -40.5 -98.5t-99.5 -40.5q-57 0 -98 41t-41 98zM51 -6v76q114 3 144 27.5t30 115.5v940q0 64 -12.5 92t-47.5 39t-114 12v76q192 -14 309 -14q118 0 310 14v-76q-79 -1 -114 -12t-47.5 -39t-12.5 -92v-940 q0 -92 29.5 -116t144.5 -27v-76q-189 14 -310 14q-120 0 -309 -14zM399 1614q0 59 41 99t101 40q57 0 97 -41t40 -98q0 -58 -40 -98.5t-99 -40.5q-57 0 -98.5 41t-41.5 98z" />
<glyph unicode="&#xd0;" horiz-adv-x="1347" d="M53 0v76q114 3 144 27.5t30 115.5v457h-174v80h174v391q0 64 -12.5 92t-47.5 39t-114 12v76h582q143 0 244 -34.5t180 -110.5q98 -94 152.5 -234.5t54.5 -298.5q0 -164 -60 -311.5t-162 -235.5q-86 -73 -200 -107t-275 -34h-516zM498 168q0 -56 20 -73t86 -17 q208 0 287 112q104 146 104 512q0 308 -89 447t-285 139h-123v-532h252v-80h-252v-508z" />
<glyph unicode="&#xd1;" horiz-adv-x="1417" d="M51 1296v76q129 -6 199 -6t196 6l670 -891v672q0 64 -12.5 92t-47.5 39t-114 12v76q138 -6 213 -6q78 0 213 6v-76q-79 -1 -114 -12t-47.5 -39t-12.5 -92v-1188h-47q-44 78 -109 170q-104 146 -133 182l-600 809v-913q0 -92 29.5 -116t144.5 -27v-76q-141 6 -213 6 q-75 0 -213 -6v76q116 3 145 27t29 116v1006q-48 43 -84.5 59.5t-91.5 17.5zM367 1516q51 127 97.5 174t121.5 47q64 0 155 -47q60 -31 86.5 -40.5t51.5 -9.5q41 0 69 20.5t66 80.5l65 -15q-40 -127 -93.5 -182t-135.5 -55q-38 0 -68.5 10.5t-122.5 56.5q-61 31 -102 31 q-72 0 -125 -90z" />
<glyph unicode="&#xd2;" horiz-adv-x="1368" d="M82 680q0 329 162.5 524t437.5 195q139 0 257 -54.5t200 -154.5q145 -187 145 -514q0 -324 -163.5 -516.5t-440.5 -192.5q-276 0 -437 192t-161 521zM242 1747h426l178 -266h-101zM362 696q0 -255 54 -436q31 -107 101 -167t165 -60q163 0 242.5 162.5t79.5 492.5 t-76 487.5t-236 157.5t-245 -164t-85 -473z" />
<glyph unicode="&#xd3;" horiz-adv-x="1368" d="M82 680q0 329 162.5 524t437.5 195q139 0 257 -54.5t200 -154.5q145 -187 145 -514q0 -324 -163.5 -516.5t-440.5 -192.5q-276 0 -437 192t-161 521zM362 696q0 -255 54 -436q31 -107 101 -167t165 -60q163 0 242.5 162.5t79.5 492.5t-76 487.5t-236 157.5t-245 -164 t-85 -473zM563 1481l180 266h424l-501 -266h-103z" />
<glyph unicode="&#xd4;" horiz-adv-x="1368" d="M82 680q0 329 162.5 524t437.5 195q139 0 257 -54.5t200 -154.5q145 -187 145 -514q0 -324 -163.5 -516.5t-440.5 -192.5q-276 0 -437 192t-161 521zM305 1456l379 324l379 -324h-96l-283 127l-283 -127h-96zM362 696q0 -255 54 -436q31 -107 101 -167t165 -60 q163 0 242.5 162.5t79.5 492.5t-76 487.5t-236 157.5t-245 -164t-85 -473z" />
<glyph unicode="&#xd5;" horiz-adv-x="1368" d="M82 680q0 329 162.5 524t437.5 195q139 0 257 -54.5t200 -154.5q145 -187 145 -514q0 -324 -163.5 -516.5t-440.5 -192.5q-276 0 -437 192t-161 521zM340 1516q51 127 97.5 174t121.5 47q65 0 156 -47q60 -31 86 -40.5t51 -9.5q41 0 69 20.5t66 80.5l66 -15 q-39 -127 -93.5 -182t-136.5 -55q-38 0 -67.5 10.5t-122.5 56.5q-61 31 -103 31q-38 0 -67 -21t-57 -69zM362 696q0 -255 54 -436q31 -107 101 -167t165 -60q163 0 242.5 162.5t79.5 492.5t-76 487.5t-236 157.5t-245 -164t-85 -473z" />
<glyph unicode="&#xd6;" horiz-adv-x="1368" d="M82 680q0 329 162.5 524t437.5 195q139 0 257 -54.5t200 -154.5q145 -187 145 -514q0 -324 -163.5 -516.5t-440.5 -192.5q-276 0 -437 192t-161 521zM348 1614q0 61 43 104t105 43q60 0 102.5 -42.5t42.5 -102.5q0 -61 -42.5 -104.5t-102.5 -43.5q-61 0 -104.5 43 t-43.5 103zM362 696q0 -255 54 -436q31 -107 101 -167t165 -60q163 0 242.5 162.5t79.5 492.5t-76 487.5t-236 157.5t-245 -164t-85 -473zM727 1614q0 62 42.5 104.5t104.5 42.5q60 0 103 -42.5t43 -102.5q0 -61 -43 -104.5t-103 -43.5q-61 0 -104 43t-43 103z" />
<glyph unicode="&#xd7;" d="M131 987l125 125l301 -301l297 295l119 -117l-297 -297l301 -303l-123 -123l-303 301l-297 -297l-117 119l295 297z" />
<glyph unicode="&#xd8;" horiz-adv-x="1368" d="M57 0l162 188q-137 198 -137 490q0 330 162.5 525.5t437.5 195.5q246 0 416 -164l112 131h103l-164 -190q135 -189 135 -490q0 -332 -162 -525.5t-440 -193.5q-251 0 -416 162l-110 -129h-99zM354 682q0 -139 27 -311l586 719q-34 120 -103.5 181.5t-169.5 61.5 q-166 0 -253 -166.5t-87 -484.5zM401 281q70 -248 279 -248q169 0 250.5 164.5t81.5 504.5q0 147 -23 295z" />
<glyph unicode="&#xd9;" horiz-adv-x="1417" d="M43 1296v76q192 -14 309 -14q118 0 310 14v-76q-114 -1 -144.5 -26.5t-30.5 -116.5v-737q0 -163 72 -241.5t223 -78.5q99 0 178 39t117 107q45 80 45 264v647q0 64 -12.5 92t-47.5 39t-114 12v76q138 -6 213 -6q79 0 211 6v-76q-112 -1 -142 -26.5t-30 -116.5v-666 q0 -119 -19 -193t-67 -140q-132 -177 -405 -177q-123 0 -223.5 40.5t-166.5 115.5q-55 61 -78.5 138.5t-23.5 195.5v686q0 64 -12.5 92t-47.5 39t-114 12zM297 1747h426l178 -266h-100z" />
<glyph unicode="&#xda;" horiz-adv-x="1417" d="M43 1296v76q192 -14 309 -14q118 0 310 14v-76q-114 -1 -144.5 -26.5t-30.5 -116.5v-737q0 -163 72 -241.5t223 -78.5q99 0 178 39t117 107q45 80 45 264v647q0 64 -12.5 92t-47.5 39t-114 12v76q138 -6 213 -6q79 0 211 6v-76q-112 -1 -142 -26.5t-30 -116.5v-666 q0 -119 -19 -193t-67 -140q-132 -177 -405 -177q-123 0 -223.5 40.5t-166.5 115.5q-55 61 -78.5 138.5t-23.5 195.5v686q0 64 -12.5 92t-47.5 39t-114 12zM637 1481l180 266h424l-502 -266h-102z" />
<glyph unicode="&#xdb;" horiz-adv-x="1417" d="M43 1296v76q192 -14 309 -14q118 0 310 14v-76q-114 -1 -144.5 -26.5t-30.5 -116.5v-737q0 -163 72 -241.5t223 -78.5q99 0 178 39t117 107q45 80 45 264v647q0 64 -12.5 92t-47.5 39t-114 12v76q138 -6 213 -6q79 0 211 6v-76q-112 -1 -142 -26.5t-30 -116.5v-666 q0 -119 -19 -193t-67 -140q-132 -177 -405 -177q-123 0 -223.5 40.5t-166.5 115.5q-55 61 -78.5 138.5t-23.5 195.5v686q0 64 -12.5 92t-47.5 39t-114 12zM389 1456l379 324l379 -324h-96l-283 127l-283 -127h-96z" />
<glyph unicode="&#xdc;" horiz-adv-x="1417" d="M43 1296v76q192 -14 309 -14q118 0 310 14v-76q-114 -1 -144.5 -26.5t-30.5 -116.5v-737q0 -163 72 -241.5t223 -78.5q99 0 178 39t117 107q45 80 45 264v647q0 64 -12.5 92t-47.5 39t-114 12v76q138 -6 213 -6q79 0 211 6v-76q-112 -1 -142 -26.5t-30 -116.5v-666 q0 -119 -19 -193t-67 -140q-132 -177 -405 -177q-123 0 -223.5 40.5t-166.5 115.5q-55 61 -78.5 138.5t-23.5 195.5v686q0 64 -12.5 92t-47.5 39t-114 12zM432 1614q0 61 43 104t105 43q60 0 102.5 -42.5t42.5 -102.5q0 -61 -42.5 -104.5t-102.5 -43.5q-61 0 -104.5 43 t-43.5 103zM811 1614q0 62 42.5 104.5t104.5 42.5q60 0 103 -42.5t43 -102.5q0 -61 -43 -104.5t-103 -43.5q-61 0 -104 43t-43 103z" />
<glyph unicode="&#xdd;" horiz-adv-x="1280" d="M31 1296v76q164 -14 299 -14q133 0 297 14v-76q-79 -3 -107 -16t-28 -45q0 -25 28 -82l225 -451l218 437q34 64 34 100q0 31 -26 42.5t-101 14.5v76q132 -6 195 -6t195 6v-76q-82 -8 -119 -32.5t-72 -94.5l-293 -581v-375q0 -92 29.5 -116t144.5 -27v-76q-192 14 -309 14 t-309 -14v76q115 3 144.5 27t29.5 116v375l-268 538q-46 95 -88 129.5t-119 40.5zM557 1481l180 266h424l-502 -266h-102z" />
<glyph unicode="&#xde;" horiz-adv-x="1206" d="M53 -6v76q114 3 144 27.5t30 115.5v940q0 64 -12.5 92t-47.5 39t-114 12v76q192 -14 309 -14q118 0 310 14v-76q-79 -1 -114 -12t-47.5 -39t-12.5 -92v-33h155q118 0 191 -15t133 -52q78 -50 125 -137t47 -185q0 -95 -44.5 -180.5t-119.5 -138.5q-110 -76 -301 -76h-186 v-123q0 -92 29.5 -116t144.5 -27v-76q-189 14 -310 14q-120 0 -309 -14zM498 414h88q149 0 221 76.5t72 234.5q0 163 -69.5 240t-215.5 77h-96v-628z" />
<glyph unicode="&#xdf;" horiz-adv-x="1110" d="M37 -6v57q57 2 82 5.5t42 18t20 35t3 66.5v787q0 180 66 268q51 68 137.5 107.5t183.5 39.5q164 0 271.5 -96t107.5 -242q0 -98 -51.5 -167t-165.5 -121q68 -20 108.5 -41t76.5 -54q58 -54 91 -135t33 -172q0 -161 -95.5 -267t-241.5 -106q-81 0 -160 46v67 q50 -22 86 -22q85 0 123.5 65.5t38.5 210.5q0 210 -99 293q-32 27 -71.5 40t-112.5 21v82q120 10 165.5 71.5t45.5 209.5q0 131 -35 190.5t-111 59.5q-70 0 -101.5 -43t-31.5 -140v-1132q-117 6 -178 6q-94 0 -227 -8z" />
<glyph unicode="&#xe0;" horiz-adv-x="1019" d="M57 244q0 282 547 358v137q0 99 -35 143t-114 44q-57 0 -98.5 -26.5t-41.5 -61.5q0 -19 2 -29q9 -44 9 -61q0 -52 -28 -80.5t-79 -28.5q-96 0 -96 96q0 106 106.5 180t259.5 74q109 0 193 -37t127 -104q29 -43 41 -111t12 -192v-355q0 -83 14.5 -111t57.5 -28q21 0 55 10 v-59q-87 -22 -149 -22q-95 0 -144 43.5t-61 140.5q-49 -98 -117 -142.5t-166 -44.5q-132 0 -213.5 73.5t-81.5 193.5zM135 1409h393l123 -285h-90zM315 279q0 -89 37 -140t103 -51q51 0 87 30t50 83q12 53 12 147v195q-160 -31 -224.5 -89t-64.5 -175z" />
<glyph unicode="&#xe1;" horiz-adv-x="1019" d="M57 244q0 282 547 358v137q0 99 -35 143t-114 44q-57 0 -98.5 -26.5t-41.5 -61.5q0 -19 2 -29q9 -44 9 -61q0 -52 -28 -80.5t-79 -28.5q-96 0 -96 96q0 106 106.5 180t259.5 74q109 0 193 -37t127 -104q29 -43 41 -111t12 -192v-355q0 -83 14.5 -111t57.5 -28q21 0 55 10 v-59q-87 -22 -149 -22q-95 0 -144 43.5t-61 140.5q-49 -98 -117 -142.5t-166 -44.5q-132 0 -213.5 73.5t-81.5 193.5zM315 279q0 -89 37 -140t103 -51q51 0 87 30t50 83q12 53 12 147v195q-160 -31 -224.5 -89t-64.5 -175zM379 1124l123 285h393l-426 -285h-90z" />
<glyph unicode="&#xe2;" horiz-adv-x="1019" d="M57 244q0 282 547 358v137q0 99 -35 143t-114 44q-57 0 -98.5 -26.5t-41.5 -61.5q0 -19 2 -29q9 -44 9 -61q0 -52 -28 -80.5t-79 -28.5q-96 0 -96 96q0 106 106.5 180t259.5 74q109 0 193 -37t127 -104q29 -43 41 -111t12 -192v-355q0 -83 14.5 -111t57.5 -28q21 0 55 10 v-59q-87 -22 -149 -22q-95 0 -144 43.5t-61 140.5q-49 -98 -117 -142.5t-166 -44.5q-132 0 -213.5 73.5t-81.5 193.5zM158 1100l346 342l344 -342h-96l-248 147l-250 -147h-96zM315 279q0 -89 37 -140t103 -51q51 0 87 30t50 83q12 53 12 147v195q-160 -31 -224.5 -89 t-64.5 -175z" />
<glyph unicode="&#xe3;" horiz-adv-x="1019" d="M57 244q0 282 547 358v137q0 99 -35 143t-114 44q-57 0 -98.5 -26.5t-41.5 -61.5q0 -19 2 -29q9 -44 9 -61q0 -52 -28 -80.5t-79 -28.5q-96 0 -96 96q0 106 106.5 180t259.5 74q109 0 193 -37t127 -104q29 -43 41 -111t12 -192v-355q0 -83 14.5 -111t57.5 -28q21 0 55 10 v-59q-87 -22 -149 -22q-95 0 -144 43.5t-61 140.5q-49 -98 -117 -142.5t-166 -44.5q-132 0 -213.5 73.5t-81.5 193.5zM162 1163q27 69 41.5 98t34.5 52q59 71 141 71q65 0 156 -47q60 -31 85.5 -40t51.5 -9q41 0 67 19.5t66 81.5l65 -17q-40 -125 -93.5 -180t-135.5 -55 q-38 0 -66.5 10t-121.5 57q-61 31 -103 31q-69 0 -125 -90zM315 279q0 -89 37 -140t103 -51q51 0 87 30t50 83q12 53 12 147v195q-160 -31 -224.5 -89t-64.5 -175z" />
<glyph unicode="&#xe4;" horiz-adv-x="1019" d="M57 244q0 282 547 358v137q0 99 -35 143t-114 44q-57 0 -98.5 -26.5t-41.5 -61.5q0 -19 2 -29q9 -44 9 -61q0 -52 -28 -80.5t-79 -28.5q-96 0 -96 96q0 106 106.5 180t259.5 74q109 0 193 -37t127 -104q29 -43 41 -111t12 -192v-355q0 -83 14.5 -111t57.5 -28q21 0 55 10 v-59q-87 -22 -149 -22q-95 0 -144 43.5t-61 140.5q-49 -98 -117 -142.5t-166 -44.5q-132 0 -213.5 73.5t-81.5 193.5zM156 1270q0 61 40 103t97 42q56 0 95.5 -42.5t39.5 -102.5t-40 -103t-95 -43q-57 0 -97 43t-40 103zM315 279q0 -89 37 -140t103 -51q51 0 87 30t50 83 q12 53 12 147v195q-160 -31 -224.5 -89t-64.5 -175zM578 1270q0 60 40 102.5t97 42.5q56 0 95.5 -42.5t39.5 -102.5t-40 -103t-97 -43q-55 0 -95 43t-40 103z" />
<glyph unicode="&#xe5;" horiz-adv-x="1019" d="M57 244q0 282 547 358v137q0 99 -35 143t-114 44q-57 0 -98.5 -26.5t-41.5 -61.5q0 -19 2 -29q9 -44 9 -61q0 -52 -28 -80.5t-79 -28.5q-96 0 -96 96q0 106 106.5 180t259.5 74q109 0 193 -37t127 -104q29 -43 41 -111t12 -192v-355q0 -83 14.5 -111t57.5 -28q21 0 55 10 v-59q-87 -22 -149 -22q-95 0 -144 43.5t-61 140.5q-49 -98 -117 -142.5t-166 -44.5q-132 0 -213.5 73.5t-81.5 193.5zM315 279q0 -89 37 -140t103 -51q51 0 87 30t50 83q12 53 12 147v195q-160 -31 -224.5 -89t-64.5 -175zM319 1282q0 78 54.5 131t132.5 53q74 0 127 -53.5 t53 -128.5q0 -76 -53.5 -130t-128.5 -54q-76 0 -130.5 53.5t-54.5 128.5zM408 1282q0 -38 28 -66t68 -28q38 0 66 28t28 68q0 38 -28 66t-66 28q-40 0 -68 -27.5t-28 -68.5z" />
<glyph unicode="&#xe6;" horiz-adv-x="1544" d="M55 240q0 152 139.5 238.5t407.5 99.5v161q0 100 -35 143.5t-114 43.5q-57 0 -99.5 -26.5t-42.5 -61.5q0 -7 4 -31q9 -49 9 -59q0 -51 -28 -79t-79 -28q-96 0 -96 94q0 106 106.5 180t261.5 74q177 0 281 -96q125 96 287 96q131 0 229 -64.5t144 -179.5q42 -103 47 -258 h-611q5 -186 31 -266q26 -83 82 -122.5t147 -39.5q104 0 174 64.5t93 181.5h84q-29 -158 -135 -243t-273 -85q-283 0 -410 236q-32 -120 -106.5 -178t-198.5 -58q-133 0 -216 73t-83 190zM313 276q0 -87 37.5 -137.5t102.5 -50.5q51 0 87 30t50 83q12 47 12 145v141 q-161 -6 -225 -53t-64 -158zM868 578h340q-4 187 -42.5 271.5t-118.5 84.5q-164 0 -179 -356z" />
<glyph unicode="&#xe7;" horiz-adv-x="952" d="M80 477q0 229 125.5 374.5t322.5 145.5q75 0 130.5 -21.5t107.5 -72.5l63 109h41v-383h-61q-15 103 -45 166q-29 63 -80.5 99t-114.5 36q-223 0 -223 -451q0 -426 219 -426q94 0 155.5 68t78.5 190h86q-19 -152 -106 -239.5t-230 -98.5l-47 -79q91 -1 133.5 -35 t42.5 -105t-51.5 -114t-137.5 -43q-77 0 -170 34v70q77 -18 115 -18q37 0 59.5 21t22.5 56q0 38 -31.5 59t-91.5 21h-18l80 135q-175 29 -275 163t-100 339z" />
<glyph unicode="&#xe8;" horiz-adv-x="983" d="M66 483q0 230 121 371t319 141q129 0 225.5 -64t140.5 -181q37 -101 43 -267h-583q0 -174 26 -262q51 -166 222 -166q102 0 169 65t87 185h79q-28 -160 -130 -246t-265 -86q-205 0 -329.5 140t-124.5 370zM131 1409h393l123 -285h-90zM332 557h321q-4 203 -40 293 t-111 90q-82 0 -123 -92.5t-47 -290.5z" />
<glyph unicode="&#xe9;" horiz-adv-x="983" d="M66 483q0 230 121 371t319 141q129 0 225.5 -64t140.5 -181q37 -101 43 -267h-583q0 -174 26 -262q51 -166 222 -166q102 0 169 65t87 185h79q-28 -160 -130 -246t-265 -86q-205 0 -329.5 140t-124.5 370zM332 557h321q-4 203 -40 293t-111 90q-82 0 -123 -92.5 t-47 -290.5zM387 1124l123 285h393l-426 -285h-90z" />
<glyph unicode="&#xea;" horiz-adv-x="983" d="M66 483q0 230 121 371t319 141q129 0 225.5 -64t140.5 -181q37 -101 43 -267h-583q0 -174 26 -262q51 -166 222 -166q102 0 169 65t87 185h79q-28 -160 -130 -246t-265 -86q-205 0 -329.5 140t-124.5 370zM160 1100l346 342l344 -342h-96l-248 147l-250 -147h-96z M332 557h321q-4 203 -40 293t-111 90q-82 0 -123 -92.5t-47 -290.5z" />
<glyph unicode="&#xeb;" horiz-adv-x="983" d="M66 483q0 230 121 371t319 141q129 0 225.5 -64t140.5 -181q37 -101 43 -267h-583q0 -174 26 -262q51 -166 222 -166q102 0 169 65t87 185h79q-28 -160 -130 -246t-265 -86q-205 0 -329.5 140t-124.5 370zM158 1270q0 61 40 103t97 42q56 0 95.5 -42.5t39.5 -102.5 t-40 -103t-95 -43q-57 0 -97 43t-40 103zM332 557h321q-4 203 -40 293t-111 90q-82 0 -123 -92.5t-47 -290.5zM580 1270q0 60 40 102.5t97 42.5q56 0 95.5 -42.5t39.5 -102.5t-40 -103t-97 -43q-55 0 -95 43t-40 103z" />
<glyph unicode="&#xec;" horiz-adv-x="653" d="M-35 1409h379l109 -285h-91zM51 -6v57q57 2 82 5.5t42.5 18t20.5 35.5t3 66v559q0 38 -1 58.5t-7 39.5t-13.5 26.5t-26.5 13.5t-39.5 7t-58.5 1v53q190 12 404 72v-830q0 -46 3 -66.5t20 -35t42 -18t82 -5.5v-57q-191 12 -276 12q-125 0 -277 -12z" />
<glyph unicode="&#xed;" horiz-adv-x="653" d="M51 -6v57q57 2 82 5.5t42.5 18t20.5 35.5t3 66v559q0 38 -1 58.5t-7 39.5t-13.5 26.5t-26.5 13.5t-39.5 7t-58.5 1v53q190 12 404 72v-830q0 -46 3 -66.5t20 -35t42 -18t82 -5.5v-57q-191 12 -276 12q-125 0 -277 -12zM180 1124l109 285h366l-385 -285h-90z" />
<glyph unicode="&#xee;" horiz-adv-x="653" d="M8 1100l305 342l303 -342h-90l-213 147l-215 -147h-90zM51 -6v57q57 2 82 5.5t42.5 18t20.5 35.5t3 66v559q0 38 -1 58.5t-7 39.5t-13.5 26.5t-26.5 13.5t-39.5 7t-58.5 1v53q190 12 404 72v-830q0 -46 3 -66.5t20 -35t42 -18t82 -5.5v-57q-191 12 -276 12 q-125 0 -277 -12z" />
<glyph unicode="&#xef;" horiz-adv-x="653" d="M12 1270q0 60 38.5 100.5t94.5 40.5q54 0 92.5 -41.5t38.5 -99.5q0 -59 -38.5 -100.5t-92.5 -41.5q-55 0 -94 41.5t-39 100.5zM51 -6v57q57 2 82 5.5t42.5 18t20.5 35.5t3 66v559q0 38 -1 58.5t-7 39.5t-13.5 26.5t-26.5 13.5t-39.5 7t-58.5 1v53q190 12 404 72v-830 q0 -46 3 -66.5t20 -35t42 -18t82 -5.5v-57q-191 12 -276 12q-125 0 -277 -12zM350 1270q0 60 38.5 100.5t94.5 40.5q54 0 92.5 -41.5t38.5 -99.5q0 -59 -38.5 -100.5t-92.5 -41.5q-55 0 -94 41.5t-39 100.5z" />
<glyph unicode="&#xf0;" horiz-adv-x="1026" d="M66 483q0 140 59 256.5t161.5 183t225.5 66.5q21 0 37 -2l-94 150l-150 -95l-43 68l152 96l-97 152l60 39l121 -135l153 96l43 -68l-141 -92l145 -166q149 -169 206 -287t57 -260q0 -215 -128 -361.5t-317 -146.5q-193 0 -321.5 144.5t-128.5 361.5zM330 522 q0 -248 46.5 -367.5t143.5 -119.5q92 0 134 92.5t42 296.5q0 211 -30 334q-40 176 -158 176q-91 0 -134.5 -100t-43.5 -312z" />
<glyph unicode="&#xf1;" horiz-adv-x="1218" d="M49 879v53q191 18 334 59q33 -77 39 -172q58 91 129 130.5t172 39.5q154 0 232.5 -86.5t78.5 -255.5v-471q0 -45 3 -66t20.5 -35.5t42.5 -18t82 -5.5v-57q-132 10 -254 10q-130 0 -250 -10v55q64 1 81 21t17 94v516q0 101 -26 139q-43 62 -125 62q-96 0 -142 -74 q-26 -40 -26 -131v-512q0 -74 17 -94t81 -21v-55q-123 10 -252 10q-119 0 -252 -10v57q57 2 82 5.5t42.5 18t20.5 35.5t3 66v555q0 41 -0.5 61t-6.5 40.5t-13 27t-27.5 12.5t-40.5 6.5t-62 0.5zM256 1163q27 69 41.5 98t34.5 52q59 71 141 71q65 0 156 -47q60 -31 85.5 -40 t51.5 -9q41 0 67 19.5t66 81.5l66 -17q-40 -125 -94 -180t-136 -55q-38 0 -66.5 10t-121.5 57q-61 31 -103 31q-69 0 -125 -90z" />
<glyph unicode="&#xf2;" horiz-adv-x="1028" d="M66 479q0 221 130 368.5t324 147.5q195 0 318 -143.5t123 -370.5q0 -140 -59 -257t-162 -184t-226 -67q-193 0 -320.5 144t-127.5 362zM139 1409h393l123 -285h-90zM330 481q0 -235 43.5 -342.5t138.5 -107.5q97 0 140.5 104.5t43.5 333.5q0 246 -42 357.5t-136 111.5 q-95 0 -141.5 -112.5t-46.5 -344.5z" />
<glyph unicode="&#xf3;" horiz-adv-x="1028" d="M66 479q0 221 130 368.5t324 147.5q195 0 318 -143.5t123 -370.5q0 -140 -59 -257t-162 -184t-226 -67q-193 0 -320.5 144t-127.5 362zM330 481q0 -235 43.5 -342.5t138.5 -107.5q97 0 140.5 104.5t43.5 333.5q0 246 -42 357.5t-136 111.5q-95 0 -141.5 -112.5 t-46.5 -344.5zM395 1124l123 285h393l-426 -285h-90z" />
<glyph unicode="&#xf4;" horiz-adv-x="1028" d="M66 479q0 221 130 368.5t324 147.5q195 0 318 -143.5t123 -370.5q0 -140 -59 -257t-162 -184t-226 -67q-193 0 -320.5 144t-127.5 362zM168 1100l346 342l344 -342h-96l-248 147l-250 -147h-96zM330 481q0 -235 43.5 -342.5t138.5 -107.5q97 0 140.5 104.5t43.5 333.5 q0 246 -42 357.5t-136 111.5q-95 0 -141.5 -112.5t-46.5 -344.5z" />
<glyph unicode="&#xf5;" horiz-adv-x="1028" d="M66 479q0 221 130 368.5t324 147.5q195 0 318 -143.5t123 -370.5q0 -140 -59 -257t-162 -184t-226 -67q-193 0 -320.5 144t-127.5 362zM166 1163q27 69 41.5 98t34.5 52q59 71 141 71q65 0 156 -47q60 -31 85.5 -40t51.5 -9q41 0 67 19.5t66 81.5l65 -17 q-40 -125 -93.5 -180t-135.5 -55q-38 0 -66.5 10t-121.5 57q-61 31 -103 31q-69 0 -125 -90zM330 481q0 -235 43.5 -342.5t138.5 -107.5q97 0 140.5 104.5t43.5 333.5q0 246 -42 357.5t-136 111.5q-95 0 -141.5 -112.5t-46.5 -344.5z" />
<glyph unicode="&#xf6;" horiz-adv-x="1028" d="M66 479q0 221 130 368.5t324 147.5q195 0 318 -143.5t123 -370.5q0 -140 -59 -257t-162 -184t-226 -67q-193 0 -320.5 144t-127.5 362zM166 1270q0 61 40 103t97 42q56 0 95.5 -42.5t39.5 -102.5t-40 -103t-95 -43q-57 0 -97 43t-40 103zM330 481q0 -235 43.5 -342.5 t138.5 -107.5q97 0 140.5 104.5t43.5 333.5q0 246 -42 357.5t-136 111.5q-95 0 -141.5 -112.5t-46.5 -344.5zM588 1270q0 60 40 102.5t97 42.5q56 0 95.5 -42.5t39.5 -102.5t-40 -103t-97 -43q-55 0 -95 43t-40 103z" />
<glyph unicode="&#xf7;" d="M94 606v164h918v-164h-918zM414 352q0 60 41 101t100 41q57 0 98 -41.5t41 -98.5q0 -58 -41 -99.5t-98 -41.5q-58 0 -99.5 41t-41.5 98zM414 1024q0 60 41 100.5t100 40.5q57 0 98 -41t41 -98q0 -58 -41 -99.5t-98 -41.5q-58 0 -99.5 41t-41.5 98z" />
<glyph unicode="&#xf8;" horiz-adv-x="1013" d="M33 -23l137 162q-62 87 -86.5 161t-24.5 175q0 226 128 374t323 148q96 0 155.5 -23.5t135.5 -92.5l92 108h82l-131 -155q60 -85 85 -163t25 -179q0 -226 -126.5 -373.5t-321.5 -147.5q-86 0 -152 27.5t-141 93.5l-96 -115h-84zM324 483q0 -84 8 -168l338 426 q-20 101 -58.5 149t-99.5 48q-188 0 -188 -455zM344 231q23 -107 61 -153.5t101 -46.5q98 0 141 102.5t43 333.5q0 100 -8 188z" />
<glyph unicode="&#xf9;" horiz-adv-x="1206" d="M25 881v53q198 13 403 72v-705q0 -112 31 -156q39 -57 119 -57q50 0 88.5 23.5t58.5 66.5q20 41 20 129v428q0 39 -1 59t-6.5 39.5t-13 26.5t-26.5 13t-39.5 7t-58.5 1v53q206 16 404 72v-811q0 -65 19.5 -80.5t106.5 -18.5l25 -2v-57q-202 -18 -346 -70q-23 108 -25 185 q-53 -88 -123 -128t-174 -40q-177 0 -264 122q-53 75 -53 213v416q0 39 -1 59t-6.5 39.5t-13 26.5t-26.5 13t-39.5 7t-58.5 1zM215 1409h393l123 -285h-90z" />
<glyph unicode="&#xfa;" horiz-adv-x="1206" d="M25 881v53q198 13 403 72v-705q0 -112 31 -156q39 -57 119 -57q50 0 88.5 23.5t58.5 66.5q20 41 20 129v428q0 39 -1 59t-6.5 39.5t-13 26.5t-26.5 13t-39.5 7t-58.5 1v53q206 16 404 72v-811q0 -65 19.5 -80.5t106.5 -18.5l25 -2v-57q-202 -18 -346 -70q-23 108 -25 185 q-53 -88 -123 -128t-174 -40q-177 0 -264 122q-53 75 -53 213v416q0 39 -1 59t-6.5 39.5t-13 26.5t-26.5 13t-39.5 7t-58.5 1zM473 1124l123 285h393l-426 -285h-90z" />
<glyph unicode="&#xfb;" horiz-adv-x="1206" d="M25 881v53q198 13 403 72v-705q0 -112 31 -156q39 -57 119 -57q50 0 88.5 23.5t58.5 66.5q20 41 20 129v428q0 39 -1 59t-6.5 39.5t-13 26.5t-26.5 13t-39.5 7t-58.5 1v53q206 16 404 72v-811q0 -65 19.5 -80.5t106.5 -18.5l25 -2v-57q-202 -18 -346 -70q-23 108 -25 185 q-53 -88 -123 -128t-174 -40q-177 0 -264 122q-53 75 -53 213v416q0 39 -1 59t-6.5 39.5t-13 26.5t-26.5 13t-39.5 7t-58.5 1zM242 1100l346 342l344 -342h-96l-248 147l-250 -147h-96z" />
<glyph unicode="&#xfc;" horiz-adv-x="1206" d="M25 881v53q198 13 403 72v-705q0 -112 31 -156q39 -57 119 -57q50 0 88.5 23.5t58.5 66.5q20 41 20 129v428q0 39 -1 59t-6.5 39.5t-13 26.5t-26.5 13t-39.5 7t-58.5 1v53q206 16 404 72v-811q0 -65 19.5 -80.5t106.5 -18.5l25 -2v-57q-202 -18 -346 -70q-23 108 -25 185 q-53 -88 -123 -128t-174 -40q-177 0 -264 122q-53 75 -53 213v416q0 39 -1 59t-6.5 39.5t-13 26.5t-26.5 13t-39.5 7t-58.5 1zM240 1270q0 61 40 103t97 42q56 0 95.5 -42.5t39.5 -102.5t-40 -103t-95 -43q-57 0 -97 43t-40 103zM662 1270q0 60 40 102.5t97 42.5 q56 0 95.5 -42.5t39.5 -102.5t-40 -103t-97 -43q-55 0 -95 43t-40 103z" />
<glyph unicode="&#xfd;" horiz-adv-x="1095" d="M37 915v58q141 -10 260 -10t260 10v-58q-66 -5 -87 -13.5t-21 -31.5q0 -10 18 -61l172 -481l195 465q22 59 22 77q0 25 -23.5 35t-84.5 10v58q108 -6 161 -6q50 0 164 6v-58q-61 -6 -94 -36t-70 -113l-399 -932q-35 -80 -84.5 -138t-101.5 -81q-58 -25 -150 -25 q-28 0 -53 4v115q23 -4 51 -4q94 0 156 38.5t102 121.5l78 160l-305 753q-35 79 -66.5 105t-99.5 32zM475 1124l123 285h393l-426 -285h-90z" />
<glyph unicode="&#xfe;" horiz-adv-x="1128" d="M25 -348q57 2 82 5.5t42 18t20 35t3 66.5v1356q0 38 -1 58.5t-7 39.5t-13 26t-26 13t-39.5 7t-58.5 1v53q185 10 403 72v-508q81 94 207 94q119 0 217 -66.5t153.5 -183t55.5 -258.5q0 -220 -116 -362t-296 -142q-70 0 -119 21t-102 74v-295q0 -45 3 -66t20.5 -35.5 t42.5 -18t82 -5.5v-58q-210 13 -277 13q-66 0 -276 -13v58zM428 483q0 -235 45 -341.5t145 -106.5q94 0 137.5 103t43.5 325q0 244 -45.5 356.5t-143.5 112.5q-94 0 -138 -108.5t-44 -340.5z" />
<glyph unicode="&#xff;" horiz-adv-x="1095" d="M37 915v58q141 -10 260 -10t260 10v-58q-66 -5 -87 -13.5t-21 -31.5q0 -10 18 -61l172 -481l195 465q22 59 22 77q0 25 -23.5 35t-84.5 10v58q108 -6 161 -6q50 0 164 6v-58q-61 -6 -94 -36t-70 -113l-399 -932q-35 -80 -84.5 -138t-101.5 -81q-58 -25 -150 -25 q-28 0 -53 4v115q23 -4 51 -4q94 0 156 38.5t102 121.5l78 160l-305 753q-35 79 -66.5 105t-99.5 32zM244 1270q0 61 40 103t97 42q56 0 95.5 -42.5t39.5 -102.5t-40 -103t-95 -43q-57 0 -97 43t-40 103zM666 1270q0 60 40 102.5t97 42.5q56 0 95.5 -42.5t39.5 -102.5 t-40 -103t-97 -43q-55 0 -95 43t-40 103z" />
<glyph unicode="&#x152;" horiz-adv-x="1974" d="M82 684q0 315 155.5 510t407.5 195q268 0 363 -236v213h802l58 -360h-66q-38 167 -94 224.5t-182 57.5h-271v-540h250q70 0 92 30.5t31 139.5h76v-418h-76q-4 106 -27 138t-94 32h-252v-486q0 -66 23 -86t98 -20h127q91 0 143.5 28.5t102.5 104.5q49 75 76 168h65 l-65 -379h-817v219q-62 -129 -145 -185.5t-212 -56.5q-257 0 -413 194t-156 513zM352 684q0 -331 79.5 -486t248.5 -155q328 0 328 645q0 268 -50 416q-32 102 -105 160.5t-167 58.5t-166.5 -57t-109.5 -158q-58 -162 -58 -424z" />
<glyph unicode="&#x153;" horiz-adv-x="1638" d="M66 477q0 220 130 366t326 146q178 0 305 -133q130 133 320 133q133 0 232 -64t145 -180q44 -105 47 -282h-610q6 -165 30 -242q52 -162 228 -162q105 0 175 64.5t93 181.5h84q-31 -160 -136 -244t-272 -84q-209 0 -340 140q-73 -73 -146.5 -106.5t-164.5 -33.5 q-192 0 -319 142.5t-127 357.5zM330 479q0 -232 43.5 -339t138.5 -107q96 0 140 104t44 330q0 246 -42 356.5t-136 110.5q-188 0 -188 -455zM963 553h342q-8 208 -44.5 294.5t-119.5 86.5q-63 0 -102.5 -50t-59.5 -153q-11 -61 -16 -178z" />
<glyph unicode="&#x178;" horiz-adv-x="1280" d="M31 1296v76q164 -14 299 -14q133 0 297 14v-76q-79 -3 -107 -16t-28 -45q0 -25 28 -82l225 -451l218 437q34 64 34 100q0 31 -26 42.5t-101 14.5v76q132 -6 195 -6t195 6v-76q-82 -8 -119 -32.5t-72 -94.5l-293 -581v-375q0 -92 29.5 -116t144.5 -27v-76q-192 14 -309 14 t-309 -14v76q115 3 144.5 27t29.5 116v375l-268 538q-46 95 -88 129.5t-119 40.5zM362 1614q0 61 43 104t105 43q60 0 102.5 -42.5t42.5 -102.5q0 -61 -42.5 -104.5t-102.5 -43.5q-61 0 -104.5 43t-43.5 103zM741 1614q0 61 43 104t105 43q60 0 102.5 -42.5t42.5 -102.5 q0 -61 -42.5 -104.5t-102.5 -43.5q-61 0 -104.5 43t-43.5 103z" />
<glyph unicode="&#x2c6;" horiz-adv-x="1024" d="M166 1100l346 342l344 -342h-96l-248 147l-250 -147h-96z" />
<glyph unicode="&#x2dc;" horiz-adv-x="1024" d="M158 1163q27 71 41 99.5t34 50.5q59 71 142 71q64 0 155 -47q60 -31 86 -40t52 -9q41 0 67 19.5t66 81.5l65 -17q-40 -125 -93.5 -180t-135.5 -55q-38 0 -66.5 10t-121.5 57q-61 31 -103 31q-69 0 -125 -90z" />
<glyph unicode="&#x2000;" horiz-adv-x="906" />
<glyph unicode="&#x2001;" horiz-adv-x="1812" />
<glyph unicode="&#x2002;" horiz-adv-x="906" />
<glyph unicode="&#x2003;" horiz-adv-x="1812" />
<glyph unicode="&#x2004;" horiz-adv-x="604" />
<glyph unicode="&#x2005;" horiz-adv-x="453" />
<glyph unicode="&#x2006;" horiz-adv-x="302" />
<glyph unicode="&#x2007;" horiz-adv-x="302" />
<glyph unicode="&#x2008;" horiz-adv-x="226" />
<glyph unicode="&#x2009;" horiz-adv-x="362" />
<glyph unicode="&#x200a;" horiz-adv-x="100" />
<glyph unicode="&#x2010;" horiz-adv-x="544" d="M0 469v106h545v-106h-545z" />
<glyph unicode="&#x2011;" horiz-adv-x="544" d="M0 469v106h545v-106h-545z" />
<glyph unicode="&#x2012;" horiz-adv-x="544" d="M0 469v106h545v-106h-545z" />
<glyph unicode="&#x2013;" d="M131 469v94h846v-94h-846z" />
<glyph unicode="&#x2014;" horiz-adv-x="1347" d="M0 469v94h1348v-94h-1348z" />
<glyph unicode="&#x2018;" horiz-adv-x="489" d="M104 1049q0 83 48 169.5t133 157.5h88q-44 -43 -75 -101.5t-40 -115.5q60 -3 93.5 -36.5t33.5 -90.5q0 -61 -38.5 -99t-100.5 -38q-64 0 -103 42.5t-39 111.5z" />
<glyph unicode="&#x2019;" horiz-adv-x="489" d="M104 1251q0 61 39 99.5t101 38.5q65 0 103 -42t38 -112q0 -160 -180 -328h-88q97 101 112 217q-59 3 -92 36.5t-33 90.5z" />
<glyph unicode="&#x201a;" horiz-adv-x="489" d="M104 125q0 61 39 99t99 38q66 0 104.5 -41t38.5 -112q0 -160 -180 -328h-88q97 100 112 217q-59 3 -92 36.5t-33 90.5z" />
<glyph unicode="&#x201c;" horiz-adv-x="829" d="M104 1049q0 83 48 169.5t133 157.5h88q-44 -43 -75 -101.5t-40 -115.5q60 -3 93.5 -36.5t33.5 -90.5q0 -61 -38.5 -99t-100.5 -38q-64 0 -103 42.5t-39 111.5zM444 1051q0 81 48.5 168.5t132.5 156.5h90q-44 -41 -75.5 -101t-39.5 -116q60 -3 92.5 -36.5t32.5 -90.5 q0 -61 -38.5 -99t-100.5 -38q-64 0 -103 42.5t-39 113.5z" />
<glyph unicode="&#x201d;" horiz-adv-x="829" d="M104 1251q0 61 39 99.5t101 38.5q65 0 103 -42t38 -112q0 -160 -180 -328h-88q97 101 112 217q-59 3 -92 36.5t-33 90.5zM444 1253q0 60 39 98t101 38q65 0 103 -42t38 -114q0 -157 -178 -326h-90q96 100 114 217q-60 3 -93.5 37t-33.5 92z" />
<glyph unicode="&#x201e;" horiz-adv-x="829" d="M104 121q0 61 39 99t101 38q64 0 102.5 -42.5t38.5 -113.5q0 -160 -180 -325h-88q97 100 112 217q-59 3 -92 36.5t-33 90.5zM444 123q0 60 39 97.5t101 37.5q64 0 102.5 -42.5t38.5 -113.5q0 -159 -178 -325h-90q95 95 114 217q-60 3 -93.5 37t-33.5 92z" />
<glyph unicode="&#x2022;" horiz-adv-x="1366" d="M401 692q0 120 83.5 202.5t205.5 82.5q114 0 196.5 -83.5t82.5 -199.5q0 -118 -83 -201t-200 -83t-201 82.5t-84 199.5z" />
<glyph unicode="&#x2026;" horiz-adv-x="1611" d="M109 137q0 68 47 115t116 47q64 0 111 -47.5t47 -112.5q0 -67 -47 -114.5t-113 -47.5q-67 0 -114 47t-47 113zM645 137q0 68 47.5 115t116.5 47q64 0 111 -47.5t47 -112.5q0 -67 -47 -114.5t-113 -47.5t-114 47t-48 113zM1182 137q0 68 47.5 115t116.5 47q65 0 111 -47 t46 -113q0 -67 -47 -114.5t-113 -47.5t-113.5 47t-47.5 113z" />
<glyph unicode="&#x202f;" horiz-adv-x="362" />
<glyph unicode="&#x2039;" horiz-adv-x="565" d="M84 489l299 478h66l-150 -478l150 -489h-66z" />
<glyph unicode="&#x203a;" horiz-adv-x="565" d="M115 0l151 489l-151 478h65l301 -478l-301 -489h-65z" />
<glyph unicode="&#x205f;" horiz-adv-x="453" />
<glyph unicode="&#x2122;" horiz-adv-x="1931" d="M35 1133l43 233h620l43 -233h-53q-23 100 -62.5 139t-115.5 39h-35v-635q0 -51 18.5 -65t90.5 -15v-53q-107 8 -197 8t-194 -8v53q72 1 89 14t17 66v635h-33q-75 0 -114 -39t-64 -139h-53zM819 541v55q72 2 89.5 15t17.5 65l12 559q1 51 -17.5 64.5t-89.5 15.5v55 q92 -6 148 -6q59 0 151 6l228 -526l229 526q86 -6 144 -6q55 0 143 6v-53q-71 -3 -89.5 -17t-17.5 -65l11 -559q0 -52 18 -65t90 -15v-55q-113 10 -196 10q-85 0 -195 -10v55q70 1 88.5 15t18.5 65l-11 563l-223 -520q-24 -58 -53 -150h-35l-14 43q-12 36 -21 54 q-22 55 -28 69l-220 512l-12 -571v-12q0 -43 19 -54.5t88 -13.5v-55q-92 6 -131 6q-31 0 -142 -6z" />
<glyph unicode="&#x25fc;" horiz-adv-x="972" d="M0 0v973h973v-973h-973z" />
</font>
</defs>
</svg>
