<?xml version="1.0" standalone="no"?>
<!DOCTYPE svg PUBLIC "-//W3C//DTD SVG 1.1//EN" "http://www.w3.org/Graphics/SVG/1.1/DTD/svg11.dtd" >
<svg xmlns="http://www.w3.org/2000/svg">
<metadata></metadata>
<defs>
<font id="corporateamedium" horiz-adv-x="1079" >
<font-face units-per-em="2048" ascent="1638" descent="-410" />
<missing-glyph horiz-adv-x="512" />
<glyph unicode="&#xfb01;" horiz-adv-x="1193" d="M53 -6v45q96 5 122 24.5t26 88.5v739h-144v65q103 3 128.5 24t29.5 107q6 93 18 136t43 80q37 46 96 71t128 25q94 0 153.5 -45t59.5 -115q0 -40 -21 -61t-59 -21q-35 0 -56.5 17.5t-21.5 46.5l2 28q4 16 4 35q0 28 -16.5 45t-42.5 17q-33 0 -61 -22.5t-42 -59.5 q-14 -47 -14 -148v-149h233v-76h-233v-739q0 -69 26 -88.5t121 -24.5v-45q-136 12 -239 12q-104 0 -240 -12zM664 -6v45q95 5 121 24.5t26 88.5v628q0 83 -24 104t-121 21v39q174 15 329 60v-852q0 -69 26 -88.5t122 -24.5v-45q-136 12 -240 12q-103 0 -239 -12zM793 1253 q0 51 34.5 86t85.5 35t86 -35t35 -86q0 -52 -35 -86t-88 -34q-50 0 -84 34.5t-34 85.5z" />
<glyph unicode="&#xfb02;" horiz-adv-x="1179" d="M53 -6v45q96 5 122 24.5t26 88.5v739h-144v65q103 3 128.5 24t29.5 107q6 93 18 136t43 80q37 46 96 71t128 25q113 0 174 -64q163 13 315 58v-1241q0 -69 26 -88.5t122 -24.5v-45q-136 12 -240 12t-240 -12v45q96 5 122 24.5t26 88.5v1007q1 86 -16.5 108t-88.5 25 q13 -32 13 -55q0 -38 -21 -59t-59 -21q-35 0 -56.5 18t-21.5 46q0 4 4 32l2 29q0 28 -15.5 44.5t-43.5 16.5q-34 0 -62 -21.5t-41 -59.5q-14 -47 -14 -146v-149h233v-76h-233v-739q0 -69 26 -88.5t121 -24.5v-45q-136 12 -239 12q-104 0 -240 -12z" />
<glyph horiz-adv-x="0" />
<glyph horiz-adv-x="682" />
<glyph unicode=" "  horiz-adv-x="512" />
<glyph unicode="&#x09;" horiz-adv-x="512" />
<glyph unicode="&#xa0;" horiz-adv-x="512" />
<glyph unicode="!" horiz-adv-x="524" d="M131 111q0 55 37.5 93t93.5 38q54 0 91.5 -38t37.5 -91q0 -55 -37.5 -93t-93.5 -38q-52 0 -90.5 38t-38.5 91zM158 1346h207l-48 -924h-110z" />
<glyph unicode="&#x22;" horiz-adv-x="765" d="M152 1366h165l-24 -549h-117zM444 1366h168l-24 -549h-119z" />
<glyph unicode="#" horiz-adv-x="1241" d="M66 430l18 121h231l45 289h-229l19 121h229l65 405h138l-64 -405h287l65 405h138l-64 -405h230l-19 -121h-229l-47 -289h229l-18 -121h-230l-67 -430h-140l68 430h-287l-69 -430h-138l68 430h-229zM453 551h288l45 289h-288z" />
<glyph unicode="$" d="M94 -33v455h49q22 -170 117 -270t246 -109v571q-168 66 -205 86q-100 52 -146 127.5t-46 184.5q0 161 107 262.5t290 111.5v166h65v-166q149 -9 258 -112l62 119h33v-387h-47q-64 300 -306 315v-522q170 -64 234 -101q186 -110 186 -319q0 -169 -115.5 -280.5 t-304.5 -121.5v-163h-65v166q-166 9 -299 124l-80 -137h-33zM276 1065q0 -91 47.5 -140t182.5 -100v494q-106 -15 -168 -84t-62 -170zM571 43q122 15 186 84t64 186q0 103 -53.5 162t-196.5 113v-545z" />
<glyph unicode="%" horiz-adv-x="1273" d="M66 1053q0 141 79.5 233t200.5 92q118 0 194 -91t76 -234t-77 -236.5t-197 -93.5q-123 0 -199.5 91t-76.5 239zM193 0l798 1366h90l-798 -1366h-90zM201 1051q0 -275 141 -275q139 0 139 277q0 272 -137 272q-143 0 -143 -274zM657 317q0 141 79.5 233.5t201.5 92.5 q118 0 194 -91.5t76 -234.5t-77 -236t-197 -93q-123 0 -200 91t-77 238zM793 317q0 -141 34.5 -208.5t106.5 -67.5q139 0 139 276q0 275 -137 275q-143 0 -143 -275z" />
<glyph unicode="&#x26;" horiz-adv-x="1224" d="M63 348q0 118 61.5 205.5t227.5 202.5q-100 146 -121.5 193t-21.5 116q0 118 89.5 198t221.5 80q122 0 198.5 -72.5t76.5 -189.5q0 -87 -47.5 -162t-174.5 -188l330 -448q82 116 82 225q0 35 -22.5 49.5t-85.5 17.5v62q96 -8 151 -8q56 0 152 8v-62q-72 -5 -92 -21 t-29 -79q-17 -91 -39 -146.5t-62 -113.5l56 -80q44 -63 72.5 -79t103.5 -17v-45q-99 6 -137 6q-43 0 -135 -6l-76 106q-96 -69 -170 -96t-172 -27q-192 0 -314.5 104t-122.5 267zM242 334q0 -123 78.5 -200t203.5 -77q70 0 124.5 21.5t142.5 83.5l-349 471 q-108 -72 -154 -140.5t-46 -158.5zM358 1108q0 -54 20 -95t105 -161q103 83 145 143.5t42 124.5q0 70 -41.5 116t-104.5 46q-71 0 -118.5 -49.5t-47.5 -124.5z" />
<glyph unicode="'" horiz-adv-x="471" d="M152 1366h165l-24 -549h-117z" />
<glyph unicode="(" horiz-adv-x="647" d="M147 483q0 571 318 916h67q-206 -364 -206 -916q0 -545 206 -915h-67q-318 352 -318 915z" />
<glyph unicode=")" horiz-adv-x="647" d="M115 -432q207 372 207 915q0 550 -207 916h67q318 -345 318 -916q0 -563 -318 -915h-67z" />
<glyph unicode="*" d="M229 1063l35 108l230 -86l-11 246h115l-10 -246l229 86l35 -106l-236 -68l152 -192l-92 -66l-135 205l-135 -205l-93 66l152 192z" />
<glyph unicode="+" d="M106 623v133h365v360h137v-360h365v-133h-365v-359h-137v359h-365z" />
<glyph unicode="," horiz-adv-x="493" d="M72 -369q68 71 121.5 176.5t62.5 184.5h-8q-6 -2 -17 -2q-47 0 -77.5 31.5t-30.5 80.5q0 55 36 90t93 35q63 0 97 -40.5t34 -112.5q0 -197 -209 -443h-102z" />
<glyph unicode="-" horiz-adv-x="530" d="M0 494v96h530v-96h-530z" />
<glyph unicode="." horiz-adv-x="485" d="M117 109q0 54 37.5 90.5t91.5 36.5q52 0 88.5 -37t36.5 -90t-37.5 -90t-89.5 -37t-89.5 37t-37.5 90z" />
<glyph unicode="/" horiz-adv-x="845" d="M-178 -397l876 1763h125l-874 -1763h-127z" />
<glyph unicode="0" d="M102 672q0 150 32 282.5t89 225.5q52 83 136 128.5t184 45.5q98 0 179.5 -44t131.5 -122q60 -95 92.5 -230.5t32.5 -289.5q0 -294 -107 -488q-53 -97 -136.5 -147.5t-192.5 -50.5q-211 0 -326 180.5t-115 509.5zM297 670q0 -309 62.5 -468t183.5 -159q241 0 241 629 q0 303 -61 461.5t-178 158.5q-122 0 -185 -158t-63 -464z" />
<glyph unicode="1" d="M231 1114v55q129 7 227.5 69.5t133.5 158.5h59v-1209q0 -85 28 -108.5t142 -30.5v-55q-131 12 -266 12q-133 0 -264 -12v55q41 3 65.5 5.5t45.5 9.5t31 15t17.5 24.5t9 35t1.5 49.5v926h-230z" />
<glyph unicode="2" d="M129 0v133q316 356 451 558.5t135 322.5q0 94 -61 153.5t-158 59.5q-68 0 -127 -30.5t-93 -82.5q-35 -55 -53 -160h-73q12 107 31.5 167t56.5 106q51 60 131.5 93.5t175.5 33.5q160 0 263 -88.5t103 -225.5q0 -46 -7.5 -84t-34 -91.5t-65 -108.5t-111.5 -145t-162.5 -192 t-229.5 -257h629l-23 -162h-778z" />
<glyph unicode="3" d="M111 379h75q15 -144 82 -211.5t195 -67.5q133 0 212 78.5t79 210.5q0 98 -42 165t-120 93q-26 10 -80.5 17.5t-99.5 7.5h-29v73h29q70 0 113.5 12t80.5 40q94 72 94 202q0 108 -59.5 172t-159.5 64q-66 0 -121.5 -27t-89.5 -75q-32 -47 -53 -142h-67q35 363 380 363 q161 0 261 -90t100 -236q0 -227 -250 -305q66 -15 103.5 -30.5t74.5 -41.5q61 -43 95 -113t34 -155q0 -173 -123 -287t-311 -114q-130 0 -223.5 52t-136.5 148q-21 41 -29.5 83t-13.5 114z" />
<glyph unicode="4" d="M37 346l543 1024h194v-883h227v-141h-227v-373h-190v373h-547zM188 487h402v768z" />
<glyph unicode="5" d="M133 334h72q34 -232 252 -232q133 0 213 99.5t80 265.5q0 154 -74 245t-199 91q-82 0 -144 -37.5t-112 -116.5l-65 6l114 680h613l-23 -157h-541l-65 -385q115 118 289 118q181 0 292 -122t111 -320q0 -195 -112 -334q-120 -153 -334 -153q-166 0 -259.5 90t-107.5 262z " />
<glyph unicode="6" d="M106 461q0 163 80.5 322t257.5 345q144 156 301 285h109q-128 -119 -246.5 -264t-179.5 -258q85 31 154 31q167 0 276 -130t109 -331q0 -207 -121 -343t-307 -136q-191 0 -312 134t-121 345zM305 457q0 -414 230 -414q229 0 229 401q0 199 -57.5 301.5t-167.5 102.5 q-115 0 -174.5 -99.5t-59.5 -291.5z" />
<glyph unicode="7" d="M106 1171v164h863l-600 -1335h-168l590 1171h-685z" />
<glyph unicode="8" d="M129 365q0 122 54.5 201.5t174.5 133.5q-103 46 -151.5 119t-48.5 180q0 160 107 257.5t282 97.5q169 0 270 -95t101 -255q0 -206 -203 -304q119 -44 176 -125.5t57 -205.5q0 -175 -111.5 -281t-295.5 -106q-187 0 -299.5 104.5t-112.5 278.5zM319 365q0 -152 58.5 -237 t161.5 -85q101 0 160 84.5t59 230.5q0 145 -57 226.5t-158 81.5t-162.5 -82.5t-61.5 -218.5zM348 1014q0 -140 48.5 -213.5t142.5 -73.5q89 0 138.5 73t49.5 204q0 140 -47 214t-137 74q-92 0 -143.5 -73.5t-51.5 -204.5z" />
<glyph unicode="9" d="M127 877q0 207 117 342t297 135q184 0 300.5 -135t116.5 -347q0 -161 -76 -319t-243 -346q-144 -165 -287 -287h-108q118 112 234.5 262.5t172.5 261.5q-80 -30 -151 -30q-161 0 -267 131t-106 332zM324 899q0 -412 217 -412q110 0 166.5 98t56.5 287q0 420 -221 420 q-219 0 -219 -393z" />
<glyph unicode=":" horiz-adv-x="485" d="M117 109q0 54 37.5 90.5t91.5 36.5q52 0 88.5 -37t36.5 -90t-37.5 -90t-89.5 -37t-89.5 37t-37.5 90zM117 776q0 54 37.5 90.5t91.5 36.5q52 0 88.5 -37t36.5 -90q0 -52 -37.5 -89.5t-89.5 -37.5t-89.5 37.5t-37.5 89.5z" />
<glyph unicode=";" horiz-adv-x="493" d="M72 -369q68 71 121.5 176.5t62.5 184.5h-8q-6 -2 -17 -2q-47 0 -77.5 31.5t-30.5 80.5q0 55 36 90t93 35q63 0 97 -40.5t34 -112.5q0 -197 -209 -443h-102zM125 776q0 54 37.5 90.5t91.5 36.5q52 0 88.5 -37t36.5 -90q0 -52 -37.5 -89.5t-89.5 -37.5t-89.5 37.5 t-37.5 89.5z" />
<glyph unicode="&#x3c;" horiz-adv-x="1024" d="M88 698v13l848 544v-77l-639 -416l639 -426v-205z" />
<glyph unicode="=" d="M106 489v129h867v-129h-867zM106 762v129h867v-129h-867z" />
<glyph unicode="&#x3e;" horiz-adv-x="1024" d="M88 131v78l639 414l-639 428v204l848 -567v-12z" />
<glyph unicode="?" horiz-adv-x="804" d="M80 993q0 89 19 147.5t63 108.5q104 113 280 113q139 0 226.5 -83.5t87.5 -217.5q0 -93 -42.5 -161t-152.5 -152q-103 -80 -141.5 -145.5t-38.5 -160.5q0 -20 2 -36h-88q-6 71 -6 100q0 105 29.5 164.5t138.5 173.5q62 65 87 113t25 102q0 78 -50 126t-132 48 q-106 0 -170 -62.5t-76 -177.5h-61zM225 111q0 55 37.5 93t93.5 38q54 0 91.5 -38t37.5 -91q0 -54 -37.5 -92.5t-91.5 -38.5t-92.5 38t-38.5 91z" />
<glyph unicode="@" horiz-adv-x="1456" d="M57 674q0 196 94 360t257 258t358 94q180 0 326 -74t228.5 -204t82.5 -291q0 -225 -143 -377q-68 -72 -148.5 -114.5t-150.5 -42.5q-71 0 -106.5 36t-47.5 119q-60 -80 -111 -111.5t-118 -31.5q-112 0 -186.5 80t-74.5 200q0 114 59 218t156.5 166.5t204.5 62.5 q69 0 110 -37t60 -115l35 134h150l-144 -539q-12 -40 -12 -62q0 -29 16.5 -48t42.5 -19q47 0 107 44.5t110 115.5q46 70 73.5 155t27.5 164q0 133 -73.5 244t-201 175t-278.5 64q-168 0 -307.5 -82t-219 -224t-79.5 -314q0 -171 82.5 -311t226.5 -219.5t321 -79.5 q157 0 281 70.5t223 217.5h103q-50 -89 -92 -139t-107 -100q-180 -137 -412 -137q-152 0 -286.5 53.5t-230 145t-151 220.5t-55.5 275zM469 522q0 -78 37.5 -128t95.5 -50q119 0 205 201q26 62 44.5 141t18.5 133q0 148 -112 154q-54 3 -108 -40.5t-99 -123.5 q-37 -70 -59.5 -148t-22.5 -139z" />
<glyph unicode="A" horiz-adv-x="1333" d="M20 -6v55q96 6 132.5 34t74.5 124l463 1204l428 -1235q28 -74 63 -97t132 -30v-55q-155 14 -262 14q-110 0 -265 -14v55q78 6 107 19t29 41q0 26 -15 71l-65 209h-471l-66 -182q-24 -71 -24 -94q0 -33 28 -46.5t109 -17.5v-55q-112 10 -199 10t-199 -10zM395 459h424 l-194 606z" />
<glyph unicode="B" horiz-adv-x="1187" d="M63 0v55q61 4 91.5 9.5t50 22t24 39.5t4.5 69v979q0 85 -28 107t-142 30v55h553q101 0 167.5 -17t119.5 -55q60 -44 93.5 -112.5t33.5 -147.5q0 -224 -227 -303q85 -15 143 -51q70 -44 109 -119t39 -166q0 -103 -50 -192.5t-133 -136.5q-62 -35 -135.5 -50.5 t-183.5 -15.5h-529zM426 168q0 -63 22 -81.5t97 -18.5h73q132 0 202.5 81.5t70.5 233.5q0 155 -72 233q-60 66 -211 66h-182v-514zM426 748h133q81 0 126.5 14.5t78.5 52.5q63 69 63 211q0 145 -56 209.5t-181 64.5h-164v-552z" />
<glyph unicode="C" horiz-adv-x="1247" d="M106 676q0 327 152 522t406 195q102 0 179 -30.5t148 -98.5l72 127h39v-420h-51q-43 178 -131 264t-228 86q-203 0 -293 -184q-86 -174 -86 -447q0 -297 97.5 -454.5t281.5 -157.5q157 0 250.5 103t104.5 286h73q-7 -228 -132 -361t-331 -133q-249 0 -400 193t-151 510z " />
<glyph unicode="D" horiz-adv-x="1312" d="M55 0v55q61 4 91.5 9.5t50 22t24 39.5t4.5 69v979q0 85 -28 107t-142 30v55h520q148 0 247 -31.5t177 -103.5q103 -96 161.5 -240.5t58.5 -306.5q0 -164 -61 -312t-165 -237q-79 -70 -184 -102.5t-250 -32.5h-504zM422 166q0 -66 23 -84.5t106 -18.5q223 0 326 115 q139 157 139 514q0 317 -125 482q-100 126 -316 126h-153v-1134z" />
<glyph unicode="E" horiz-adv-x="1130" d="M63 0v55q61 4 91.5 9.5t50 22t24 39.5t4.5 69v979q0 85 -28 107t-142 30v55h912l41 -319h-51q-38 152 -88 202.5t-162 50.5h-285v-557h279q66 0 90 34t30 134h56v-405h-56q-5 98 -30.5 135t-89.5 37h-279v-496q0 -69 27 -92.5t106 -23.5h135q122 0 184 59t105 215h51 l-53 -340h-922z" />
<glyph unicode="F" horiz-adv-x="1083" d="M70 -6v55q114 7 142 30.5t28 108.5v986q0 85 -28 107t-142 30v55h911l41 -319h-51q-38 152 -88 202.5t-162 50.5h-285v-557h279q68 0 91.5 32.5t29.5 135.5h55v-405h-55q-5 100 -30 136t-91 36h-279v-490q0 -31 1.5 -49.5t9 -35t17.5 -24.5t31 -15t45.5 -9.5t65.5 -5.5 v-55q-169 14 -268 14t-268 -14z" />
<glyph unicode="G" horiz-adv-x="1318" d="M94 688q0 323 154 512t416 189q103 0 181 -28.5t154 -94.5l80 127h39v-422h-51q-31 116 -76 190q-46 78 -125.5 122t-175.5 44q-192 0 -290.5 -161.5t-98.5 -475.5q0 -651 383 -651q117 0 266 70v350q0 59 -29.5 78.5t-127.5 25.5v55q133 -12 241 -12q111 0 242 12v-55 q-95 -8 -118 -25t-23 -83v-326q-134 -82 -242 -117t-229 -35q-261 0 -415.5 192t-154.5 519z" />
<glyph unicode="H" horiz-adv-x="1404" d="M63 -6v55q114 7 142 30.5t28 108.5v992q0 85 -28 107t-142 30v55q169 -14 263 -14q95 0 270 14v-55q-114 -8 -142 -30t-28 -107v-435h555v435q0 85 -28 107t-142 30v55q175 -14 268 -14q95 0 264 14v-55q-114 -7 -141.5 -29.5t-27.5 -107.5v-992q0 -46 4.5 -68.5 t23.5 -39t49.5 -22t91.5 -9.5v-55q-169 14 -264 14q-93 0 -268 -14v55q114 7 142 30.5t28 108.5v492h-555v-492q0 -31 1.5 -49.5t9 -35t17.5 -24.5t31 -15t45.5 -9.5t65.5 -5.5v-55q-175 14 -270 14q-94 0 -263 -14z" />
<glyph unicode="I" horiz-adv-x="661" d="M63 -6v55q114 7 142 30.5t28 108.5v992q0 85 -28 107t-142 30v55q175 -14 269 -14q93 0 268 14v-55q-114 -8 -142 -30t-28 -107v-992q0 -31 1.5 -49.5t9 -35t17.5 -24.5t31 -15t45.5 -9.5t65.5 -5.5v-55q-175 14 -268 14q-94 0 -269 -14z" />
<glyph unicode="J" horiz-adv-x="657" d="M-14 -74q23 -2 47 -2q119 0 161 52.5t42 201.5v1002q0 85 -28 107t-142 30v55q175 -14 268 -14t268 14v-55q-114 -8 -142 -30t-28 -107v-924q0 -145 -31.5 -222.5t-107.5 -121.5q-99 -57 -238 -57q-36 0 -69 4v67z" />
<glyph unicode="K" horiz-adv-x="1331" d="M63 -6v55q116 9 143 30.5t27 106.5v994q0 85 -28 107t-142 30v55q172 -14 271 -14q97 0 258 14v-55q-114 -8 -142 -30t-28 -107v-471l463 508q30 33 30 55q0 23 -24 32t-103 13v55q123 -8 213 -8t213 8v-55q-89 -4 -138.5 -26.5t-106.5 -84.5l-334 -366l440 -654 q54 -78 100.5 -105.5t133.5 -31.5v-55q-161 16 -277 16q-114 0 -278 -16v55q86 6 112.5 16.5t26.5 38.5q0 21 -33 70l-348 543l-92 -99v-432q0 -45 4 -67t23.5 -38t48.5 -21.5t88 -10.5v-55q-146 14 -250 14q-102 0 -271 -14z" />
<glyph unicode="L" horiz-adv-x="1056" d="M63 0v55q61 4 91.5 9.5t50 22t24 39.5t4.5 69v985q0 85 -28 107t-142 30v55q175 -14 269 -14q93 0 268 14v-55q-114 -8 -142 -30t-28 -107v-992q0 -70 26.5 -93t106.5 -23h135q123 0 184.5 57t104.5 211h51l-51 -340h-924z" />
<glyph unicode="M" horiz-adv-x="1710" d="M61 -6v55q39 2 63 5t44 9.5t30.5 14.5t18 24t10 35t4.5 49l37 992v12q0 73 -32 96.5t-138 28.5v57q109 -8 185 -8q102 0 202 10l379 -1005l383 1005q115 -10 205 -10q67 0 174 8v-55q-109 -7 -139.5 -30t-30.5 -95v-14l21 -992q1 -83 31.5 -107t140.5 -30v-55 q-175 14 -271 14q-94 0 -266 -14v55q105 4 137.5 29t32.5 100v8l-18 1045l-346 -914q-51 -135 -52 -139q-2 -7 -47 -139h-33q-22 60 -104 293l-342 905l-37 -1051v-16q0 -70 30.5 -91.5t139.5 -29.5v-55q-125 8 -203 8t-209 -8z" />
<glyph unicode="N" horiz-adv-x="1386" d="M61 1317v55q114 -6 179 -6q59 0 161 6l686 -1003v811q0 85 -27.5 107.5t-141.5 29.5v55q148 -8 208 -8q67 0 203 8v-55q-114 -8 -142 -30t-28 -107v-1219h-35q-83 131 -219 332l-600 885v-990q0 -85 28.5 -108t141.5 -31v-55q-133 10 -209 10q-80 0 -203 -10v55 q113 8 141.5 31t28.5 108v1063q-55 61 -172 66z" />
<glyph unicode="O" horiz-adv-x="1310" d="M94 686q0 320 153 513.5t406 193.5q260 0 412 -193.5t152 -523.5q0 -318 -153.5 -510.5t-406.5 -192.5q-258 0 -410.5 193t-152.5 520zM301 690q0 -315 93 -486t265 -171q169 0 260 168.5t91 480.5q0 316 -90.5 483.5t-260.5 167.5t-264 -168.5t-94 -474.5z" />
<glyph unicode="P" horiz-adv-x="1136" d="M63 -6v55q114 7 142 30.5t28 108.5v986q0 85 -28 107t-142 30v55h553q109 0 181.5 -16.5t128.5 -53.5q72 -49 113.5 -133t41.5 -178q0 -92 -40.5 -172t-112.5 -131q-107 -74 -287 -74h-211v-420q0 -31 1.5 -49.5t9 -35t17.5 -24.5t31 -15t45.5 -9.5t65.5 -5.5v-55 q-175 14 -268 14q-94 0 -269 -14zM430 674h145q144 0 216 63q94 85 94 252q0 73 -20.5 136.5t-55.5 101.5q-67 73 -221 73h-158v-626z" />
<glyph unicode="Q" horiz-adv-x="1302" d="M94 686q0 321 151.5 514t403.5 193q255 0 406 -193.5t151 -519.5q0 -242 -98 -434q76 -121 124 -162.5t116 -44.5v-62h-84q-85 0 -139.5 23.5t-137.5 95.5q-141 -123 -334 -123q-256 0 -407.5 193t-151.5 520zM297 694q0 -316 93 -488.5t263 -172.5q169 0 260 168t91 481 q0 316 -90.5 483.5t-260.5 167.5q-169 0 -262.5 -167.5t-93.5 -471.5z" />
<glyph unicode="R" horiz-adv-x="1243" d="M63 -6v55q114 7 142 30.5t28 108.5v986q0 85 -28 107t-142 30v55h562q187 0 293 -66q71 -47 113 -127t42 -169q0 -92 -46 -171.5t-122 -119.5q-65 -33 -164 -54q67 -20 103.5 -56.5t75.5 -123.5l135 -305q34 -77 64.5 -99.5t103.5 -25.5v-55q-99 6 -144 6q-44 0 -143 -6 q-20 37 -57 125l-156 360q-41 98 -86 131t-139 33h-72v-455q0 -31 1.5 -49.5t9 -35t17.5 -24.5t31 -15t45.5 -9.5t65.5 -5.5v-55q-167 14 -264 14q-94 0 -269 -14zM430 709h156q143 0 217 76t74 223q0 145 -70.5 218.5t-208.5 73.5h-168v-591z" />
<glyph unicode="S" d="M119 -35v455h53q29 -183 120.5 -277t239.5 -94q122 0 200.5 73t78.5 187q0 121 -94 193q-31 24 -61.5 41.5t-135.5 72.5q-137 71 -196 108t-95 73q-88 85 -88 229q0 160 111 259t289 99q89 0 151 -24.5t123 -83.5l64 119h39v-387h-54q-35 158 -109 234.5t-192 76.5 q-109 0 -181.5 -69.5t-72.5 -172.5q0 -114 113 -182q40 -26 196 -109q168 -86 232 -135q131 -96 131 -276q0 -173 -116 -284t-298 -111q-97 0 -176.5 29t-157.5 93l-75 -137h-39z" />
<glyph unicode="T" horiz-adv-x="1110" d="M37 1038l57 328h918l59 -328h-53q-41 154 -93.5 208t-160.5 54h-115v-1112q0 -85 28.5 -108t141.5 -31v-55q-169 14 -268 14t-268 -14v55q113 8 141.5 31t28.5 108v1112h-99q-112 0 -165 -52.5t-97 -209.5h-55z" />
<glyph unicode="U" horiz-adv-x="1374" d="M51 1317v55q175 -14 268 -14q94 0 269 14v-55q-114 -8 -142 -30t-28 -107v-772q0 -93 14 -145.5t49 -92.5q84 -96 254 -96q102 0 181.5 36.5t117.5 100.5q47 78 47 233v736q0 85 -28 107t-142 30v55q148 -8 209 -8q67 0 203 8v-55q-114 -8 -142 -30t-28 -107v-731 q0 -108 -16.5 -174t-57.5 -123q-125 -175 -393 -175q-238 0 -367 144q-54 58 -76 128t-22 183v748q0 85 -28 107t-142 30z" />
<glyph unicode="V" horiz-adv-x="1323" d="M20 1317v55q143 -14 259 -14q115 0 258 14v-55q-77 -6 -108.5 -20.5t-31.5 -43.5q0 -13 21 -71l305 -891l309 874q23 68 23 88q0 32 -28.5 46t-106.5 18v55q100 -10 186 -10q87 0 197 10v-55q-80 -8 -120.5 -33t-60.5 -82l-352 -979q-24 -62 -88 -250h-51 q-15 42 -33.5 94t-38.5 107q-15 45 -18 53l-334 949q-31 83 -64.5 108t-122.5 33z" />
<glyph unicode="W" horiz-adv-x="1816" d="M37 1317v55q140 -14 250 -14t250 14v-55q-80 -8 -109 -22t-29 -46q0 -12 15 -63l219 -805l319 1020h47l310 -1022l227 799q14 57 14 75q0 32 -27 46t-102 18v55q100 -10 183 -10q82 0 182 10v-55q-81 -4 -115.5 -28.5t-54.5 -90.5l-287 -985q-27 -95 -49 -188 q-10 -38 -14 -50h-41q-1 5 -7 29.5t-10 36.5q-15 57 -41 143l-258 873l-262 -854l-35 -113q-2 -7 -5 -19.5t-9 -36t-16 -61.5h-41q-15 55 -29 113q-12 50 -20 80.5t-9 34.5l-276 983q-22 74 -56.5 101.5t-113.5 31.5z" />
<glyph unicode="X" horiz-adv-x="1292" d="M25 -6v55q83 3 135 36t108 118l299 465l-278 518q-37 73 -76.5 98t-128.5 33v55q153 -14 264 -14q113 0 266 14v-55q-83 -6 -110 -17.5t-27 -39.5q0 -16 23 -64l186 -348l207 321q30 46 37.5 62t7.5 31q0 29 -25.5 39.5t-101.5 15.5v55q105 -10 203 -10q95 0 200 10v-55 q-88 -6 -130.5 -28.5t-82.5 -84.5l-276 -428l309 -577q50 -92 89.5 -119t136.5 -31v-55q-161 14 -275 14q-111 0 -272 -14v55q88 8 113.5 18.5t25.5 41.5q0 24 -37 94l-211 393l-258 -406q-26 -40 -32.5 -55.5t-6.5 -30.5q0 -29 24.5 -40t102.5 -15v-55q-117 8 -205 8 q-87 0 -204 -8z" />
<glyph unicode="Y" horiz-adv-x="1226" d="M29 1317v55q155 -14 262 -14t262 14v-55q-81 -4 -111 -17t-30 -43q0 -22 22 -65l254 -504l250 504q23 44 23 70q0 28 -28.5 39t-107.5 16v55q108 -10 191 -10q82 0 190 10v-55q-85 -9 -119.5 -30.5t-66.5 -84.5l-305 -608v-406q0 -85 28.5 -108t141.5 -31v-55 q-175 14 -269 14q-93 0 -268 -14v55q113 8 141.5 31t28.5 108v406l-295 590q-37 75 -74.5 101t-119.5 32z" />
<glyph unicode="Z" horiz-adv-x="1120" d="M61 0l730 1300h-310q-120 0 -180.5 -53.5t-101.5 -195.5h-58l58 315h845l-729 -1300h371q98 0 144 19.5t88 80.5q48 69 88 184h53l-62 -350h-936z" />
<glyph unicode="[" horiz-adv-x="647" d="M221 -397v1763h371v-61h-213v-1641h213v-61h-371z" />
<glyph unicode="\" horiz-adv-x="845" d="M20 1366h127l875 -1763h-125z" />
<glyph unicode="]" horiz-adv-x="647" d="M57 -336h213v1641h-213v61h371v-1763h-371v61z" />
<glyph unicode="^" horiz-adv-x="1024" d="M-51 586l567 848h12l545 -848h-78l-413 639l-428 -639h-205z" />
<glyph unicode="_" horiz-adv-x="1024" d="M47 -180h932v-88h-932v88z" />
<glyph unicode="`" horiz-adv-x="1024" d="M188 1425h265l184 -299h-92z" />
<glyph unicode="a" horiz-adv-x="972" d="M74 246q0 93 57 161.5t174 118.5q146 57 307 76v125q0 58 -7 90t-25 55q-43 56 -134 56q-69 0 -115 -32t-46 -79q0 -19 2 -29q2 -12 2 -30q0 -94 -88 -94q-76 0 -76 75q0 100 101.5 173t242.5 73q93 0 168 -33.5t115 -93.5q26 -36 36.5 -89.5t10.5 -143.5v-404 q0 -99 17 -136.5t61 -37.5q17 0 53 8v-55q-80 -14 -123 -14q-80 0 -120 41t-50 135q-54 -99 -116.5 -139.5t-160.5 -40.5q-127 0 -206.5 73.5t-79.5 190.5zM262 264q0 -88 43.5 -138t118.5 -50q128 0 170 123q18 55 18 168v182q-187 -35 -268.5 -101.5t-81.5 -183.5z" />
<glyph unicode="b" horiz-adv-x="1060" d="M23 1294v39q176 15 329 60v-551q60 83 112 113t134 30q170 0 278.5 -140.5t108.5 -361.5q0 -220 -112 -360.5t-289 -140.5q-185 0 -265 176l-100 -181h-51v1192q0 36 -3 56t-10 35t-25 21.5t-41 9t-66 3.5zM350 479q0 -223 53.5 -331.5t163.5 -108.5q226 0 226 453 q0 436 -218 436q-225 0 -225 -449z" />
<glyph unicode="c" horiz-adv-x="905" d="M84 477q0 229 115.5 372.5t298.5 143.5q68 0 117 -20.5t98 -69.5l57 107h37v-348h-49q-18 98 -47 151q-29 57 -80 90t-109 33q-115 0 -177 -118t-62 -337q0 -432 233 -432q189 0 227 266h84q-22 -165 -107.5 -251.5t-227.5 -86.5q-183 0 -295.5 138t-112.5 362z" />
<glyph unicode="d" horiz-adv-x="1064" d="M78 475q0 218 108 359t275 141q79 0 129 -30t110 -114v338q0 45 -4 67t-21 36t-42.5 17.5t-77.5 4.5v39q174 14 330 60v-1182q0 -33 1.5 -53t7.5 -36.5t14.5 -24.5t27.5 -13.5t41 -7t59 -2.5v-41q-108 -12 -158.5 -22.5t-127.5 -35.5q-22 89 -29 158q-44 -84 -104.5 -123 t-147.5 -39q-172 0 -281.5 141.5t-109.5 362.5zM270 477q0 -448 219 -448q213 0 213 432q0 457 -221 457q-211 0 -211 -441z" />
<glyph unicode="e" horiz-adv-x="948" d="M78 479q0 235 111 374.5t298 139.5q184 0 281 -124.5t102 -366.5h-604q1 -241 63.5 -348t202.5 -107q106 0 172.5 68t86.5 196h79q-20 -159 -116.5 -247.5t-249.5 -88.5q-200 0 -313 134t-113 370zM270 575h414q-7 187 -56 276t-143 89q-191 0 -215 -365z" />
<glyph unicode="f" horiz-adv-x="620" d="M53 -6v45q96 5 122 24.5t26 88.5v739h-144v65q103 3 128.5 24t29.5 107q6 93 18 136t43 80q37 46 96 71t128 25q94 0 153.5 -45t59.5 -115q0 -40 -21 -61t-59 -21q-35 0 -56.5 17.5t-21.5 46.5l2 28q4 16 4 35q0 28 -16.5 45t-42.5 17q-33 0 -61 -22.5t-42 -59.5 q-14 -47 -14 -148v-149h233v-76h-233v-739q0 -69 26 -88.5t121 -24.5v-45q-136 12 -239 12q-104 0 -240 -12z" />
<glyph unicode="g" horiz-adv-x="1013" d="M59 -133q0 77 44 128.5t141 86.5q-58 28 -81.5 56t-23.5 69q0 119 215 172q-110 35 -168.5 111t-58.5 182q0 146 98 229.5t267 83.5q123 0 213 -53h274v-88l-191 6q50 -79 50 -174q0 -175 -148 -260q-34 -21 -73 -33.5t-144 -36.5q-124 -26 -162.5 -45t-38.5 -53 q0 -25 13.5 -36.5t51 -18t124.5 -11.5q132 -9 194 -18.5t117 -28.5q76 -28 122 -90t46 -137q0 -141 -126 -229.5t-327 -88.5q-195 0 -311.5 75.5t-116.5 201.5zM147 -143q0 -86 94.5 -142.5t239.5 -56.5q146 0 231 51t85 139q0 84 -90.5 128t-262.5 44q-142 0 -219.5 -42.5 t-77.5 -120.5zM299 676q0 -126 47.5 -193t136.5 -67q88 0 135.5 68t47.5 194q0 124 -46 189t-133 65q-89 0 -138.5 -67t-49.5 -189z" />
<glyph unicode="h" horiz-adv-x="1128" d="M43 -6v45q95 5 121 24.5t26 88.5v1015q0 46 -3.5 68t-20.5 36.5t-42.5 18t-78.5 4.5v39q168 13 332 60v-539q98 131 260 131q83 0 150.5 -34.5t107.5 -96.5q45 -71 45 -215v-487q0 -69 26 -88.5t121 -24.5v-45q-122 12 -231 12q-111 0 -229 -12v43q75 3 101 25t26 85v504 q0 126 -41 182t-133 56q-109 0 -168 -84q-35 -52 -35 -160v-498q0 -63 25 -85t100 -25v-43q-118 12 -228 12q-109 0 -231 -12z" />
<glyph unicode="i" horiz-adv-x="589" d="M59 -6v45q96 5 122 24.5t26 88.5v616q0 34 -1 53.5t-7.5 36.5t-14.5 24.5t-26.5 13.5t-39 7t-57.5 2v39q177 16 332 60v-852q0 -69 26 -88.5t122 -24.5v-45q-136 12 -242 12q-104 0 -240 -12zM172 1253q0 51 35 86t86 35t86 -35t35 -86q0 -52 -35 -86t-86 -34t-86 35 t-35 85z" />
<glyph unicode="j" horiz-adv-x="573" d="M-39 -354q87 11 145 53q53 35 73 87t20 153v835q0 88 -23 109t-123 22v39q183 17 332 60v-975q0 -144 -38 -233t-122 -140q-52 -32 -118.5 -51t-126.5 -19h-19v60zM164 1253q0 51 35 86t86 35t86 -35t35 -86t-35 -85.5t-86 -34.5t-86 35t-35 85z" />
<glyph unicode="k" horiz-adv-x="1114" d="M43 -6v45q95 5 121 24.5t26 88.5v1015q0 46 -3.5 68t-20.5 36.5t-42.5 18t-78.5 4.5v39q169 15 328 60v-916l313 336q37 40 37 66q0 23 -26 34.5t-89 14.5v45q102 -10 201 -10q100 0 215 10v-45q-77 -6 -116.5 -25.5t-94.5 -75.5l-186 -198l282 -471q43 -70 77.5 -92 t109.5 -27v-45q-99 8 -152 8t-141 -8l-293 524l-139 -143v-223q0 -69 26 -88.5t121 -24.5v-45q-131 12 -237 12q-107 0 -238 -12z" />
<glyph unicode="l" horiz-adv-x="575" d="M53 -6v45q96 5 122 24.5t26 88.5v1011q0 88 -23 109t-123 22v39q179 16 332 60v-1241q0 -69 26 -88.5t122 -24.5v-45q-136 12 -242 12q-104 0 -240 -12z" />
<glyph unicode="m" horiz-adv-x="1654" d="M57 -6v45q97 4 122.5 24t25.5 89v616q-2 65 -4.5 83t-12.5 30q-14 11 -39 14.5t-92 3.5v41q182 23 287 59q22 -89 25 -172q57 85 121 121.5t153 36.5q94 0 154.5 -38.5t97.5 -121.5q57 87 121.5 123.5t161.5 36.5q146 0 215 -77t69 -240v-516q0 -69 26.5 -88.5 t123.5 -24.5v-45q-122 12 -232 12q-111 0 -229 -12v43q76 3 101.5 25t25.5 85v527q0 117 -36.5 165t-125.5 48q-190 0 -190 -228v-512q0 -63 25.5 -85t101.5 -25v-43q-118 12 -219 12q-102 0 -220 -12v43q76 3 101.5 25t25.5 85v525q0 110 -28 153q-43 62 -129 62 q-52 0 -96.5 -24t-69.5 -64q-29 -54 -29 -158v-494q0 -63 26 -85t103 -25v-43q-118 12 -229 12q-110 0 -232 -12z" />
<glyph unicode="n" horiz-adv-x="1144" d="M59 -6v45q96 5 122 24.5t26 88.5v616q-2 66 -4.5 83t-12.5 30q-12 11 -38.5 14.5t-92.5 3.5v41q176 20 287 59q18 -57 27 -176q57 85 123.5 123.5t156.5 38.5q83 0 150.5 -34.5t105.5 -96.5q47 -70 47 -215v-487q0 -69 26 -88.5t122 -24.5v-45q-122 12 -232 12 q-111 0 -229 -12v43q75 3 101 25t26 85v504q0 121 -31 168q-48 70 -143 70q-109 0 -168 -84q-20 -29 -27.5 -63.5t-7.5 -96.5v-498q0 -63 25 -85t100 -25v-43q-118 12 -227 12q-110 0 -232 -12z" />
<glyph unicode="o" horiz-adv-x="974" d="M78 483q0 223 117.5 366.5t300.5 143.5q180 0 290.5 -141.5t110.5 -370.5q0 -218 -116.5 -361t-293.5 -143q-181 0 -295 141.5t-114 364.5zM270 483q0 -452 215 -452q220 0 220 448q0 461 -213 461q-109 0 -165.5 -116.5t-56.5 -340.5z" />
<glyph unicode="p" horiz-adv-x="1081" d="M39 -365q96 4 121.5 24t25.5 89v1030q0 78 -21.5 102t-96.5 27h-29v41q159 11 285 41q18 -56 28 -166q49 86 109.5 124t146.5 38q172 0 284 -142t112 -360q0 -221 -108.5 -361t-279.5 -140q-80 0 -138 34t-105 109v-377q0 -69 25.5 -89t121.5 -24v-45q-147 13 -241 13 q-93 0 -240 -13v45zM371 498q0 -459 225 -459q215 0 215 438q0 223 -56.5 337t-166.5 114q-217 0 -217 -430z" />
<glyph unicode="q" d="M80 483q0 220 112 361t285 141q86 0 147 -38.5t107 -123.5q11 101 29 166q118 -28 280 -41v-41h-24q-57 -1 -76 -7.5t-31 -27.5q-16 -37 -16 -94v-1030q0 -69 25.5 -89t121.5 -24v-45q-138 13 -235 13q-98 0 -240 -13v45q95 4 120.5 24t25.5 89v377q-87 -143 -244 -143 q-170 0 -278.5 140t-108.5 361zM272 477q0 -438 215 -438q226 0 226 448q0 223 -53.5 332t-163.5 109q-109 0 -166.5 -115t-57.5 -336z" />
<glyph unicode="r" horiz-adv-x="798" d="M57 -6v45q96 5 122 24.5t26 88.5v622v55.5t-6.5 36.5t-12 24.5t-26.5 11.5t-40 6t-61 1v41q163 11 283 47q18 -107 20 -188q38 89 101 136.5t141 47.5q80 0 131 -49t51 -125q0 -46 -24.5 -73t-65.5 -27q-37 0 -61.5 19.5t-24.5 49.5q0 17 2 25q6 29 6 39q0 23 -16.5 37 t-42.5 14q-78 0 -124 -83.5t-46 -227.5v-440q0 -69 26 -88.5t122 -24.5v-45q-136 12 -240 12t-240 -12z" />
<glyph unicode="s" horiz-adv-x="884" d="M111 -27v349h49q12 -75 43 -142q29 -61 88 -97t129 -36q86 0 145.5 51.5t59.5 126.5q0 46 -25.5 79.5t-89.5 68.5q-66 31 -195 92q-110 54 -152 108t-42 142q0 120 88.5 196t226.5 76q114 0 215 -69l37 90h37v-324h-49q-15 124 -67.5 183t-147.5 59q-80 0 -135.5 -47.5 t-55.5 -114.5q0 -46 26 -78t93 -65q9 -4 20 -9.5t25.5 -12t52.5 -24t84 -38.5q116 -53 163.5 -111t47.5 -147q0 -129 -93.5 -213t-239.5 -84q-137 0 -250 88l-52 -97h-36z" />
<glyph unicode="t" horiz-adv-x="647" d="M57 891v65q100 1 165 79t93 227h60l-2 -295h229v-76h-231v-598q0 -128 18 -168q26 -59 98 -59q31 0 54 8t82 39v-64q-69 -40 -111.5 -53.5t-97.5 -13.5q-158 0 -211 116q-27 62 -27 183v32l10 578h-129z" />
<glyph unicode="u" horiz-adv-x="1126" d="M31 905v39q180 16 329 60v-689q0 -127 41.5 -182t135.5 -55q117 0 172 92q30 55 30 168v442q0 84 -23.5 104.5t-121.5 20.5v39q176 15 330 60v-828q0 -45 9 -65t34 -27q23 -6 110 -8v-43q-175 -15 -297 -58q-13 69 -16 187q-51 -94 -118 -136t-167 -42q-172 0 -254 120 q-49 71 -49 218v458q0 83 -24 104t-121 21z" />
<glyph unicode="v" horiz-adv-x="1007" d="M2 928v45q150 -12 229 -12q97 0 222 12v-45q-68 -3 -89.5 -11.5t-21.5 -33.5q0 -13 14 -52l207 -591l217 587q17 50 17 60q0 22 -19.5 30t-83.5 11v45q131 -8 160 -8t154 8v-45q-70 -3 -99.5 -22.5t-52.5 -76.5l-240 -630q-12 -36 -20 -52q-23 -58 -66 -174h-53 q-33 91 -59 160q-7 16 -21 53l-245 650q-22 55 -49 72t-101 20z" />
<glyph unicode="w" horiz-adv-x="1470" d="M16 928v45q127 -10 220 -10q90 0 217 10v-45q-65 -3 -90 -13.5t-25 -33.5q0 -13 14 -58l172 -549l250 719h55l240 -723l174 555q12 42 12 56q0 26 -21.5 35t-88.5 12v45q104 -8 164 -8q63 0 151 8v-45q-67 -4 -98.5 -27t-50.5 -80l-221 -671q-9 -31 -29 -95.5t-25 -81.5 h-53l-27 93l-24 71l-187 582l-204 -576q-44 -128 -54 -170h-53q-17 56 -28.5 94.5t-17.5 59t-7 23.5l-219 669q-22 66 -48.5 86t-97.5 23z" />
<glyph unicode="x" horiz-adv-x="1058" d="M33 -6v45q67 4 105.5 29.5t88.5 97.5l219 303l-215 371q-28 48 -64 67.5t-101 20.5v45q132 -10 227 -10q97 0 219 10v-45q-52 -3 -72 -12t-20 -29q0 -15 20 -51l123 -213l152 208q26 37 26 58q0 20 -21.5 29t-78.5 10v45q104 -8 166 -8t166 8v-45q-69 -5 -104 -23 t-70 -67l-201 -273l242 -413q40 -68 75.5 -90t110.5 -23v-45q-127 12 -238 12q-109 0 -229 -12v45q57 1 80 11t23 32q0 12 -23 57l-158 271l-184 -258q-26 -34 -31.5 -45t-5.5 -23q0 -23 21.5 -32.5t83.5 -12.5v-45q-131 8 -166 8q-49 0 -166 -8z" />
<glyph unicode="y" horiz-adv-x="1038" d="M25 928v45q120 -10 221 -10q98 0 221 10v-45q-64 -5 -86.5 -13.5t-22.5 -29.5q0 -8 17 -58l205 -565l217 557q18 48 18 62q0 26 -24 35.5t-91 11.5v45q84 -8 154 -8q67 0 174 8v-45q-65 -6 -100.5 -31t-57.5 -80l-389 -985q-47 -121 -121.5 -178t-185.5 -57q-19 0 -35 2 v106q14 -2 31 -2q91 0 150.5 41t99.5 133l65 154l-303 792q-25 61 -55.5 81.5t-101.5 23.5z" />
<glyph unicode="z" horiz-adv-x="923" d="M66 0l542 911h-205q-101 0 -144.5 -39t-100.5 -180h-47l49 275h692l-545 -912h219q80 0 120 21t77 82q39 57 68 147h47l-56 -305h-716z" />
<glyph unicode="{" horiz-adv-x="647" d="M123 508q76 29 102.5 64.5t26.5 109.5v479q0 132 55.5 185t194.5 53h47q-75 -19 -108 -63.5t-33 -127.5v-485q0 -91 -25.5 -133t-103.5 -82q78 -41 103.5 -83.5t25.5 -131.5v-535q0 -82 33 -126t108 -64h-47q-138 0 -194 52.5t-56 184.5v527q0 75 -26.5 111t-102.5 65z " />
<glyph unicode="|" horiz-adv-x="1024" d="M457 -342v1708h110v-1708h-110z" />
<glyph unicode="}" horiz-adv-x="647" d="M98 -432q75 20 108.5 64.5t33.5 125.5v535q0 89 25.5 131.5t103.5 83.5q-78 40 -103.5 82t-25.5 133v485q0 83 -33.5 127.5t-108.5 63.5h47q139 0 194.5 -53t55.5 -185v-479q0 -74 26.5 -109.5t102.5 -64.5q-76 -29 -102.5 -65t-26.5 -111v-527q0 -132 -56 -184.5 t-194 -52.5h-47z" />
<glyph unicode="~" horiz-adv-x="1366" d="M252 1274q58 96 131.5 147.5t151.5 51.5q57 0 184 -46q107 -36 164 -36q113 0 200 112l29 -18q-50 -88 -126.5 -142.5t-151.5 -54.5q-31 0 -55 6t-136 43q-117 37 -176 37q-54 0 -87.5 -21.5t-98.5 -97.5z" />
<glyph unicode="&#xa1;" horiz-adv-x="524" d="M131 854q0 55 37.5 93t91.5 38t92.5 -37.5t38.5 -91.5q0 -56 -37.5 -93.5t-93.5 -37.5q-54 0 -91.5 38t-37.5 91zM158 -377l47 924h110l50 -924h-207z" />
<glyph unicode="&#xa2;" d="M162 682q0 217 107 354t288 150v157h66v-161q93 -11 163 -84l58 104h37v-344h-50q-43 245 -208 268v-872q78 10 131 80.5t65 179.5h80q-13 -136 -86 -223t-190 -107v-164h-66v160q-180 10 -287.5 147t-107.5 355zM354 690q0 -213 48 -316t155 -122v872 q-104 -20 -153.5 -125t-49.5 -309z" />
<glyph unicode="&#xa3;" d="M96 0q46 57 69.5 134t45.5 241l33 287h-148v77h158l20 160q29 235 141.5 362.5t289.5 127.5q240 0 264 -275h-82q-14 105 -54 152t-116 47q-64 0 -118.5 -38t-86.5 -106q-32 -65 -53 -233l-25 -197h266v-77h-276l-27 -209q-34 -235 -157 -375q88 37 131 49t96 12 q44 0 139 -18q75 -17 123 -17q73 0 116.5 49.5t65.5 157.5h72q-20 -173 -92.5 -242t-233.5 -69h-561z" />
<glyph unicode="&#xa4;" horiz-adv-x="1366" d="M113 1192l80 80l192 -193q77 56 146.5 80.5t150.5 24.5q82 0 150.5 -24.5t142.5 -80.5l194 191l80 -78l-192 -193q104 -138 104 -292q0 -79 -24 -147.5t-78 -141.5l192 -195l-80 -80l-192 193q-137 -105 -293 -105q-79 0 -149 24.5t-148 80.5l-192 -193l-78 80l188 193 q-104 134 -104 293q0 153 104 288zM334 707q0 -145 101.5 -247t246.5 -102t246.5 102t101.5 247q0 144 -101.5 247t-242.5 103q-148 0 -250 -101t-102 -249z" />
<glyph unicode="&#xa5;" d="M35 1317v55q148 -14 241 -14q94 0 242 14v-55q-73 -6 -101 -19t-28 -41q0 -13 19 -63l190 -500l199 498q20 44 20 72q0 26 -25 36.5t-98 16.5v55q108 -10 176 -10q70 0 177 10v-55q-77 -9 -112.5 -33t-60.5 -82l-120 -303h213v-76h-244l-61 -153h305v-76h-336v-408 q0 -85 28 -107t142 -30v-55q-175 14 -266 14q-94 0 -269 -14v55q114 8 142 30t28 107v408h-336v76h310l-60 153h-250v76h219l-110 285q-29 71 -66.5 100t-107.5 33z" />
<glyph unicode="&#xa6;" horiz-adv-x="1024" d="M457 313h110v-655h-110v655zM457 680v686h110v-686h-110z" />
<glyph unicode="&#xa7;" d="M150 592q0 93 52.5 152.5t164.5 91.5q-106 72 -143.5 125t-37.5 131q0 129 98.5 213t250.5 84q166 0 262 -90t102 -250h-74q-10 120 -76 184.5t-176 64.5q-95 0 -157 -50t-62 -128q0 -58 33 -98.5t119 -87.5l244 -137q97 -56 138.5 -115.5t41.5 -144.5q0 -89 -47 -152.5 t-150 -114.5q96 -60 136 -119t40 -139q0 -138 -105.5 -226.5t-268.5 -88.5q-169 0 -270.5 90.5t-110.5 251.5h75q35 -258 281 -258q104 0 168.5 56t64.5 145q0 59 -31.5 101.5t-107.5 86.5l-287 166q-88 51 -127.5 112t-39.5 144zM264 633q0 -50 28 -86t97 -76l281 -166 q80 37 114.5 78.5t34.5 101.5q0 50 -29.5 87t-99.5 77l-252 146q-92 -23 -133 -61.5t-41 -100.5z" />
<glyph unicode="&#xa8;" horiz-adv-x="1024" d="M205 1274q0 50 34 83.5t85 33.5q47 0 80.5 -34.5t33.5 -82.5q0 -50 -33.5 -83.5t-82.5 -33.5q-47 0 -82 35t-35 82zM590 1274q0 50 34 83.5t85 33.5q47 0 80.5 -34.5t33.5 -82.5q0 -47 -34.5 -82t-81.5 -35t-82 35t-35 82z" />
<glyph unicode="&#xa9;" horiz-adv-x="1593" d="M82 684q0 143 56 273.5t150 225t225 150.5t275 56q191 0 353.5 -94.5t257 -257t94.5 -353.5q0 -146 -56 -277t-151 -225t-227.5 -149.5t-280.5 -55.5q-187 0 -347.5 95.5t-254.5 258.5t-94 353zM156 684q0 -170 84 -316t228 -231.5t312 -85.5q176 0 323 84t231.5 229.5 t84.5 319.5q0 128 -50 245t-134.5 201.5t-201.5 134.5t-245 50q-172 0 -317.5 -84.5t-230 -230t-84.5 -316.5zM451 702q0 192 97.5 308t260.5 116q124 0 203 -73l43 71h32v-258h-40q-26 106 -80 156.5t-142 50.5q-235 0 -235 -364q0 -177 60 -269t175 -92q97 0 154 60.5 t63 169.5h58q-6 -143 -84 -223.5t-211 -80.5q-161 0 -257.5 116.5t-96.5 311.5z" />
<glyph unicode="&#xaa;" horiz-adv-x="720" d="M53 575v76h635v-76h-635zM94 928q0 178 342 227v72q0 64 -22.5 91.5t-75.5 27.5q-43 0 -70.5 -18t-27.5 -46v-16q2 -10 2 -21q0 -63 -62 -63q-53 0 -53 51q0 66 65.5 113t157.5 47q60 0 109.5 -21.5t75.5 -58.5q30 -43 30 -150v-250q0 -58 9 -79t34 -21q9 0 39 6v-47 q-46 -10 -82 -10q-49 0 -75 22.5t-35 73.5q-56 -98 -172 -98q-83 0 -136 47t-53 121zM225 940q0 -52 26 -81.5t71 -29.5q61 0 87.5 41t26.5 134v106q-109 -20 -160 -60.5t-51 -109.5z" />
<glyph unicode="&#xab;" horiz-adv-x="841" d="M104 489l261 478h61l-166 -478l166 -489h-61zM401 489l261 478h61l-166 -478l166 -489h-61z" />
<glyph unicode="&#xac;" horiz-adv-x="1024" d="M74 463v84h878v-547h-192v463h-686z" />
<glyph unicode="&#xad;" horiz-adv-x="530" d="M0 494v96h530v-96h-530z" />
<glyph unicode="&#xae;" horiz-adv-x="1593" d="M104 684q0 191 94.5 353.5t257.5 257t355 94.5q191 0 353.5 -94.5t257 -257t94.5 -353.5q0 -146 -56 -277t-151 -225t-227.5 -149.5t-280.5 -55.5q-187 0 -348 95.5t-255 258.5t-94 353zM178 684q0 -170 84.5 -316t228.5 -231.5t312 -85.5q175 0 322 84t232 229.5 t85 319.5q0 171 -85 316.5t-230.5 230t-315.5 84.5q-129 0 -246 -50t-202 -134.5t-135 -201.5t-50 -245zM463 270v45q70 3 87 15.5t17 60.5v584q0 48 -17 60.5t-87 15.5v43h354q121 0 184 -39q45 -28 72 -78t27 -105q0 -57 -28.5 -104t-78.5 -72q-39 -15 -84 -26 q34 -13 53 -34t44 -71l81 -180q22 -44 40 -56.5t65 -13.5v-43q-45 2 -94 2q-35 0 -92 -2q-6 12 -12 23.5t-11.5 22.5t-13.5 30l-97 213q-25 57 -51.5 75.5t-83.5 18.5h-39v-264q0 -47 17.5 -59t89.5 -17v-45q-107 11 -170 11q-62 0 -172 -11zM700 705h93q174 0 174 172 q0 167 -166 167h-101v-339z" />
<glyph unicode="&#xaf;" horiz-adv-x="1024" d="M190 1210v109h644v-109h-644z" />
<glyph unicode="&#xb0;" horiz-adv-x="1024" d="M221 1114q0 114 85.5 196.5t205.5 82.5q122 0 206.5 -82.5t84.5 -200.5t-85.5 -201.5t-205.5 -83.5q-122 0 -206.5 84t-84.5 205zM322 1112q0 -80 55.5 -135t136.5 -55q78 0 134.5 55t56.5 131q0 78 -56.5 133t-136.5 55q-78 0 -134 -54.5t-56 -129.5z" />
<glyph unicode="&#xb1;" d="M106 43v133h867v-133h-867zM106 623v133h365v360h137v-360h365v-133h-365v-338h-137v338h-365z" />
<glyph unicode="&#xb2;" horiz-adv-x="702" d="M90 532v89q191 203 277 326.5t86 193.5q0 53 -36 86t-93 33q-69 0 -109 -39.5t-55 -122.5h-58q7 69 20 105.5t38 66.5q68 78 194 78q101 0 167.5 -54t66.5 -137q0 -59 -35 -122t-125 -165q-84 -94 -211 -229h383l-16 -109h-494z" />
<glyph unicode="&#xb3;" horiz-adv-x="702" d="M80 768h55q11 -86 50.5 -125t117.5 -39q80 0 127 44.5t47 119.5q0 83 -50.5 122.5t-156.5 39.5h-22v55h22q86 0 130 37t44 108q0 63 -35 99.5t-96 36.5q-66 0 -103 -34.5t-56 -111.5h-52q21 228 242 228q103 0 166 -55t63 -144q0 -131 -139 -182q174 -47 174 -203 q0 -104 -78 -173t-198 -69t-185 63.5t-67 182.5z" />
<glyph unicode="&#xb4;" horiz-adv-x="1024" d="M438 1126l183 299h266l-359 -299h-90z" />
<glyph unicode="&#xb6;" d="M78 1022q0 106 42.5 183.5t121.5 115.5q90 45 295 45h479v-55q-114 -8 -142 -30t-28 -107v-1264q0 -85 28 -108.5t142 -30.5v-56q-218 17 -389 17q-169 0 -387 -17v56q41 3 65.5 5.5t45.5 9.5t31 15t17.5 24.5t9 35t1.5 49.5v747q-163 23 -247.5 116t-84.5 249zM535 -66 q0 -88 17.5 -112.5t78.5 -24.5q59 0 74.5 24t15.5 113v1225q0 91 -15.5 115t-74.5 24q-61 0 -78.5 -24.5t-17.5 -112.5v-1227z" />
<glyph unicode="&#xb7;" horiz-adv-x="485" d="M117 502q0 54 37.5 90.5t91.5 36.5q52 0 88.5 -37t36.5 -90q0 -52 -37.5 -89.5t-89.5 -37.5t-89.5 37.5t-37.5 89.5z" />
<glyph unicode="&#xb8;" horiz-adv-x="1024" d="M356 -313q69 -19 107 -19q45 0 71.5 23t26.5 63q0 43 -35 63t-114 23l88 160h90l-62 -117q88 -8 130 -41.5t42 -97.5q0 -69 -51 -111.5t-135 -42.5q-77 0 -158 33v64z" />
<glyph unicode="&#xb9;" horiz-adv-x="704" d="M154 1192v43q82 4 141 40t82 95h47v-721q0 -48 16.5 -60t89.5 -16v-45q-105 9 -170 9t-170 -9v45q72 4 88.5 16.5t16.5 59.5v543h-141z" />
<glyph unicode="&#xba;" horiz-adv-x="720" d="M43 575v76h635v-76h-635zM94 1075q0 138 76.5 228t194.5 90q117 0 189.5 -88.5t72.5 -231.5q0 -135 -76 -224t-191 -89q-117 0 -191.5 88.5t-74.5 226.5zM229 1075q0 -270 131 -270q132 0 132 266q0 277 -130 277q-65 0 -99 -70t-34 -203z" />
<glyph unicode="&#xbb;" horiz-adv-x="841" d="M119 0l166 489l-166 478h61l260 -478l-260 -489h-61zM416 0l164 489l-164 478h61l260 -478l-260 -489h-61z" />
<glyph unicode="&#xbc;" horiz-adv-x="1513" d="M154 1192v43q82 4 141 40t82 95h47v-721q0 -47 17 -59t89 -17v-45q-99 11 -172 11q-72 0 -168 -11v45q71 5 88 17t17 59v543h-141zM322 0l780 1335h90l-780 -1335h-90zM854 205l344 618h131v-520h141v-98h-141v-221h-131v221h-344zM973 303h227v420z" />
<glyph unicode="&#xbd;" horiz-adv-x="1513" d="M154 1192v43q82 4 141 40t82 95h47v-721q0 -47 17 -59t89 -17v-45q-99 11 -172 11q-72 0 -168 -11v45q71 5 88 17t17 59v543h-141zM322 0l780 1335h90l-780 -1335h-90zM901 0v88q193 205 278 326t85 192q0 53 -36 86t-93 33q-69 0 -109 -39.5t-55 -122.5h-58 q7 69 20 105.5t38 66.5q68 78 194 78q102 0 168 -54t66 -138q0 -58 -35 -120.5t-125 -162.5q-38 -47 -211 -229h383l-16 -109h-494z" />
<glyph unicode="&#xbe;" horiz-adv-x="1513" d="M80 770h55q10 -88 50 -127t118 -39q80 0 127 45t47 121q0 83 -50 122.5t-155 39.5h-24v55h26h2q21 -3 56.5 6t54.5 21q57 39 57 119q0 62 -35 97.5t-96 35.5q-64 0 -102 -35.5t-55 -110.5h-54q21 228 242 228q103 0 166 -55t63 -144q0 -64 -32.5 -106.5t-104.5 -73.5 q90 -26 132 -75.5t42 -127.5q0 -106 -78 -175t-198 -69q-121 0 -186.5 64t-67.5 184zM322 0l782 1335h90l-782 -1335h-90zM856 205l344 618h131v-520h142v-98h-142v-221h-131v221h-344zM975 303h227v420z" />
<glyph unicode="&#xbf;" horiz-adv-x="804" d="M49 -94q0 93 42 160.5t151 152.5q103 80 142.5 145.5t39.5 157.5q0 23 -2 39h88q6 -67 6 -98q0 -107 -29.5 -167.5t-138.5 -172.5q-63 -66 -87.5 -113.5t-24.5 -101.5q0 -78 50 -126t132 -48q105 0 169 62t77 177h59q1 -88 -17.5 -146.5t-62.5 -109.5 q-103 -112 -281 -112q-139 0 -226 83.5t-87 217.5zM317 856q0 54 37.5 91.5t91.5 37.5t93 -37.5t39 -91.5q0 -55 -38 -93t-94 -38q-54 0 -91.5 38.5t-37.5 92.5z" />
<glyph unicode="&#xc0;" horiz-adv-x="1333" d="M20 -6v55q96 6 132.5 34t74.5 124l463 1204l428 -1235q28 -74 63 -97t132 -30v-55q-155 14 -262 14q-110 0 -265 -14v55q78 6 107 19t29 41q0 26 -15 71l-65 209h-471l-66 -182q-24 -71 -24 -94q0 -33 28 -46.5t109 -17.5v-55q-112 10 -199 10t-199 -10zM281 1759h288 l240 -276h-102zM395 459h424l-194 606z" />
<glyph unicode="&#xc1;" horiz-adv-x="1333" d="M20 -6v55q96 6 132.5 34t74.5 124l463 1204l428 -1235q28 -74 63 -97t132 -30v-55q-155 14 -262 14q-110 0 -265 -14v55q78 6 107 19t29 41q0 26 -15 71l-65 209h-471l-66 -182q-24 -71 -24 -94q0 -33 28 -46.5t109 -17.5v-55q-112 10 -199 10t-199 -10zM395 459h424 l-194 606zM588 1483l239 276h289l-426 -276h-102z" />
<glyph unicode="&#xc2;" horiz-adv-x="1333" d="M20 -6v55q96 6 132.5 34t74.5 124l463 1204l428 -1235q28 -74 63 -97t132 -30v-55q-155 14 -262 14q-110 0 -265 -14v55q78 6 107 19t29 41q0 26 -15 71l-65 209h-471l-66 -182q-24 -71 -24 -94q0 -33 28 -46.5t109 -17.5v-55q-112 10 -199 10t-199 -10zM338 1479 l309 286h92l310 -286h-101l-256 161l-254 -161h-100zM395 459h424l-194 606z" />
<glyph unicode="&#xc3;" horiz-adv-x="1333" d="M20 -6v55q96 6 132.5 34t74.5 124l463 1204l428 -1235q28 -74 63 -97t132 -30v-55q-155 14 -262 14q-110 0 -265 -14v55q78 6 107 19t29 41q0 26 -15 71l-65 209h-471l-66 -182q-24 -71 -24 -94q0 -33 28 -46.5t109 -17.5v-55q-112 10 -199 10t-199 -10zM360 1532 q35 114 81.5 160.5t123.5 46.5q70 0 150 -53q64 -40 86.5 -50t52.5 -10q46 0 72.5 22.5t54.5 82.5l59 -15q-14 -63 -28.5 -94.5t-44.5 -60.5q-63 -60 -138 -60q-41 0 -72.5 13t-105.5 61q-61 39 -106 39q-42 0 -70.5 -22.5t-52.5 -75.5zM395 459h424l-194 606z" />
<glyph unicode="&#xc4;" horiz-adv-x="1333" d="M20 -6v55q96 6 132.5 34t74.5 124l463 1204l428 -1235q28 -74 63 -97t132 -30v-55q-155 14 -262 14q-110 0 -265 -14v55q78 6 107 19t29 41q0 26 -15 71l-65 209h-471l-66 -182q-24 -71 -24 -94q0 -33 28 -46.5t109 -17.5v-55q-112 10 -199 10t-199 -10zM387 1622 q0 52 36 87.5t89 35.5q50 0 85.5 -36t35.5 -87t-36 -87t-87 -36t-87 36t-36 87zM395 459h424l-194 606zM756 1622q0 52 36 87.5t89 35.5q50 0 85 -36t35 -87t-35.5 -87t-86.5 -36t-87 36t-36 87z" />
<glyph unicode="&#xc5;" horiz-adv-x="1333" d="M20 -6v55q96 6 132.5 34t74.5 124l463 1204l428 -1235q28 -74 63 -97t132 -30v-55q-155 14 -262 14q-110 0 -265 -14v55q78 6 107 19t29 41q0 26 -15 71l-65 209h-471l-66 -182q-24 -71 -24 -94q0 -33 28 -46.5t109 -17.5v-55q-112 10 -199 10t-199 -10zM395 459h424 l-194 606zM516 1628q0 72 51.5 123t124.5 51q71 0 121.5 -51t50.5 -123t-51 -123t-123 -51t-123 51t-51 123zM592 1628q0 -40 29 -69t69 -29q41 0 69.5 28.5t28.5 69.5q0 40 -28 69t-68 29q-43 0 -71.5 -28.5t-28.5 -69.5z" />
<glyph unicode="&#xc6;" horiz-adv-x="1853" d="M20 -6v55q90 4 133.5 33.5t96.5 120.5l668 1163h784l41 -319h-51q-38 152 -88 202.5t-162 50.5h-285v-557h279q67 0 89.5 32t30.5 136h56v-405h-56q-5 103 -31.5 137.5t-101.5 34.5h-266v-496q0 -71 26 -93.5t107 -22.5h135q89 0 137 23.5t85 84.5q36 59 67 166h51 l-51 -340h-923v55q61 4 91.5 9.5t50 21.5t24 39.5t4.5 69.5v260h-486l-160 -287q-24 -41 -24 -66q0 -29 27.5 -39.5t111.5 -13.5v-55q-125 10 -205 10t-205 -10zM516 524h445v783z" />
<glyph unicode="&#xc7;" horiz-adv-x="1247" d="M106 676q0 327 152 522t406 195q102 0 179 -30.5t148 -98.5l72 127h39v-420h-51q-43 178 -131 264t-228 86q-203 0 -293 -184q-86 -174 -86 -447q0 -297 97.5 -454.5t281.5 -157.5q157 0 250.5 103t104.5 286h73q-3 -213 -120.5 -347.5t-311.5 -146.5l-49 -90 q93 -6 136.5 -41.5t43.5 -105.5q0 -71 -52.5 -116.5t-135.5 -45.5q-74 0 -166 35v69q64 -20 108 -20q47 0 76 24.5t29 65.5q0 46 -36.5 66t-121.5 22l76 139q-226 28 -358 216.5t-132 484.5z" />
<glyph unicode="&#xc8;" horiz-adv-x="1130" d="M63 0v55q61 4 91.5 9.5t50 22t24 39.5t4.5 69v979q0 85 -28 107t-142 30v55h912l41 -319h-51q-38 152 -88 202.5t-162 50.5h-285v-557h279q66 0 90 34t30 134h56v-405h-56q-5 98 -30.5 135t-89.5 37h-279v-496q0 -69 27 -92.5t106 -23.5h135q122 0 184 59t105 215h51 l-53 -340h-922zM205 1759h289l239 -276h-102z" />
<glyph unicode="&#xc9;" horiz-adv-x="1130" d="M63 0v55q61 4 91.5 9.5t50 22t24 39.5t4.5 69v979q0 85 -28 107t-142 30v55h912l41 -319h-51q-38 152 -88 202.5t-162 50.5h-285v-557h279q66 0 90 34t30 134h56v-405h-56q-5 98 -30.5 135t-89.5 37h-279v-496q0 -69 27 -92.5t106 -23.5h135q122 0 184 59t105 215h51 l-53 -340h-922zM438 1483l240 276h289l-426 -276h-103z" />
<glyph unicode="&#xca;" horiz-adv-x="1130" d="M63 0v55q61 4 91.5 9.5t50 22t24 39.5t4.5 69v979q0 85 -28 107t-142 30v55h912l41 -319h-51q-38 152 -88 202.5t-162 50.5h-285v-557h279q66 0 90 34t30 134h56v-405h-56q-5 98 -30.5 135t-89.5 37h-279v-496q0 -69 27 -92.5t106 -23.5h135q122 0 184 59t105 215h51 l-53 -340h-922zM209 1479l309 286h92l310 -286h-101l-256 161l-254 -161h-100z" />
<glyph unicode="&#xcb;" horiz-adv-x="1130" d="M63 0v55q61 4 91.5 9.5t50 22t24 39.5t4.5 69v979q0 85 -28 107t-142 30v55h912l41 -319h-51q-38 152 -88 202.5t-162 50.5h-285v-557h279q66 0 90 34t30 134h56v-405h-56q-5 98 -30.5 135t-89.5 37h-279v-496q0 -69 27 -92.5t106 -23.5h135q122 0 184 59t105 215h51 l-53 -340h-922zM256 1622q0 52 36 87.5t89 35.5q50 0 85.5 -36t35.5 -87t-36 -87t-87 -36t-87 36t-36 87zM625 1622q0 52 36 87.5t89 35.5q50 0 85 -36t35 -87t-35.5 -87t-86.5 -36t-87 36t-36 87z" />
<glyph unicode="&#xcc;" horiz-adv-x="661" d="M-55 1759h282l213 -276h-102zM61 -6v55q114 7 142 30.5t28 108.5v992q0 85 -28 107t-142 30v55q175 -14 269 -14q93 0 268 14v-55q-114 -8 -142 -30t-28 -107v-992q0 -31 1.5 -49.5t9 -35t17.5 -24.5t31 -15t45.5 -9.5t65.5 -5.5v-55q-175 14 -268 14q-94 0 -269 -14z " />
<glyph unicode="&#xcd;" horiz-adv-x="661" d="M63 -6v55q114 7 142 30.5t28 108.5v992q0 85 -28 107t-142 30v55q175 -14 269 -14q93 0 268 14v-55q-114 -8 -142 -30t-28 -107v-992q0 -31 1.5 -49.5t9 -35t17.5 -24.5t31 -15t45.5 -9.5t65.5 -5.5v-55q-175 14 -268 14q-94 0 -269 -14zM225 1483l213 276h283l-393 -276 h-103z" />
<glyph unicode="&#xce;" horiz-adv-x="661" d="M16 1479l269 286h92l268 -286h-94l-221 161l-219 -161h-95zM63 -6v55q114 7 142 30.5t28 108.5v992q0 85 -28 107t-142 30v55q175 -14 269 -14q93 0 268 14v-55q-114 -8 -142 -30t-28 -107v-992q0 -31 1.5 -49.5t9 -35t17.5 -24.5t31 -15t45.5 -9.5t65.5 -5.5v-55 q-175 14 -268 14q-94 0 -269 -14z" />
<glyph unicode="&#xcf;" horiz-adv-x="661" d="M43 1620q0 51 35 86t86 35q50 0 84.5 -34.5t34.5 -84.5q0 -51 -34.5 -86t-84.5 -35q-51 0 -86 34.5t-35 84.5zM61 -6v55q114 7 142 30.5t28 108.5v992q0 85 -28 107t-142 30v55q175 -14 269 -14q93 0 268 14v-55q-114 -8 -142 -30t-28 -107v-992q0 -31 1.5 -49.5t9 -35 t17.5 -24.5t31 -15t45.5 -9.5t65.5 -5.5v-55q-175 14 -268 14q-94 0 -269 -14zM377 1620q0 51 35 86t86 35q49 0 83.5 -34.5t34.5 -84.5q0 -51 -34 -86t-84 -35q-51 0 -86 34.5t-35 84.5z" />
<glyph unicode="&#xd0;" horiz-adv-x="1312" d="M55 0v55q61 4 91.5 9.5t50 22t24 39.5t4.5 69v485h-170v76h170v418q0 85 -28 107t-142 30v55h520q148 0 247 -31.5t175 -103.5q103 -96 161.5 -240t58.5 -305q0 -166 -61 -314t-165 -237q-79 -70 -183 -102.5t-249 -32.5h-504zM422 166q0 -66 23 -84.5t106 -18.5 q220 0 323 115q140 158 140 514q0 317 -125 482q-52 66 -127.5 96t-186.5 30h-153v-544h309v-76h-309v-514z" />
<glyph unicode="&#xd1;" horiz-adv-x="1386" d="M61 1317v55q114 -6 179 -6q59 0 161 6l686 -1003v811q0 85 -27.5 107.5t-141.5 29.5v55q148 -8 208 -8q67 0 203 8v-55q-114 -8 -142 -30t-28 -107v-1219h-35q-83 131 -219 332l-600 885v-990q0 -85 28.5 -108t141.5 -31v-55q-133 10 -209 10q-80 0 -203 -10v55 q113 8 141.5 31t28.5 108v1063q-55 61 -172 66zM356 1532q35 114 81.5 160.5t123.5 46.5q70 0 150 -53q64 -40 86.5 -50t52.5 -10q46 0 72.5 22.5t54.5 82.5l59 -15q-14 -63 -28.5 -94.5t-44.5 -60.5q-63 -60 -138 -60q-41 0 -72.5 13t-105.5 61q-61 39 -106 39 q-42 0 -70.5 -22.5t-52.5 -75.5z" />
<glyph unicode="&#xd2;" horiz-adv-x="1310" d="M94 686q0 320 153 513.5t406 193.5q260 0 412 -193.5t152 -523.5q0 -318 -153.5 -510.5t-406.5 -192.5q-258 0 -410.5 193t-152.5 520zM301 690q0 -315 93 -486t265 -171q169 0 260 168.5t91 480.5q0 316 -90.5 483.5t-260.5 167.5t-264 -168.5t-94 -474.5zM303 1759h289 l239 -276h-102z" />
<glyph unicode="&#xd3;" horiz-adv-x="1310" d="M94 686q0 320 153 513.5t406 193.5q260 0 412 -193.5t152 -523.5q0 -318 -153.5 -510.5t-406.5 -192.5q-258 0 -410.5 193t-152.5 520zM301 690q0 -315 93 -486t265 -171q169 0 260 168.5t91 480.5q0 316 -90.5 483.5t-260.5 167.5t-264 -168.5t-94 -474.5zM530 1483 l240 276h289l-426 -276h-103z" />
<glyph unicode="&#xd4;" horiz-adv-x="1310" d="M94 686q0 320 153 513.5t406 193.5q260 0 412 -193.5t152 -523.5q0 -318 -153.5 -510.5t-406.5 -192.5q-258 0 -410.5 193t-152.5 520zM301 690q0 -315 93 -486t265 -171q169 0 260 168.5t91 480.5q0 316 -90.5 483.5t-260.5 167.5t-264 -168.5t-94 -474.5zM301 1479 l309 286h92l310 -286h-101l-256 161l-254 -161h-100z" />
<glyph unicode="&#xd5;" horiz-adv-x="1310" d="M94 686q0 320 153 513.5t406 193.5q260 0 412 -193.5t152 -523.5q0 -318 -153.5 -510.5t-406.5 -192.5q-258 0 -410.5 193t-152.5 520zM301 690q0 -315 93 -486t265 -171q169 0 260 168.5t91 480.5q0 316 -90.5 483.5t-260.5 167.5t-264 -168.5t-94 -474.5zM330 1532 q35 114 81.5 160.5t123.5 46.5q69 0 149 -53q64 -40 86.5 -50t52.5 -10q45 0 72 22.5t55 82.5l60 -15q-14 -63 -29 -94.5t-45 -60.5q-63 -60 -137 -60q-41 0 -72.5 13t-105.5 61q-61 39 -107 39q-42 0 -70.5 -22.5t-52.5 -75.5z" />
<glyph unicode="&#xd6;" horiz-adv-x="1310" d="M94 686q0 320 153 513.5t406 193.5q260 0 412 -193.5t152 -523.5q0 -318 -153.5 -510.5t-406.5 -192.5q-258 0 -410.5 193t-152.5 520zM301 690q0 -315 93 -486t265 -171q169 0 260 168.5t91 480.5q0 316 -90.5 483.5t-260.5 167.5t-264 -168.5t-94 -474.5zM348 1622 q0 52 36 87.5t89 35.5q50 0 85.5 -36t35.5 -87t-36 -87t-87 -36t-87 36t-36 87zM717 1622q0 52 36 87.5t89 35.5q50 0 85.5 -36t35.5 -87t-36 -87t-87 -36t-87 36t-36 87z" />
<glyph unicode="&#xd7;" d="M145 987l97 96l299 -299l297 295l90 -90l-295 -297l299 -299l-96 -96l-299 299l-295 -295l-92 90l294 297z" />
<glyph unicode="&#xd8;" horiz-adv-x="1310" d="M47 0l168 203q-121 193 -121 469q0 326 154 523.5t407 197.5q117 0 220.5 -44t175.5 -126l120 143h95l-168 -205q119 -186 119 -465q0 -327 -153.5 -525t-406.5 -198q-243 0 -397 168l-119 -141h-94zM293 655q0 -167 39 -319l622 778q-93 219 -288 219 q-177 0 -275 -178.5t-98 -499.5zM358 252q41 -106 116.5 -162.5t176.5 -56.5q177 0 272 179t95 509q0 169 -37 309z" />
<glyph unicode="&#xd9;" horiz-adv-x="1374" d="M51 1317v55q175 -14 268 -14q94 0 269 14v-55q-114 -8 -142 -30t-28 -107v-772q0 -93 14 -145.5t49 -92.5q84 -96 254 -96q102 0 181.5 36.5t117.5 100.5q47 78 47 233v736q0 85 -28 107t-142 30v55q148 -8 209 -8q67 0 203 8v-55q-114 -8 -142 -30t-28 -107v-731 q0 -108 -16.5 -174t-57.5 -123q-125 -175 -393 -175q-238 0 -367 144q-54 58 -76 128t-22 183v748q0 85 -28 107t-142 30zM328 1759h288l240 -276h-102z" />
<glyph unicode="&#xda;" horiz-adv-x="1374" d="M51 1317v55q175 -14 268 -14q94 0 269 14v-55q-114 -8 -142 -30t-28 -107v-772q0 -93 14 -145.5t49 -92.5q84 -96 254 -96q102 0 181.5 36.5t117.5 100.5q47 78 47 233v736q0 85 -28 107t-142 30v55q148 -8 209 -8q67 0 203 8v-55q-114 -8 -142 -30t-28 -107v-731 q0 -108 -16.5 -174t-57.5 -123q-125 -175 -393 -175q-238 0 -367 144q-54 58 -76 128t-22 183v748q0 85 -28 107t-142 30zM600 1483l240 276h288l-426 -276h-102z" />
<glyph unicode="&#xdb;" horiz-adv-x="1374" d="M51 1317v55q175 -14 268 -14q94 0 269 14v-55q-114 -8 -142 -30t-28 -107v-772q0 -93 14 -145.5t49 -92.5q84 -96 254 -96q102 0 181.5 36.5t117.5 100.5q47 78 47 233v736q0 85 -28 107t-142 30v55q148 -8 209 -8q67 0 203 8v-55q-114 -8 -142 -30t-28 -107v-731 q0 -108 -16.5 -174t-57.5 -123q-125 -175 -393 -175q-238 0 -367 144q-54 58 -76 128t-22 183v748q0 85 -28 107t-142 30zM371 1479l309 286h92l309 -286h-100l-256 161l-254 -161h-100z" />
<glyph unicode="&#xdc;" horiz-adv-x="1374" d="M51 1317v55q175 -14 268 -14q94 0 269 14v-55q-114 -8 -142 -30t-28 -107v-772q0 -93 14 -145.5t49 -92.5q84 -96 254 -96q102 0 181.5 36.5t117.5 100.5q47 78 47 233v736q0 85 -28 107t-142 30v55q148 -8 209 -8q67 0 203 8v-55q-114 -8 -142 -30t-28 -107v-731 q0 -108 -16.5 -174t-57.5 -123q-125 -175 -393 -175q-238 0 -367 144q-54 58 -76 128t-22 183v748q0 85 -28 107t-142 30zM414 1622q0 52 36 87.5t89 35.5q50 0 85 -36t35 -87t-35.5 -87t-86.5 -36t-87 36t-36 87zM782 1622q0 52 36 87.5t89 35.5q50 0 85.5 -36t35.5 -87 t-36 -87t-87 -36t-87 36t-36 87z" />
<glyph unicode="&#xdd;" horiz-adv-x="1226" d="M29 1317v55q155 -14 262 -14t262 14v-55q-81 -4 -111 -17t-30 -43q0 -22 22 -65l254 -504l250 504q23 44 23 70q0 28 -28.5 39t-107.5 16v55q108 -10 191 -10q82 0 190 10v-55q-85 -9 -119.5 -30.5t-66.5 -84.5l-305 -608v-406q0 -85 28.5 -108t141.5 -31v-55 q-175 14 -269 14q-93 0 -268 -14v55q113 8 141.5 31t28.5 108v406l-295 590q-37 75 -74.5 101t-119.5 32zM532 1483l240 276h289l-426 -276h-103z" />
<glyph unicode="&#xde;" horiz-adv-x="1136" d="M63 -6v55q114 7 142 30.5t28 108.5v992q0 85 -28 107t-142 30v55q175 -14 269 -14q93 0 268 14v-55q-114 -8 -142 -30t-28 -107v-37h186q109 0 181.5 -16.5t128.5 -53.5q72 -49 113.5 -133t41.5 -178q0 -92 -40.5 -172t-112.5 -131q-112 -74 -287 -74h-211v-197 q0 -31 1.5 -49.5t9 -35t17.5 -24.5t31 -15t45.5 -9.5t65.5 -5.5v-55q-175 14 -268 14q-94 0 -269 -14zM430 451h145q147 0 216 63q94 85 94 252q0 73 -20.5 136.5t-55.5 101.5q-67 73 -221 73h-158v-626z" />
<glyph unicode="&#xdf;" horiz-adv-x="1067" d="M43 -6v45q95 5 121 24.5t26 88.5v823q0 167 68 262q47 66 126.5 103.5t170.5 37.5q149 0 245.5 -90.5t96.5 -230.5q0 -103 -52.5 -172t-170.5 -123q317 -85 317 -397q0 -163 -93.5 -272t-231.5 -109q-88 0 -174 59v59q56 -32 110 -32q95 0 149 75.5t54 210.5 q0 104 -38 184t-108 124q-70 45 -204 53v69q138 6 201 73t63 208q0 250 -168 250q-50 0 -89.5 -23t-58.5 -63q-26 -53 -26 -156v-1079q-99 6 -148 6q-71 0 -186 -8z" />
<glyph unicode="&#xe0;" horiz-adv-x="972" d="M74 246q0 93 57 161.5t174 118.5q146 57 307 76v125q0 58 -7 90t-25 55q-43 56 -134 56q-69 0 -115 -32t-46 -79q0 -19 2 -29q2 -12 2 -30q0 -94 -88 -94q-76 0 -76 75q0 100 101.5 173t242.5 73q93 0 168 -33.5t115 -93.5q26 -36 36.5 -89.5t10.5 -143.5v-404 q0 -99 17 -136.5t61 -37.5q17 0 53 8v-55q-80 -14 -123 -14q-80 0 -120 41t-50 135q-54 -99 -116.5 -139.5t-160.5 -40.5q-127 0 -206.5 73.5t-79.5 190.5zM170 1425h264l184 -299h-92zM262 264q0 -88 43.5 -138t118.5 -50q128 0 170 123q18 55 18 168v182 q-187 -35 -268.5 -101.5t-81.5 -183.5z" />
<glyph unicode="&#xe1;" horiz-adv-x="972" d="M74 246q0 93 57 161.5t174 118.5q146 57 307 76v125q0 58 -7 90t-25 55q-43 56 -134 56q-69 0 -115 -32t-46 -79q0 -19 2 -29q2 -12 2 -30q0 -94 -88 -94q-76 0 -76 75q0 100 101.5 173t242.5 73q93 0 168 -33.5t115 -93.5q26 -36 36.5 -89.5t10.5 -143.5v-404 q0 -99 17 -136.5t61 -37.5q17 0 53 8v-55q-80 -14 -123 -14q-80 0 -120 41t-50 135q-54 -99 -116.5 -139.5t-160.5 -40.5q-127 0 -206.5 73.5t-79.5 190.5zM262 264q0 -88 43.5 -138t118.5 -50q128 0 170 123q18 55 18 168v182q-187 -35 -268.5 -101.5t-81.5 -183.5z M362 1126l183 299h266l-358 -299h-91z" />
<glyph unicode="&#xe2;" horiz-adv-x="972" d="M74 246q0 93 57 161.5t174 118.5q146 57 307 76v125q0 58 -7 90t-25 55q-43 56 -134 56q-69 0 -115 -32t-46 -79q0 -19 2 -29q2 -12 2 -30q0 -94 -88 -94q-76 0 -76 75q0 100 101.5 173t242.5 73q93 0 168 -33.5t115 -93.5q26 -36 36.5 -89.5t10.5 -143.5v-404 q0 -99 17 -136.5t61 -37.5q17 0 53 8v-55q-80 -14 -123 -14q-80 0 -120 41t-50 135q-54 -99 -116.5 -139.5t-160.5 -40.5q-127 0 -206.5 73.5t-79.5 190.5zM156 1122l286 312h76l287 -312h-98l-228 170l-227 -170h-96zM262 264q0 -88 43.5 -138t118.5 -50q128 0 170 123 q18 55 18 168v182q-187 -35 -268.5 -101.5t-81.5 -183.5z" />
<glyph unicode="&#xe3;" horiz-adv-x="972" d="M74 246q0 93 57 161.5t174 118.5q146 57 307 76v125q0 58 -7 90t-25 55q-43 56 -134 56q-69 0 -115 -32t-46 -79q0 -19 2 -29q2 -12 2 -30q0 -94 -88 -94q-76 0 -76 75q0 100 101.5 173t242.5 73q93 0 168 -33.5t115 -93.5q26 -36 36.5 -89.5t10.5 -143.5v-404 q0 -99 17 -136.5t61 -37.5q17 0 53 8v-55q-80 -14 -123 -14q-80 0 -120 41t-50 135q-54 -99 -116.5 -139.5t-160.5 -40.5q-127 0 -206.5 73.5t-79.5 190.5zM168 1190q21 69 34.5 97.5t35.5 53.5q56 56 127 56q64 0 143 -54q60 -41 82 -51t51 -10q45 0 69 20.5t52 83.5 l59 -12q-22 -106 -74 -161.5t-129 -55.5q-40 0 -72 13.5t-100 60.5q-57 41 -100 41q-40 0 -67 -22t-52 -76zM262 264q0 -88 43.5 -138t118.5 -50q128 0 170 123q18 55 18 168v182q-187 -35 -268.5 -101.5t-81.5 -183.5z" />
<glyph unicode="&#xe4;" horiz-adv-x="972" d="M74 246q0 93 57 161.5t174 118.5q146 57 307 76v125q0 58 -7 90t-25 55q-43 56 -134 56q-69 0 -115 -32t-46 -79q0 -19 2 -29q2 -12 2 -30q0 -94 -88 -94q-76 0 -76 75q0 100 101.5 173t242.5 73q93 0 168 -33.5t115 -93.5q26 -36 36.5 -89.5t10.5 -143.5v-404 q0 -99 17 -136.5t61 -37.5q17 0 53 8v-55q-80 -14 -123 -14q-80 0 -120 41t-50 135q-54 -99 -116.5 -139.5t-160.5 -40.5q-127 0 -206.5 73.5t-79.5 190.5zM172 1274q0 50 34 83.5t85 33.5q47 0 81 -35t34 -82q0 -50 -34 -83.5t-83 -33.5q-47 0 -82 35t-35 82zM262 264 q0 -88 43.5 -138t118.5 -50q128 0 170 123q18 55 18 168v182q-187 -35 -268.5 -101.5t-81.5 -183.5zM557 1274q0 50 34 83.5t85 33.5q47 0 81 -35t34 -82t-35 -82t-82 -35t-82 35t-35 82z" />
<glyph unicode="&#xe5;" horiz-adv-x="972" d="M74 246q0 93 57 161.5t174 118.5q146 57 307 76v125q0 58 -7 90t-25 55q-43 56 -134 56q-69 0 -115 -32t-46 -79q0 -19 2 -29q2 -12 2 -30q0 -94 -88 -94q-76 0 -76 75q0 100 101.5 173t242.5 73q93 0 168 -33.5t115 -93.5q26 -36 36.5 -89.5t10.5 -143.5v-404 q0 -99 17 -136.5t61 -37.5q17 0 53 8v-55q-80 -14 -123 -14q-80 0 -120 41t-50 135q-54 -99 -116.5 -139.5t-160.5 -40.5q-127 0 -206.5 73.5t-79.5 190.5zM262 264q0 -88 43.5 -138t118.5 -50q128 0 170 123q18 55 18 168v182q-187 -35 -268.5 -101.5t-81.5 -183.5z M305 1290q0 72 51.5 123t124.5 51q70 0 121 -51.5t51 -122.5q0 -72 -51 -123t-123 -51t-123 51t-51 123zM381 1290q0 -40 29 -69t69 -29q41 0 70 28.5t29 69.5q0 40 -28.5 69.5t-68.5 29.5q-43 0 -71.5 -28.5t-28.5 -70.5z" />
<glyph unicode="&#xe6;" horiz-adv-x="1488" d="M74 240q0 146 133 228t405 107v152q0 105 -39.5 153t-126.5 48q-67 0 -115 -32t-48 -75q0 -12 2 -20q4 -36 4 -47q0 -43 -23.5 -66.5t-66.5 -23.5q-74 0 -74 75q0 100 101 173t239 73q88 0 160.5 -31t113.5 -86q57 56 132.5 86.5t154.5 30.5q93 0 175.5 -43.5 t125.5 -114.5q40 -66 59 -140.5t23 -186.5h-612q3 -202 39 -291q64 -156 229 -156q107 0 174.5 66.5t89.5 193.5h82q-20 -157 -120.5 -244t-258.5 -87q-258 0 -373 229q-38 -118 -109.5 -174.5t-184.5 -56.5q-129 0 -210 73t-81 187zM260 258q0 -85 44.5 -134.5t119.5 -49.5 q102 0 151 84q37 64 37 209v141q-190 -22 -271 -79t-81 -171zM799 580h422q-9 352 -203 352q-192 0 -219 -352z" />
<glyph unicode="&#xe7;" horiz-adv-x="905" d="M84 477q0 229 115.5 372.5t298.5 143.5q68 0 117 -20.5t98 -69.5l57 107h37v-348h-49q-18 98 -47 151q-29 57 -80 90t-109 33q-115 0 -177 -118.5t-62 -338.5q0 -432 233 -432q189 0 227 268h84q-17 -148 -92.5 -235t-199.5 -100l-52 -97q91 -7 132.5 -40.5t41.5 -98.5 q0 -69 -51.5 -111.5t-136.5 -42.5q-75 0 -158 33v64q72 -19 109 -19q45 0 71.5 23t26.5 63q0 43 -35.5 63t-115.5 23l77 140q-170 25 -265 155.5t-95 341.5z" />
<glyph unicode="&#xe8;" horiz-adv-x="948" d="M78 479q0 235 111 374.5t298 139.5q184 0 281 -124.5t102 -366.5h-604q1 -241 63.5 -348t202.5 -107q106 0 172.5 68t86.5 196h79q-20 -159 -116.5 -247.5t-249.5 -88.5q-200 0 -313 134t-113 370zM166 1425h264l184 -299h-92zM270 575h414q-7 187 -56 276t-143 89 q-191 0 -215 -365z" />
<glyph unicode="&#xe9;" horiz-adv-x="942" d="M78 479q0 235 111 374.5t298 139.5q184 0 281 -124.5t102 -366.5h-604q1 -241 63.5 -348t202.5 -107q106 0 172.5 68t86.5 196h79q-20 -159 -116.5 -247.5t-249.5 -88.5q-200 0 -313 134t-113 370zM270 575h414q-7 187 -56 276t-143 89q-191 0 -215 -365zM383 1126 l182 299h266l-358 -299h-90z" />
<glyph unicode="&#xea;" horiz-adv-x="948" d="M78 479q0 235 111 374.5t298 139.5q184 0 281 -124.5t102 -366.5h-604q1 -241 63.5 -348t202.5 -107q106 0 172.5 68t86.5 196h79q-20 -159 -116.5 -247.5t-249.5 -88.5q-200 0 -313 134t-113 370zM164 1122l287 312h75l287 -312h-98l-228 170l-227 -170h-96zM270 575 h414q-7 187 -56 276t-143 89q-191 0 -215 -365z" />
<glyph unicode="&#xeb;" horiz-adv-x="948" d="M78 479q0 235 111 374.5t298 139.5q184 0 281 -124.5t102 -366.5h-604q1 -241 63.5 -348t202.5 -107q106 0 172.5 68t86.5 196h79q-20 -159 -116.5 -247.5t-249.5 -88.5q-200 0 -313 134t-113 370zM176 1274q0 50 34 83.5t85 33.5q47 0 81 -35t34 -82q0 -50 -34 -83.5 t-83 -33.5q-47 0 -82 35t-35 82zM270 575h414q-7 187 -56 276t-143 89q-191 0 -215 -365zM561 1274q0 50 34 83.5t85 33.5q47 0 81 -35t34 -82t-35 -82t-82 -35t-82 35t-35 82z" />
<glyph unicode="&#xec;" horiz-adv-x="589" d="M-41 1425h250l184 -299h-92zM59 -6v45q96 5 122 24.5t26 88.5v628q0 83 -24.5 104t-121.5 21v39q182 16 330 60v-852q0 -69 26 -88.5t122 -24.5v-45q-136 12 -240 12t-240 -12z" />
<glyph unicode="&#xed;" horiz-adv-x="589" d="M59 -6v45q96 5 122 24.5t26 88.5v628q0 83 -24.5 104t-121.5 21v39q182 16 330 60v-852q0 -69 26 -88.5t122 -24.5v-45q-136 12 -240 12t-240 -12zM168 1126l182 299h252l-344 -299h-90z" />
<glyph unicode="&#xee;" horiz-adv-x="589" d="M-2 1122l246 312h75l246 -312h-90l-194 164l-193 -164h-90zM61 -6v45q96 5 122 24.5t26 88.5v628q0 83 -24.5 104t-121.5 21v39q182 16 330 60v-852q0 -69 26 -88.5t122 -24.5v-45q-136 12 -240 12t-240 -12z" />
<glyph unicode="&#xef;" horiz-adv-x="589" d="M16 1294q0 48 34 81.5t83 33.5q46 0 79.5 -34t33.5 -81t-34 -80.5t-81 -33.5t-81 33.5t-34 80.5zM59 -6v45q96 5 122 24.5t26 88.5v616q0 34 -1 53.5t-7.5 36.5t-14.5 24.5t-26.5 13.5t-39 7t-57.5 2v39q177 16 332 60v-852q0 -69 26 -88.5t122 -24.5v-45 q-136 12 -242 12q-104 0 -240 -12zM330 1294q0 48 33.5 81.5t82.5 33.5q46 0 79.5 -34t33.5 -81t-34 -80.5t-81 -33.5t-80.5 33.5t-33.5 80.5z" />
<glyph unicode="&#xf0;" horiz-adv-x="974" d="M78 487q0 217 115.5 357.5t295.5 140.5q31 0 56 -4l-103 160l-153 -94l-37 61l149 94l-94 150l51 32l113 -135l160 101l39 -66l-150 -94l164 -199q120 -148 166.5 -260t46.5 -254q0 -217 -113.5 -356t-291.5 -139q-181 0 -297.5 142t-116.5 363zM270 514q0 -237 57 -358 t167 -121q211 0 211 409q0 241 -56 364.5t-164 123.5q-106 0 -160.5 -105.5t-54.5 -312.5z" />
<glyph unicode="&#xf1;" horiz-adv-x="1144" d="M59 -6v45q96 5 122 24.5t26 88.5v616q-2 66 -4.5 83t-12.5 30q-12 11 -38.5 14.5t-92.5 3.5v41q176 20 287 59q18 -57 27 -176q57 85 123.5 123.5t156.5 38.5q83 0 150.5 -34.5t105.5 -96.5q47 -70 47 -215v-487q0 -69 26 -88.5t122 -24.5v-45q-122 12 -232 12 q-111 0 -229 -12v43q75 3 101 25t26 85v504q0 121 -31 168q-48 70 -143 70q-109 0 -168 -84q-20 -29 -27.5 -63.5t-7.5 -96.5v-498q0 -63 25 -85t100 -25v-43q-118 12 -227 12q-110 0 -232 -12zM248 1190q22 70 34.5 98t34.5 53q56 56 127 56q65 0 144 -54q60 -41 82 -51 t51 -10q45 0 69 20.5t52 83.5l59 -12q-22 -106 -74 -161.5t-129 -55.5q-40 0 -72 13.5t-100 60.5q-57 41 -100 41q-40 0 -67 -22t-52 -76z" />
<glyph unicode="&#xf2;" horiz-adv-x="974" d="M78 483q0 223 117.5 366.5t300.5 143.5q180 0 290.5 -141.5t110.5 -370.5q0 -218 -116.5 -361t-293.5 -143q-181 0 -295 141.5t-114 364.5zM178 1425h264l185 -299h-92zM270 483q0 -452 215 -452q220 0 220 448q0 461 -213 461q-109 0 -165.5 -116.5t-56.5 -340.5z" />
<glyph unicode="&#xf3;" horiz-adv-x="974" d="M78 483q0 223 117.5 366.5t300.5 143.5q180 0 290.5 -141.5t110.5 -370.5q0 -218 -116.5 -361t-293.5 -143q-181 0 -295 141.5t-114 364.5zM270 483q0 -452 215 -452q220 0 220 448q0 461 -213 461q-109 0 -165.5 -116.5t-56.5 -340.5zM387 1126l182 299h267l-359 -299 h-90z" />
<glyph unicode="&#xf4;" horiz-adv-x="974" d="M78 483q0 223 117.5 366.5t300.5 143.5q180 0 290.5 -141.5t110.5 -370.5q0 -218 -116.5 -361t-293.5 -143q-181 0 -295 141.5t-114 364.5zM164 1122l287 312h75l287 -312h-98l-228 170l-227 -170h-96zM270 483q0 -452 215 -452q220 0 220 448q0 461 -213 461 q-109 0 -165.5 -116.5t-56.5 -340.5z" />
<glyph unicode="&#xf5;" horiz-adv-x="974" d="M78 483q0 223 117.5 366.5t300.5 143.5q180 0 290.5 -141.5t110.5 -370.5q0 -218 -116.5 -361t-293.5 -143q-181 0 -295 141.5t-114 364.5zM168 1190q21 69 34.5 97.5t35.5 53.5q56 56 127 56q64 0 143 -54q60 -41 82 -51t51 -10q45 0 69 20.5t52 83.5l59 -12 q-22 -106 -74 -161.5t-129 -55.5q-40 0 -72 13.5t-100 60.5q-57 41 -100 41q-40 0 -67 -22t-52 -76zM270 483q0 -452 215 -452q220 0 220 448q0 461 -213 461q-109 0 -165.5 -116.5t-56.5 -340.5z" />
<glyph unicode="&#xf6;" horiz-adv-x="974" d="M78 483q0 223 117.5 366.5t300.5 143.5q180 0 290.5 -141.5t110.5 -370.5q0 -218 -116.5 -361t-293.5 -143q-181 0 -295 141.5t-114 364.5zM180 1274q0 50 34 83.5t85 33.5q47 0 81 -35t34 -82q0 -50 -34 -83.5t-83 -33.5q-47 0 -82 35t-35 82zM270 483q0 -452 215 -452 q220 0 220 448q0 461 -213 461q-109 0 -165.5 -116.5t-56.5 -340.5zM565 1274q0 50 34 83.5t85 33.5q47 0 81 -35t34 -82t-35 -82t-82 -35t-82 35t-35 82z" />
<glyph unicode="&#xf7;" d="M106 627v129h867v-129h-867zM426 397q0 48 34 81.5t83 33.5q46 0 79 -34t33 -81t-33.5 -80.5t-80.5 -33.5t-81 33.5t-34 80.5zM426 985q0 48 34 81.5t83 33.5q46 0 79 -34t33 -81t-33.5 -81t-80.5 -34t-81 34t-34 81z" />
<glyph unicode="&#xf8;" horiz-adv-x="974" d="M41 -10l129 157q-92 142 -92 334q0 221 119 366.5t299 145.5q88 0 144 -24t122 -90l80 98h82l-119 -150q94 -142 94 -342q0 -220 -118 -365t-298 -145q-81 0 -144.5 28.5t-127.5 92.5l-86 -106h-84zM264 487q0 -119 21 -211l387 502q-17 74 -65 118t-111 44 q-113 0 -172.5 -116.5t-59.5 -336.5zM303 197q19 -73 72.5 -120.5t116.5 -47.5q107 0 164 113.5t57 328.5q0 143 -23 225z" />
<glyph unicode="&#xf9;" horiz-adv-x="1126" d="M31 905v39q180 16 329 60v-689q0 -127 41.5 -182t135.5 -55q117 0 172 92q30 55 30 168v442q0 84 -23.5 104.5t-121.5 20.5v39q176 15 330 60v-828q0 -45 9 -65t34 -27q23 -6 110 -8v-43q-175 -15 -297 -58q-13 69 -16 187q-51 -94 -118 -136t-167 -42q-172 0 -254 120 q-49 71 -49 218v458q0 83 -24 104t-121 21zM236 1425h264l184 -299h-92z" />
<glyph unicode="&#xfa;" horiz-adv-x="1126" d="M31 905v39q180 16 329 60v-689q0 -127 41.5 -182t135.5 -55q117 0 172 92q30 55 30 168v442q0 84 -23.5 104.5t-121.5 20.5v39q176 15 330 60v-828q0 -45 9 -65t34 -27q23 -6 110 -8v-43q-175 -15 -297 -58q-13 69 -16 187q-51 -94 -118 -136t-167 -42q-172 0 -254 120 q-49 71 -49 218v458q0 83 -24 104t-121 21zM442 1126l183 299h266l-359 -299h-90z" />
<glyph unicode="&#xfb;" horiz-adv-x="1126" d="M31 905v39q180 16 329 60v-689q0 -127 41.5 -182t135.5 -55q117 0 172 92q30 55 30 168v442q0 84 -23.5 104.5t-121.5 20.5v39q176 15 330 60v-828q0 -45 9 -65t34 -27q23 -6 110 -8v-43q-175 -15 -297 -58q-13 69 -16 187q-51 -94 -118 -136t-167 -42q-172 0 -254 120 q-49 71 -49 218v458q0 83 -24 104t-121 21zM219 1122l287 312h76l286 -312h-98l-227 170l-228 -170h-96z" />
<glyph unicode="&#xfc;" horiz-adv-x="1126" d="M31 905v39q180 16 329 60v-689q0 -127 41.5 -182t135.5 -55q117 0 172 92q30 55 30 168v442q0 84 -23.5 104.5t-121.5 20.5v39q176 15 330 60v-828q0 -45 9 -65t34 -27q23 -6 110 -8v-43q-175 -15 -297 -58q-13 69 -16 187q-51 -94 -118 -136t-167 -42q-172 0 -254 120 q-49 71 -49 218v458q0 83 -24 104t-121 21zM236 1274q0 50 33.5 83.5t84.5 33.5q47 0 81 -35t34 -82q0 -50 -33.5 -83.5t-83.5 -33.5q-47 0 -81.5 35t-34.5 82zM621 1274q0 50 33.5 83.5t84.5 33.5q47 0 81 -35t34 -82t-35 -82t-82 -35t-81.5 35t-34.5 82z" />
<glyph unicode="&#xfd;" horiz-adv-x="1038" d="M25 928v45q120 -10 221 -10q98 0 221 10v-45q-64 -5 -86.5 -13.5t-22.5 -29.5q0 -8 17 -58l205 -565l217 557q18 48 18 62q0 26 -24 35.5t-91 11.5v45q84 -8 154 -8q67 0 174 8v-45q-65 -6 -100.5 -31t-57.5 -80l-389 -985q-47 -121 -121.5 -178t-185.5 -57q-19 0 -35 2 v106q14 -2 31 -2q91 0 150.5 41t99.5 133l65 154l-303 792q-25 61 -55.5 81.5t-101.5 23.5zM453 1126l182 299h266l-358 -299h-90z" />
<glyph unicode="&#xfe;" horiz-adv-x="1081" d="M41 -365q96 4 121.5 24t25.5 89v1421q0 45 -4 67t-21 36t-42.5 17.5t-77.5 4.5v39q176 14 330 60v-539q46 68 102.5 99.5t132.5 31.5q173 0 285.5 -142t112.5 -360q0 -221 -108.5 -361t-279.5 -140q-82 0 -132.5 30t-112.5 113v-377q0 -69 25.5 -89t121.5 -24v-45 q-150 13 -239 13q-91 0 -240 -13v45zM371 498q0 -459 225 -459q217 0 217 436q0 453 -223 453q-219 0 -219 -430z" />
<glyph unicode="&#xff;" horiz-adv-x="1038" d="M25 928v45q120 -10 221 -10q98 0 221 10v-45q-64 -5 -86.5 -13.5t-22.5 -29.5q0 -8 17 -58l205 -565l217 557q18 48 18 62q0 26 -24 35.5t-91 11.5v45q84 -8 154 -8q67 0 174 8v-45q-65 -6 -100.5 -31t-57.5 -80l-389 -985q-47 -121 -121.5 -178t-185.5 -57q-19 0 -35 2 v106q14 -2 31 -2q91 0 150.5 41t99.5 133l65 154l-303 792q-25 61 -55.5 81.5t-101.5 23.5zM252 1274q0 50 34 83.5t85 33.5q47 0 80.5 -34.5t33.5 -82.5q0 -50 -33.5 -83.5t-82.5 -33.5q-47 0 -82 35t-35 82zM637 1274q0 50 34 83.5t85 33.5q47 0 80.5 -34.5t33.5 -82.5 q0 -47 -34.5 -82t-81.5 -35t-82 35t-35 82z" />
<glyph unicode="&#x152;" horiz-adv-x="1904" d="M94 688q0 207 67.5 366.5t191 247t282.5 87.5q255 0 377 -232v209h741l41 -319h-51q-38 152 -88 202.5t-162 50.5h-305v-557h297q69 0 93 32.5t28 135.5h57v-405h-57q-3 99 -28.5 135.5t-90.5 36.5h-299v-496q0 -70 28.5 -93t114.5 -23h146q122 0 183.5 58.5t104.5 215.5 h52l-54 -340h-751v209q-123 -232 -371 -232q-247 0 -397 195t-150 516zM297 688q0 -318 92.5 -484.5t267.5 -166.5q172 0 263.5 166.5t91.5 478.5q0 316 -91.5 481.5t-263.5 165.5q-173 0 -266.5 -166t-93.5 -475z" />
<glyph unicode="&#x153;" horiz-adv-x="1581" d="M78 481q0 221 118 362.5t302 141.5q91 0 162.5 -38t136.5 -120q125 158 319 158q125 0 216 -65t132 -185q37 -101 37 -256h-612q3 -171 37 -262q61 -164 231 -164q220 0 264 260h82q-20 -156 -119.5 -243.5t-255.5 -87.5q-215 0 -333 161q-68 -85 -141.5 -123t-168.5 -38 q-179 0 -293 139.5t-114 359.5zM270 481q0 -446 215 -446q220 0 220 442q0 455 -213 455q-109 0 -165.5 -115t-56.5 -336zM891 559h424q-6 195 -55.5 286t-149.5 91q-144 0 -197 -207q-13 -57 -22 -170z" />
<glyph unicode="&#x178;" horiz-adv-x="1226" d="M29 1317v55q155 -14 262 -14t262 14v-55q-81 -4 -111 -17t-30 -43q0 -22 22 -65l254 -504l250 504q23 44 23 70q0 28 -28.5 39t-107.5 16v55q108 -10 191 -10q82 0 190 10v-55q-85 -9 -119.5 -30.5t-66.5 -84.5l-305 -608v-406q0 -85 28.5 -108t141.5 -31v-55 q-175 14 -269 14q-93 0 -268 -14v55q113 8 141.5 31t28.5 108v406l-295 590q-37 75 -74.5 101t-119.5 32zM356 1622q0 52 36 87.5t89 35.5q50 0 85.5 -36t35.5 -87t-36 -87t-87 -36t-87 36t-36 87zM725 1622q0 52 36 87.5t89 35.5q50 0 85.5 -36t35.5 -87t-36 -87t-87 -36 t-87 36t-36 87z" />
<glyph unicode="&#x2c6;" horiz-adv-x="1024" d="M188 1122l287 312h76l287 -312h-99l-227 170l-227 -170h-97z" />
<glyph unicode="&#x2dc;" horiz-adv-x="1024" d="M186 1190q21 69 34.5 97.5t35.5 53.5q56 56 127 56q64 0 143 -54q60 -41 82 -51t51 -10q45 0 69 20.5t52 83.5l60 -12q-22 -106 -74 -161.5t-129 -55.5q-40 0 -72 13.5t-100 60.5q-57 41 -100 41q-40 0 -67 -22t-52 -76z" />
<glyph unicode="&#x2000;" horiz-adv-x="901" />
<glyph unicode="&#x2001;" horiz-adv-x="1802" />
<glyph unicode="&#x2002;" horiz-adv-x="901" />
<glyph unicode="&#x2003;" horiz-adv-x="1802" />
<glyph unicode="&#x2004;" horiz-adv-x="600" />
<glyph unicode="&#x2005;" horiz-adv-x="450" />
<glyph unicode="&#x2006;" horiz-adv-x="300" />
<glyph unicode="&#x2007;" horiz-adv-x="300" />
<glyph unicode="&#x2008;" horiz-adv-x="225" />
<glyph unicode="&#x2009;" horiz-adv-x="360" />
<glyph unicode="&#x200a;" horiz-adv-x="100" />
<glyph unicode="&#x2010;" horiz-adv-x="530" d="M0 494v96h530v-96h-530z" />
<glyph unicode="&#x2011;" horiz-adv-x="530" d="M0 494v96h530v-96h-530z" />
<glyph unicode="&#x2012;" horiz-adv-x="530" d="M0 494v96h530v-96h-530z" />
<glyph unicode="&#x2013;" d="M164 494v90h754v-90h-754z" />
<glyph unicode="&#x2014;" horiz-adv-x="1234" d="M0 494v90h1235v-90h-1235z" />
<glyph unicode="&#x2018;" horiz-adv-x="485" d="M113 1040q0 150 166 336h94q-58 -58 -100 -130t-46 -124h9l14 2q41 2 71.5 -29t30.5 -75q0 -50 -33.5 -81.5t-85.5 -31.5q-55 0 -87.5 35.5t-32.5 97.5z" />
<glyph unicode="&#x2019;" horiz-adv-x="485" d="M113 920q57 56 99 129t46 125h-8h-14q-44 0 -73.5 29t-29.5 73q0 50 33.5 81.5t85.5 31.5q57 0 90 -36.5t33 -99.5q0 -146 -166 -333h-96z" />
<glyph unicode="&#x201a;" horiz-adv-x="485" d="M113 -262q57 56 99 129t46 125h-8q-6 -2 -14 -2q-44 0 -73.5 29t-29.5 75q0 50 33.5 81.5t85.5 31.5q57 0 90 -36t33 -99q0 -144 -166 -334h-96z" />
<glyph unicode="&#x201c;" horiz-adv-x="802" d="M113 1040q0 150 166 336h94q-58 -58 -100 -130t-46 -124h9l14 2q41 2 71.5 -29t30.5 -75q0 -50 -33.5 -81.5t-85.5 -31.5q-55 0 -87.5 35.5t-32.5 97.5zM430 1040q0 150 166 336h96q-59 -56 -100.5 -129t-44.5 -125h6l14 2q41 2 72 -29t31 -75q0 -50 -33.5 -81.5 t-85.5 -31.5q-56 0 -88.5 36t-32.5 97z" />
<glyph unicode="&#x201d;" horiz-adv-x="802" d="M113 920q57 56 99 129t46 125h-8h-14q-44 0 -73.5 29t-29.5 73q0 50 33.5 81.5t85.5 31.5q57 0 90 -36.5t33 -99.5q0 -146 -166 -333h-96zM430 920q57 56 99 129t46 125h-8h-12q-44 0 -73 29t-29 73q0 50 33 81.5t85 31.5q56 0 88.5 -36.5t32.5 -99.5q0 -149 -166 -333 h-96z" />
<glyph unicode="&#x201e;" horiz-adv-x="802" d="M113 -262q57 56 99 129t46 125h-8q-6 -2 -14 -2q-44 0 -73.5 29t-29.5 75q0 50 33.5 81.5t85.5 31.5q57 0 90 -36t33 -99q0 -144 -166 -334h-96zM430 -262q57 56 99 129t46 125h-8q-6 -2 -12 -2q-44 0 -73 29t-29 75q0 50 32.5 81.5t83.5 31.5q57 0 90 -36t33 -99 q0 -144 -166 -334h-96z" />
<glyph unicode="&#x2022;" horiz-adv-x="1366" d="M401 692q0 120 83.5 202.5t205.5 82.5q114 0 196.5 -83.5t82.5 -199.5q0 -118 -83 -201t-200 -83t-201 82.5t-84 199.5z" />
<glyph unicode="&#x2026;" horiz-adv-x="1458" d="M117 109q0 54 37.5 90.5t91.5 36.5q52 0 88.5 -37t36.5 -90t-37.5 -90t-89.5 -37t-89.5 37t-37.5 90zM602 109q0 54 37.5 90.5t91.5 36.5q52 0 88.5 -37t36.5 -90t-37 -90t-90 -37t-90 37t-37 90zM1087 109q0 54 38 90.5t92 36.5q52 0 88 -37t36 -90t-37.5 -90t-89.5 -37 t-89.5 37t-37.5 90z" />
<glyph unicode="&#x202f;" horiz-adv-x="360" />
<glyph unicode="&#x2039;" horiz-adv-x="544" d="M104 489l261 478h65l-164 -478l164 -489h-65z" />
<glyph unicode="&#x203a;" horiz-adv-x="550" d="M119 0l166 489l-166 478h67l258 -478l-258 -489h-67z" />
<glyph unicode="&#x205f;" horiz-adv-x="450" />
<glyph unicode="&#x2122;" horiz-adv-x="1851" d="M61 1161l37 205h578l39 -205h-45q-25 92 -56 124t-96 32h-65v-653q0 -48 17 -61t87 -17v-43q-95 10 -170 10q-77 0 -172 -10v43q70 4 87 17t17 61v653h-55q-67 0 -98.5 -31t-59.5 -125h-45zM799 541v45q70 3 87 15.5t19 60.5l23 587v6q0 41 -19 54t-86 16v45 q55 -4 121 -4q50 0 127 6l232 -588l235 588q86 -6 129 -6q60 0 115 4v-43q-67 -4 -86 -17t-19 -53v-8l13 -587q0 -46 18 -59.5t86 -16.5v-45q-103 10 -170 10q-70 0 -172 -10v45q69 3 87.5 16.5t16.5 59.5l-10 591l-215 -540q-12 -36 -20 -58q-13 -30 -21 -53l-12 -33h-29 q-2 6 -5 17t-5 16q-3 7 -8.5 21t-7.5 20q-5 15 -15 40t-14 36l-211 534l-22 -591v-13q0 -37 19 -48.5t85 -14.5v-45q-99 6 -131 6q-27 0 -135 -6z" />
<glyph unicode="&#x25fc;" horiz-adv-x="972" d="M0 0v973h973v-973h-973z" />
</font>
</defs>
</svg>
